<svg xmlns="http://www.w3.org/2000/svg">
<defs>
<font horiz-adv-x="256">


<font-face font-family="MS-PGothic" underline-position="-17" underline-thickness="19" units-per-em="256" />
<missing-glyph d="M53,168l0,-153l151,0l0,153M33,187l191,0l0,-191l-191,0z" horiz-adv-x="256" />
<glyph d="M231,110l0,-22l-211,0l0,22z" horiz-adv-x="256" unicode="一" />
<glyph d="M107,21l0,177l22,0C136,197 136,194 130,190l0,-58l81,0l0,-22l-81,0l0,-89l104,0l0,-22l-217,0l0,22z" horiz-adv-x="256" unicode="上" />
<glyph d="M145,130C175,113 200,95 219,76l-16,-18C184,77 160,96 133,113M109,-15l0,176l-90,0l0,22l215,0l0,-22l-102,0l0,-176z" horiz-adv-x="256" unicode="下" />
<glyph d="M117,73l0,65l-65,0l0,-65M117,203l19,0C141,202 142,200 137,197l0,-40l87,0l0,-110l-20,0l0,7l-67,0l0,-75l-20,0l0,75l-65,0l0,-13l-20,0l0,116l85,0M204,73l0,65l-67,0l0,-65z" horiz-adv-x="256" unicode="中" />
<glyph d="M71,136l0,-156l-20,0l0,128C44,95 35,83 25,74l-14,21C36,117 53,154 62,205l22,-6C90,197 89,195 82,192C79,175 74,158 67,143C75,142 76,139 71,136M169,131l71,0l0,-22l-71,0l0,-96l62,0l0,-22l-142,0l0,22l60,0l0,96l-67,0l0,22l67,0l0,71l19,0C173,201 174,199 169,196z" horiz-adv-x="256" unicode="仕" />
<glyph d="M9,94C34,122 50,159 56,206l24,-7C83,196 82,195 77,194C75,179 70,161 63,140C71,138 72,135 66,132l0,-153l-20,0l0,126C41,96 35,86 26,77M244,27l-2,-20C241,-7 233,-14 220,-14l-104,0C104,-14 98,-8 98,3l0,97l-20,-6l-6,20l26,7l0,56l19,0C122,176 123,174 118,171l0,-44l32,9l0,67l19,0C174,202 175,200 170,197l0,-55l36,12l3,5l19,-10C233,147 233,145 228,142l-3,-81C224,48 218,42 205,42l-20,0l-4,19l15,0C202,61 205,64 205,69l2,64l-37,-11l0,-89l-20,0l0,83l-32,-10l0,-93C118,8 120,5 125,5l86,0C216,5 219,7 220,12l2,20z" horiz-adv-x="256" unicode="他" />
<glyph d="M188,188l19,-2C212,185 213,183 208,180l0,-72C208,85 204,65 196,50l48,-39l-15,-20l-42,42C170,9 138,-8 93,-19l-8,22C120,8 145,19 162,36C179,53 188,80 188,115M153,74C132,57 94,32 41,1C40,-4 37,-5 34,0l-10,21C28,22 36,26 49,33l-6,149l21,-2C69,179 70,177 65,174l5,-131C100,60 124,76 143,91M111,177C124,168 137,155 148,140l-20,-15C116,142 105,154 94,161z" horiz-adv-x="256" unicode="以" />
<glyph d="M122,148l31,0l0,55l19,0C177,202 178,200 173,197l0,-49l49,0l0,-19l-49,0l0,-50l69,0l0,-19l-69,0l0,-81l-20,0l0,81l-74,0l0,19l74,0l0,50l-37,0C109,111 101,97 92,86l-17,16C94,127 105,155 107,187l24,-6C134,178 133,177 128,176C127,171 125,162 122,148M66,-22l-20,0l0,124C41,93 35,85 28,76l-16,18C37,123 52,160 57,205l21,-4C83,200 83,198 78,196C74,174 69,155 64,140l4,-1C70,137 69,135 66,133z" horiz-adv-x="256" unicode="件" />
<glyph d="M62,133l0,-156l-20,0l0,128C36,93 29,83 22,75l-13,21C32,120 48,156 56,205l22,-6C84,197 83,195 76,192C72,173 67,156 61,139C68,138 68,136 62,133M164,207C169,206 170,204 165,201l0,-25l71,0l0,-19l-71,0l0,-22l57,0l0,-76l-20,0l0,8l-37,0C165,54 162,41 157,28C174,17 202,8 241,1l-7,-22C199,-16 170,-6 147,11C130,-6 107,-18 76,-24l-7,19C97,0 118,9 132,23C119,35 109,47 104,59l12,8l-28,0l0,68l57,0l0,22l-68,0l0,19l68,0l0,31M145,83l0,36l-37,0l0,-36M202,83l0,36l-37,0l0,-36M145,67l-25,0C125,58 132,49 141,40C144,48 145,57 145,67z" horiz-adv-x="256" unicode="使" />
<glyph d="M25,79l-12,19C36,126 51,162 58,207l22,-5C86,200 86,198 79,197C74,178 69,159 63,140C72,137 73,134 64,130l0,-152l-20,0l0,124C37,91 31,84 25,79M239,0l-15,-19C203,-9 185,10 168,37l19,12C200,28 218,11 239,0M124,49l17,-11C146,34 145,32 139,32C122,10 104,-7 85,-20l-13,19C97,14 115,31 124,49M192,196l0,-45l37,0l0,-19l-37,0l0,-56l47,0l0,-19l-164,0l0,19l40,0l0,56l-31,0l0,19l31,0l0,52l19,0C141,202 141,199 135,195l0,-44l37,0l0,53l19,0C198,203 198,200 192,196M172,132l-37,0l0,-56l37,0z" horiz-adv-x="256" unicode="供" />
<glyph d="M10,94C35,124 50,161 55,205l23,-6C81,196 80,194 75,193C72,174 67,156 62,141C69,140 70,138 64,134l0,-156l-20,0l0,126C39,95 33,85 25,76M204,38l-89,0l0,-29l89,0M95,57l129,0l0,-76l-20,0l0,9l-89,0l0,-12l-20,0M101,74l0,19l113,0l0,-19M101,109l0,19l113,0l0,-19M78,162l161,0l0,-19l-161,0M101,198l113,0l0,-19l-113,0z" horiz-adv-x="256" unicode="信" />
<glyph d="M213,-15l0,7l-115,0l0,-11l-17,0l0,214l149,0l0,-210M61,-20l-20,0l0,123C36,94 29,85 22,77l-13,17C32,121 47,159 55,208l21,-8C79,197 78,196 73,195C70,180 65,161 58,139C66,138 67,136 61,132M134,86l0,-32l45,0l0,32M98,176l0,-165l115,0l0,165M165,143l38,0l0,-19l-38,0l0,-22l31,0l0,-72l-17,0l0,8l-45,0l0,-12l-17,0l0,76l28,0l0,22l-37,0l0,19l37,0l0,26l19,0C169,168 170,166 165,163z" horiz-adv-x="256" unicode="個" />
<glyph d="M140,28C152,18 163,7 173,-6l-16,-12C147,-4 137,8 126,18M114,17C119,12 119,10 112,10C103,-2 91,-13 77,-23l-13,15C78,1 90,13 101,28M58,139C66,139 67,137 61,133l0,-155l-20,0l0,124C35,91 29,82 22,75l-13,18C32,122 47,159 52,206l23,-5C78,198 77,197 72,196C68,173 63,154 58,139M100,39l0,-7l-17,0l0,163l72,0l0,-163l-17,0l0,7M100,58l38,0l0,28l-38,0M100,105l38,0l0,26l-38,0M100,150l38,0l0,26l-38,0M194,169l0,-133l-20,0l0,139l19,0C198,174 199,172 194,169M233,192l0,-196C233,-15 228,-20 217,-20l-22,0l-4,19l18,0C212,-1 213,0 213,3l0,195l19,0C237,197 238,195 233,192z" horiz-adv-x="256" unicode="側" />
<glyph d="M58,139l4,-1C64,136 63,134 60,132l0,-154l-20,0l0,122C38,95 33,87 25,78l-13,17C34,120 48,156 53,205l20,-3C75,200 74,198 71,196C67,170 63,151 58,139M82,-18l-17,14C77,11 83,34 83,66l0,72l37,0l0,22l-44,0l0,19l44,0l0,27l19,0C144,205 145,203 140,200l0,-21l32,0l0,27l19,0C196,205 197,203 192,200l0,-21l41,0l0,-19l-41,0l0,-22l48,0l0,-19l-137,0l0,-70C103,21 96,-1 82,-18M209,40l0,16l-29,0l0,-16M134,56l0,-16l29,0l0,16M134,89l0,-17l29,0l0,17M180,72l29,0l0,17l-29,0M209,0l0,24l-29,0l0,-40l-17,0l0,40l-29,0l0,-47l-17,0l0,128l109,0l0,-111C226,-15 222,-20 214,-20l-17,0l-4,16l12,0C208,-4 209,-3 209,0M140,160l0,-22l32,0l0,22z" horiz-adv-x="256" unicode="備" />
<glyph d="M145,93l-36,-2l0,-36C109,16 82,-10 27,-24l-7,21C66,6 89,26 89,57l0,33l-48,-2C40,83 39,81 36,84l-5,26l40,0l21,42l-69,0l0,19l94,0l0,35l19,0C141,205 142,203 137,200l0,-29l94,0l0,-19l-113,0l-25,-43l92,3C175,121 164,130 151,138l14,12C189,135 211,118 230,98l-15,-15C211,88 207,92 202,96l-37,-2l0,-82C165,7 167,5 171,5l39,0C215,5 217,7 218,11l3,22l20,-5l-3,-21C236,-7 230,-14 219,-14l-55,0C151,-14 145,-7 145,6z" horiz-adv-x="256" unicode="充" />
<glyph d="M226,-13C175,14 142,56 129,113C115,48 81,4 28,-19l-12,23C74,28 105,74 110,143l13,-1l0,32l-52,0l0,19l75,0l0,-36C146,93 177,45 240,12z" horiz-adv-x="256" unicode="入" />
<glyph d="M67,121l126,0C171,133 148,153 124,181C105,154 86,134 67,121M58,115C49,110 38,104 25,97l-10,21C60,137 94,168 115,209l22,-3C142,204 142,202 136,201l-2,-3C164,161 200,137 241,124l-10,-22C223,105 212,110 197,119l0,-17l-59,0l0,-34l65,0l0,-19l-65,0l0,-39l92,0l0,-19l-204,0l0,19l92,0l0,39l-65,0l0,19l65,0l0,34l-60,0z" horiz-adv-x="256" unicode="全" />
<glyph d="M102,79l50,0l0,54l-50,0M91,52l18,-16C112,33 109,31 102,32C85,12 63,-5 38,-19l-13,20C50,12 72,29 91,52M150,40l15,15C187,31 210,14 233,5l-14,-20C194,-4 171,14 150,40M236,79l0,-19l-217,0l0,19l63,0l0,54l-44,0l0,19l44,0l0,49l19,-2C106,198 107,196 102,193l0,-41l50,0l0,49l19,-2C176,198 177,196 172,193l0,-41l50,0l0,-19l-50,0l0,-54z" horiz-adv-x="256" unicode="共" />
<glyph d="M128,96C119,69 101,46 72,27l-14,20C95,69 114,102 114,146l-62,0l0,-161l-23,0l0,180l86,0l0,35l22,0C144,199 144,196 138,192l0,-27l90,0l0,-158C228,-6 222,-13 209,-13l-24,0l-4,22l20,0C204,9 205,10 205,13l0,133l-68,0C137,136 136,126 134,116C160,99 182,80 201,60l-15,-22C165,61 145,81 128,96z" horiz-adv-x="256" unicode="内" />
<glyph d="M184,2C187,2 188,3 188,6l0,33l-122,0l0,-59l-20,0l0,59l-33,0l0,19l33,0l0,90l71,0l0,26l-98,0l0,19l216,0l0,-19l-98,0l0,-26l71,0l0,-90l34,0l0,-19l-34,0l0,-43C208,-13 203,-17 194,-17l-34,0l-4,19M188,103l0,26l-51,0l0,-26M117,103l0,26l-51,0l0,-26M188,58l0,26l-51,0l0,-26M117,58l0,26l-51,0l0,-26z" horiz-adv-x="256" unicode="再" />
<glyph d="M54,118C97,138 124,168 133,208l27,-7C163,198 162,197 157,196C176,161 206,138 245,125l-10,-21C218,110 201,120 184,133l0,-17l-72,0l0,16C99,119 84,107 65,96M17,8C32,30 44,54 53,80l18,-11C61,41 51,18 40,0C41,-5 39,-7 36,-6M145,182C139,164 129,148 115,135l67,0C164,151 152,167 145,182M86,74l0,19l130,0l0,-82C216,2 211,-2 202,-2l-22,0l-4,19l16,0C195,17 196,18 196,21l0,53l-47,0l0,-97l-20,0l0,97M32,182C43,177 56,167 70,153l-14,-20C46,143 34,153 20,163z" horiz-adv-x="256" unicode="冷" />
<glyph d="M57,181C62,180 63,178 58,175l0,-54l59,0l0,80l19,0C141,200 142,198 137,195l0,-74l58,0l0,59l19,0C219,179 220,177 215,174l0,-81l-20,0l0,9l-58,0l0,-86l66,0l0,61l19,0C227,76 228,74 223,71l0,-85l-20,0l0,11l-155,0l0,-14l-20,0l0,95l19,0C52,77 53,75 48,72l0,-56l69,0l0,86l-59,0l0,-11l-20,0l0,90z" horiz-adv-x="256" unicode="出" />
<glyph d="M196,106l-4,-81C191,-3 181,-17 163,-17l-30,0l-3,22l25,0C164,5 168,11 169,22l4,65l-55,0l-1,-8C112,42 86,9 38,-22l-15,19C66,22 90,48 95,75l2,12l-38,0l0,19M29,90l-16,19C48,133 73,164 89,202l19,-12C112,187 111,186 106,185C90,150 64,119 29,90M230,90C193,111 166,146 149,195l19,8C184,160 210,130 245,111z" horiz-adv-x="256" unicode="分" />
<glyph d="M63,116l0,-57C63,54 65,51 70,51l17,0C98,51 104,61 106,82l20,-8C122,46 111,32 94,32l-34,0C49,32 43,38 43,49l0,63l-26,-6l-4,22l30,6l0,66l19,0C69,199 69,196 63,192l0,-54l52,13l5,-21M209,163l-38,0C171,101 166,61 157,43C142,14 116,-6 79,-19l-10,22C106,15 129,33 139,57C146,74 150,110 150,163l-39,0l0,22l120,0C231,136 229,80 225,17C224,-5 214,-16 195,-16l-27,0l-2,22l24,0C199,6 203,13 204,26C207,80 209,126 209,163z" horiz-adv-x="256" unicode="切" />
<glyph d="M117,69l-38,0C73,31 55,1 25,-21l-10,19C44,19 60,49 63,90l2,31l-14,0l0,-13l-20,0l0,86l101,0l0,-82l-20,0l0,9l-29,0l-2,-33l56,0l-5,-79C131,-7 124,-15 112,-15l-27,0l-3,19l22,0C110,4 113,7 114,14M209,-17l-22,0l-4,19l19,0C204,2 205,3 205,5l0,192l19,0C229,196 230,194 225,191l0,-191C225,-11 220,-17 209,-17M178,167l0,-137l-20,0l0,143l19,0C182,172 183,170 178,167M112,137l0,41l-61,0l0,-41z" horiz-adv-x="256" unicode="別" />
<glyph d="M23,119l0,19l51,0l0,33l-42,-3l-5,18C64,188 97,192 126,198l10,-17C137,176 135,175 130,178l-36,-4l0,-36l54,0l0,-19l-54,0l0,-22C115,88 131,76 144,63l-15,-19C119,55 107,66 94,75l0,-95l-20,0l0,97C63,57 48,39 29,24l-12,21C44,65 62,90 72,119M228,195C233,194 234,192 229,189l0,-191C229,-13 224,-18 213,-18l-23,0l-4,19l20,0C208,1 209,2 209,4l0,191M177,170C182,169 183,167 178,164l0,-134l-20,0l0,140z" horiz-adv-x="256" unicode="利" />
<glyph d="M28,197l127,0l0,-77l-20,0l0,8l-87,0l0,-65C48,34 41,9 27,-11l-17,17C22,26 28,49 28,74M96,97l0,23l16,0C117,119 118,117 113,114l0,-17l41,0l0,-80C154,8 150,3 143,3l-15,0l-3,16l8,0C136,19 137,20 137,23l0,58l-24,0l0,-103l-17,0l0,103l-20,0l0,-80l-17,0l0,96M213,2l0,197l19,0C237,198 238,196 233,193l0,-201C233,-17 229,-21 220,-21l-24,0l-4,19l17,0C212,-2 213,-1 213,2M191,174C196,173 197,171 192,168l0,-140l-20,0l0,146M135,147l0,31l-87,0l0,-31z" horiz-adv-x="256" unicode="刷" />
<glyph d="M98,97l0,20l-44,0l0,-20M98,78l-44,0l0,-21l44,0M98,2l0,36l-44,0l0,-60l-20,0l0,158l84,0l0,-139C118,-14 113,-20 102,-20l-20,0l-5,19l18,0C97,-1 98,0 98,2M147,131l20,0l0,-115l-20,0M201,3l0,136l19,0C227,138 227,135 221,131l0,-133C221,-13 216,-19 205,-19l-22,0l-4,19l19,0C200,0 201,1 201,3M166,170l76,0l0,-19l-230,0l0,19l68,0C76,179 71,187 66,194l18,10C91,197 99,185 106,170l37,0C150,183 156,195 161,208l23,-8C187,197 186,196 181,195C177,188 172,179 166,170z" horiz-adv-x="256" unicode="前" />
<glyph d="M27,7C80,25 108,65 111,128l-72,0l0,22l73,0l0,51l22,0C141,200 141,197 135,193l0,-43l88,0C222,97 220,57 219,30C218,3 208,-10 189,-10l-40,0l-4,22l34,0C190,12 195,17 196,28C197,47 199,81 200,128l-66,0C134,56 102,8 38,-17z" horiz-adv-x="256" unicode="力" />
<glyph d="M158,132l-35,0l0,19l35,0l0,52l19,0C182,202 183,200 178,197l0,-46l56,0l-4,-136C229,-6 222,-17 207,-17l-29,0l-2,19l22,0C206,2 210,5 210,12l4,120l-36,0l0,-26C178,67 171,38 157,21C144,4 125,-9 100,-19l-11,19C114,10 131,21 141,34C152,49 158,75 158,112M115,45l17,4l2,-18l-108,-28C25,-2 24,-4 21,-1l-7,25l18,3l0,167l83,0M95,172l-43,0l0,-34l43,0M95,119l-43,0l0,-31l43,0M95,69l-43,0l0,-38l43,9z" horiz-adv-x="256" unicode="助" />
<glyph d="M139,10l-112,-21C26,-16 25,-17 22,-14l-6,22l58,7l0,18l-47,0l0,16l47,0l0,15l-23,0l-22,0l0,71l45,0l0,14l-58,0l0,16l58,0l0,12C57,176 41,176 24,175l-3,17C54,192 89,196 126,203l9,-17C137,182 135,181 129,184C115,182 102,180 91,179l0,-14l55,0l0,-16l-55,0l0,-14l46,0l0,-71l-46,0l0,-15l50,0l0,-16l-50,0l0,-15l50,8l0,-14C160,29 170,56 171,91l1,39l-24,0l0,19l24,0l0,51l19,0C196,199 197,197 192,194l0,-45l44,0l-2,-132C233,-7 225,-19 208,-19l-27,0l-3,19l23,0C209,0 213,7 214,21l3,109l-25,0l-1,-47C190,37 170,1 130,-24l-12,19C125,-2 132,3 139,10M91,94l0,-18l29,0l0,18M91,123l0,-17l29,0l0,17M46,94l0,-18l28,0l0,18M46,123l0,-17l28,0l0,17z" horiz-adv-x="256" unicode="動" />
<glyph d="M120,179C122,174 120,173 115,176C93,172 71,169 49,166l0,-48l67,0l0,-19l-67,0l0,-53l66,0l0,-19l-66,0l0,-26l-20,0l0,185l16,-4C62,184 84,190 110,199M151,164l0,-186l-20,0l0,205l98,0l0,-150C229,22 224,16 215,16l-30,0l-7,22l27,0C208,38 209,39 209,42l0,122z" horiz-adv-x="256" unicode="印" />
<glyph d="M153,-21l0,208l81,0l0,-157C234,19 229,14 218,14l-27,0l-4,22l23,0C213,36 214,37 214,40l0,128l-41,0l0,-189M68,204l19,0C92,203 93,201 88,198l0,-31l46,0l0,-19l-46,0l0,-43l57,0l0,-19l-60,0l-25,-60l50,4C107,38 100,48 91,61l18,11C126,51 138,30 146,9l-20,-14l-8,19l-92,-15C25,-6 24,-7 21,-4l-7,26l24,1l23,63l-46,0l0,19l53,0l0,43l-46,0l0,19l46,0z" horiz-adv-x="256" unicode="却" />
<glyph d="M79,170l-42,0l0,19l118,0l3,6l21,-11l-4,-6l-14,-44l34,0l3,5l18,-14C217,124 216,122 212,121C201,84 186,55 169,36C184,25 207,16 238,9l-9,-25C197,-6 172,6 154,21C138,6 111,-8 72,-20l-10,23C100,13 125,24 138,36C119,59 105,83 96,107C90,54 68,14 29,-13l-14,20C58,38 79,82 79,141M102,170l0,-27C107,116 124,85 153,49C166,64 178,86 187,115l-32,0l-5,-14l-20,6l21,63z" horiz-adv-x="256" unicode="及" />
<glyph d="M71,109l0,-14C71,46 58,9 33,-14l-16,16C40,27 51,58 51,94l0,95l173,0l0,-19l-153,0l0,-42l114,0l6,5l17,-13C213,118 212,116 206,113C195,78 182,52 166,36C180,25 205,14 240,5l-11,-24C196,-9 170,4 150,20C127,1 100,-13 71,-21l-9,23C92,9 116,20 133,35C113,56 99,81 91,109M182,109l-70,0C119,87 132,67 149,49C163,64 174,84 182,109z" horiz-adv-x="256" unicode="反" />
<glyph d="M113,165l123,0l0,-19l-128,0C102,128 96,113 89,102l123,0l0,-111l-20,0l0,11l-99,0l0,-15l-20,0l0,92C60,60 43,45 24,33l-14,20C46,72 71,103 86,146l-69,0l0,19l74,0C96,180 99,194 100,205l21,-4C128,200 128,197 121,193C118,182 116,172 113,165M192,83l-99,0l0,-62l99,0z" horiz-adv-x="256" unicode="右" />
<glyph d="M50,33C61,53 70,71 75,88l-64,0l0,19l231,0l0,-19l-144,0C95,80 93,73 90,67l119,0C204,27 196,1 187,-12C182,-19 172,-21 157,-20l-27,3l-1,22l31,-3C167,1 172,5 175,12C176,15 179,27 184,48l-100,0C81,41 78,34 73,26M73,181l0,-33l107,0l0,33M180,122l0,7l-107,0l0,-9l-20,0l0,80l147,0l0,-78z" horiz-adv-x="256" unicode="号" />
<glyph d="M239,125l-10,-23C184,119 148,145 122,181C110,156 93,137 72,122l111,0l0,-19l-112,0l0,18C59,111 45,102 29,95l-14,19C64,137 96,167 111,205l26,-5C142,199 141,197 136,194C162,161 196,138 239,125M73,-20l-20,0l0,99l149,0l0,-96l-20,0l0,11l-109,0M73,13l109,0l0,47l-109,0z" horiz-adv-x="256" unicode="合" />
<glyph d="M99,85l0,-41l56,0l0,41M155,28l-56,0l0,-15l-20,0l0,88l96,0l0,-80l-20,0M62,146l129,0l0,-19l-129,0M207,172l-157,0l0,-191l-20,0l0,210l197,0l0,-193C227,-11 222,-16 213,-16l-28,0l-4,19l22,0C206,3 207,4 207,7z" horiz-adv-x="256" unicode="同" />
<glyph d="M169,167l-66,0l-15,-21C103,138 116,129 127,120C142,134 156,150 169,167M120,87l93,0l0,-104l-20,0l0,9l-91,0l0,-12l-20,0l0,81C62,50 44,41 27,35l-8,23C50,67 81,83 110,106C104,113 93,121 77,132C64,119 49,109 33,100l-13,16C57,135 82,164 97,205l22,-5C122,197 121,196 116,195l-4,-9l67,0l2,4l21,-15C205,172 204,171 199,170C176,137 150,110 120,87M193,68l-91,0l0,-57l91,0z" horiz-adv-x="256" unicode="名" />
<glyph d="M50,152l0,-168l-20,0l0,187l71,0l15,37l24,-9C143,196 142,195 137,194l-15,-23l103,0l0,-172C225,-12 220,-17 209,-17l-29,0l-2,22l23,0C204,5 205,6 205,9l0,143M101,101l0,-42l53,0l0,42M154,28l0,12l-53,0l0,-18l-20,0l0,98l93,0l0,-92z" horiz-adv-x="256" unicode="向" />
<glyph d="M63,-21l-13,20C93,22 114,64 114,126l0,50l-19,0l0,19l90,0l2,4l17,-10l-4,-6C197,167 193,151 190,135l22,0l4,4l19,-12l-4,-6C222,86 208,57 190,35C201,23 219,13 244,6l-8,-25C209,-8 189,5 176,18C160,1 138,-13 111,-24l-7,22C128,7 147,19 162,34C147,54 136,74 131,95C129,44 106,5 63,-21M67,65l0,93l-26,0l0,-93M41,28l-20,0l0,149l66,0l0,-131l-46,0M134,176l0,-20C136,120 150,85 175,50C189,68 200,90 207,116l-21,0l-4,-13l-20,6C168,129 173,151 177,176z" horiz-adv-x="256" unicode="吸" />
<glyph d="M119,114l0,37l-48,0C62,137 53,126 43,118l-15,15C48,151 61,173 68,199l21,-7C94,190 93,188 86,186C84,181 82,175 79,170l40,0l0,37l19,0C143,206 144,204 139,201l0,-31l72,0l0,-19l-72,0l0,-37l104,0l0,-19l-229,0l0,19M184,12l0,43l-113,0l0,-43M204,-19l-20,0l0,12l-113,0l0,-14l-20,0l0,95l153,0z" horiz-adv-x="256" unicode="告" />
<glyph d="M170,110l-88,0l0,-7l-20,0l0,93l128,0l0,-91l-20,0M82,129l88,0l0,48l-88,0M209,-3l-48,0l0,-18l-20,0l0,106l88,0l0,-103l-20,0M161,66l0,-50l48,0l0,50M47,66l0,-50l48,0l0,50M95,-3l-48,0l0,-18l-20,0l0,106l88,0l0,-103l-20,0z" horiz-adv-x="256" unicode="品" />
<glyph d="M135,139C140,138 140,136 135,133C134,127 132,121 130,116l106,0l0,-19l-76,0C183,81 212,70 246,64l-5,-21C228,46 218,48 213,51l0,-68l-20,0l0,11l-35,0l0,-14l-20,0l0,80l52,0C171,68 153,80 137,97l-16,0C110,82 96,69 78,60l40,0l0,-78l-20,0l0,12l-34,0l0,-15l-20,0l0,66C38,42 29,39 17,36l-7,21C46,62 75,76 98,97l-78,0l0,19l90,0C114,123 117,131 118,140M115,134l-20,0l0,5l-39,0l0,-9l-20,0l0,70l79,0M140,200l80,0l0,-66l-20,0l0,5l-40,0l0,-9l-20,0M193,10l0,34l-35,0l0,-34M95,155l0,29l-39,0l0,-29M200,184l-40,0l0,-29l40,0M98,10l0,34l-34,0l0,-34z" horiz-adv-x="256" unicode="器" />
<glyph d="M100,69l56,0l0,53l-56,0M156,40l0,10l-56,0l0,-11l-20,0l0,102l96,0l0,-101M47,12l161,0l0,163l-161,0M208,-16l0,9l-161,0l0,-14l-20,0l0,215l201,0l0,-210z" horiz-adv-x="256" unicode="回" />
<glyph d="M129,122C124,135 117,147 108,158l17,10C136,156 143,144 147,133M210,177l-164,0l0,-165l164,0M210,-17l0,10l-164,0l0,-12l-20,0l0,215l204,0l0,-213M197,44l-16,-19C166,38 150,48 133,57C118,42 96,29 68,18l-13,18C82,47 101,57 114,68C99,76 81,84 62,92l13,16C91,102 109,94 129,85C144,103 158,129 170,164l22,-9C197,154 196,151 189,148C176,116 163,92 148,75C165,66 182,56 197,44M85,157C94,147 101,135 107,122l-18,-11C84,124 77,136 68,147z" horiz-adv-x="256" unicode="図" />
<glyph d="M34,192l195,0l0,-19l-175,0l0,-112C54,30 46,5 30,-13l-15,16C28,16 34,37 34,65M156,157C161,155 161,153 155,151l0,-46l67,0l0,-19l-67,0l0,-79l85,0l0,-19l-183,0l0,19l78,0l0,79l-60,0l0,19l60,0l0,52z" horiz-adv-x="256" unicode="圧" />
<glyph d="M56,126l13,-3C73,127 79,137 88,153l-65,0l0,19l73,0C101,185 105,197 108,208l22,-8C133,197 132,196 127,195C126,189 123,181 118,172l116,0l0,-19l-124,0C102,135 91,116 76,97l0,-118l-20,0l0,99C47,69 35,60 19,51l-10,23C28,83 43,94 56,108M170,133l0,-39l51,0l0,-19l-51,0l0,-66l66,0l0,-19l-151,0l0,19l65,0l0,66l-55,0l0,19l55,0l0,45l19,0C174,138 175,136 170,133z" horiz-adv-x="256" unicode="在" />
<glyph d="M94,33l-67,-24C26,4 25,3 22,6l-8,23l31,9l0,81l-29,0l0,19l29,0l0,56l19,0C69,193 70,191 65,188l0,-50l26,0l0,-19l-26,0l0,-76l29,10M217,14l6,21l22,-7l-5,-19C236,-7 226,-15 211,-15l-83,0C116,-15 110,-9 110,2l0,95l-26,-10l-6,20l32,11l0,57l19,0C134,174 135,172 130,169l0,-44l24,9l0,68l19,0C178,201 179,199 174,196l0,-55l34,13l2,4l21,-14l-4,-3l0,-76C227,54 222,49 211,49l-20,0l-5,19l17,0C206,68 207,69 207,72l0,60l-33,-12l0,-86l-20,0l0,79l-24,-9l0,-92C130,7 132,4 137,4l67,0C211,4 215,7 217,14z" horiz-adv-x="256" unicode="地" />
<glyph d="M138,69l0,-15l72,0l0,-19l-72,0l0,-31l99,0l0,-19l-215,0l0,19l96,0l0,31l-70,0l0,19l70,0l0,21l19,0C142,74 143,72 138,69M58,130l-38,0l0,16l38,0l0,36l-29,0l0,16l114,0l0,-16l-26,0l0,-36l33,0l0,-16l-33,0l0,-53l-17,0l0,53l-25,0l0,-8C75,94 58,74 25,62l-8,19C44,89 58,103 58,124M227,195l0,-104C227,80 222,75 211,75l-20,0l-3,19l15,0C206,94 207,95 207,98l0,103l19,0C231,200 232,198 227,195M100,146l0,36l-25,0l0,-36M181,178l0,-74l-20,0l0,80l19,0C185,183 186,181 181,178z" horiz-adv-x="256" unicode="型" />
<glyph d="M211,131l-23,0l-4,19l20,0C206,150 207,151 207,153l0,23l-52,0l0,-59l64,0l3,4l16,-10C241,108 240,107 235,106C231,79 223,53 211,30C219,19 231,8 246,-1l-12,-19C221,-11 210,-1 200,12C190,-2 179,-13 168,-22l-12,19C167,6 178,16 187,28C176,48 169,71 164,98l-9,0l0,-120l-20,0l0,217l92,0l0,-47C227,137 222,131 211,131M119,159l-36,0l0,-23l46,0l0,-19l-17,0l-14,-29l26,0l0,-19l-41,0l0,-23l41,0l0,-19l-41,0l0,-50l-20,0l0,50l-44,0l0,19l44,0l0,23l-44,0l0,19l28,0l-13,29l-22,0l0,19l51,0l0,23l-38,0l0,19l38,0l0,29l19,0C87,206 88,204 83,201l0,-23l36,0M67,88l13,0l11,29l-36,0M181,98C183,82 189,65 199,46C207,62 212,79 215,98z" horiz-adv-x="256" unicode="報" />
<glyph d="M66,58l25,9l5,-13C111,64 123,76 130,89l-40,0l0,19l151,0l0,-19l-91,0C147,84 145,79 142,76l93,0l-6,-73C228,-12 221,-20 209,-20l-24,0l-3,19l19,0C206,-1 208,1 209,6l5,51l-11,0C191,12 157,-16 102,-25l-6,19C143,3 172,24 183,57l-17,0C154,28 132,11 99,5l-6,16C120,28 137,40 146,57l-15,0C117,44 106,36 98,32l-8,15l-63,-25C26,17 25,16 22,19l-8,22l32,9l0,76l-31,0l0,19l31,0l0,57l19,0C70,201 71,199 66,196l0,-51l30,0l0,-19l-30,0M110,120l0,81l105,0l0,-81M130,167l65,0l0,18l-65,0M130,136l65,0l0,15l-65,0z" horiz-adv-x="256" unicode="場" />
<glyph d="M25,4C47,18 66,40 83,70C70,82 59,91 50,96C45,85 39,74 31,65l-18,13C35,105 49,142 56,188l21,-6C80,179 80,177 75,175l-4,-19l38,0l4,4l14,-12C129,146 128,144 125,142C115,71 86,19 38,-14M226,46C207,59 192,70 183,79l0,-97l-20,0l0,117C150,115 139,132 129,149l16,12C151,150 157,141 163,133l0,69l19,0C187,201 188,199 183,196l0,-86C188,101 207,86 241,66M104,137l-38,0l-8,-22C67,110 78,101 91,90C97,105 101,121 104,137z" horiz-adv-x="256" unicode="外" />
<glyph d="M16,5C77,26 110,67 113,128l-90,0l0,22l92,0l0,53l22,0C144,202 144,199 138,195l0,-45l96,0l0,-22l-94,0C154,73 188,33 242,10l-13,-24C182,7 149,43 130,94C119,39 84,2 25,-19z" horiz-adv-x="256" unicode="大" />
<glyph d="M232,-19C182,-6 149,19 132,56C123,17 88,-9 26,-22l-7,25C79,12 111,36 115,73l-94,0l0,19l32,0l0,71l64,0l0,43l19,0C143,206 144,204 137,200l0,-37l65,0l0,-71l34,0l0,-19l-93,0C159,38 192,15 241,4M137,92l45,0l0,52l-45,0M73,144l0,-52l44,0l0,52z" horiz-adv-x="256" unicode="央" />
<glyph d="M113,101l-5,21l18,0C133,143 141,171 149,206l24,-7C177,196 176,193 169,192C161,168 153,145 145,123l60,4C199,137 192,147 184,158l17,8C216,149 230,129 242,105l-20,-10l-8,16l-95,-10C116,97 114,97 113,101M60,137C57,116 52,95 47,75C55,70 63,64 71,59C76,76 79,102 82,137M107,32l-11,-21C91,16 85,22 78,28C67,11 52,-5 31,-18l-13,16C37,11 52,25 63,41C56,46 48,52 41,58l-5,-13l-18,8C28,78 36,106 41,137l-24,0l0,19l27,0C46,171 48,187 50,203l18,-4C75,197 75,195 68,192C67,180 65,168 63,156l23,0l4,4l15,-10l-3,-4C99,103 94,70 87,48C92,44 99,39 107,32M204,-8l-63,0l0,-13l-20,0l0,102l103,0l0,-98l-20,0M204,11l0,51l-63,0l0,-51z" horiz-adv-x="256" unicode="始" />
<glyph d="M42,171l0,19l146,0l4,3l19,-19l-6,-3C181,150 160,134 141,123l0,-23l100,0l0,-22l-100,0l0,-78C141,-11 136,-16 125,-16l-29,0l-5,22l23,0C117,6 118,7 118,10l0,68l-103,0l0,22l103,0l0,45l19,-3C151,151 163,160 174,171z" horiz-adv-x="256" unicode="子" />
<glyph d="M54,71C39,56 29,47 23,44l-11,21C28,75 42,88 54,104l0,18l12,-3C75,132 81,146 86,160l-68,0l0,19l73,0C93,185 95,194 98,207l22,-6C123,198 122,197 117,196l-4,-17l121,0l0,-19l-127,0C100,137 89,116 74,95l0,-116l-20,0M109,136l91,0l3,3l16,-13C223,122 222,119 215,118l-38,-30l0,-15l63,0l0,-19l-63,0l0,-57C177,-14 172,-19 161,-19l-20,0l-3,19l15,0C156,0 157,1 157,4l0,50l-69,0l0,19l69,0l0,29l10,-1l17,16l-75,0z" horiz-adv-x="256" unicode="存" />
<glyph d="M132,28l-16,-16C105,29 95,40 88,46C73,23 55,2 32,-17l-14,20C39,17 57,37 72,63C61,75 46,88 28,101l12,15C57,105 71,93 83,82C91,96 98,113 103,132l20,-10C128,119 127,117 121,116C114,99 107,82 99,67C108,59 119,46 132,28M157,43C152,58 143,73 130,90l16,11C161,84 171,68 176,53M192,201l19,0C216,200 217,198 212,195l0,-51l28,0l0,-19l-28,0l0,-128C212,-14 207,-19 196,-19l-30,0l-4,19l26,0C191,0 192,1 192,4l0,121l-60,0l0,15l-113,0l0,19l51,0l0,43l19,0C94,201 95,199 90,196l0,-37l46,0l0,-15l56,0z" horiz-adv-x="256" unicode="対" />
<glyph d="M137,201l0,-16l95,0l0,-19l-95,0l0,-15l74,0l0,-83l-20,0l0,4l-13,0l0,-20l64,0l0,-19l-64,0l0,-42C178,-18 173,-23 164,-23l-26,0l-3,19l19,0C157,-4 158,-3 158,0l0,33l-69,0C98,27 108,19 118,9l-15,-16C91,5 79,15 68,22l11,11l-65,0l0,19l144,0l0,20l-93,0l0,-6l-20,0l0,85l72,0l0,15l-94,0l0,19l94,0l0,22l19,0C141,206 142,204 137,201M65,135l0,-15l52,0l0,15M137,104l0,-16l54,0l0,16M137,120l54,0l0,15l-54,0M65,104l0,-16l52,0l0,16z" horiz-adv-x="256" unicode="専" />
<glyph d="M156,107C166,94 174,75 181,52l-19,-10C158,63 151,81 140,97M105,-19l-23,0l-4,16l20,0C100,-3 101,-2 101,1l0,46C81,25 54,6 20,-10l-7,18C48,23 75,43 94,66l-67,-12C24,49 22,48 20,53l-5,21l20,1l0,105l27,0l6,27l21,-2C94,204 93,202 88,199l-7,-19l37,0l0,-85l13,-10C128,80 123,73 118,66l0,-70C118,-14 114,-19 105,-19M212,-2C212,-13 207,-18 196,-18l-25,0l-4,19l21,0C191,1 192,2 192,5l0,125l-64,0l0,19l64,0l0,51l19,0C216,199 217,197 212,194l0,-45l32,0l0,-19l-32,0M101,82l0,18l-49,0l0,-23M52,132l0,-16l49,0l0,16M101,148l0,16l-49,0l0,-16z" horiz-adv-x="256" unicode="射" />
<glyph d="M16,41C39,76 54,113 60,154l24,-6C89,146 89,144 83,142C75,102 60,64 38,27M242,52l-25,-11C205,78 189,113 168,144l19,10C211,122 229,88 242,52M117,13l0,182l22,0C146,194 146,191 140,187l0,-187C140,-9 136,-13 127,-13l-28,0l-8,22l22,0C116,9 117,10 117,13z" horiz-adv-x="256" unicode="小" />
<glyph d="M233,166l0,-22l-118,0C114,137 110,122 103,101l112,0l0,-22l-58,0l0,-67l78,0l0,-22l-179,0l0,22l78,0l0,67l-39,0C81,52 61,28 34,6l-15,20C58,58 83,97 92,144l-68,0l0,22l72,0C97,177 99,190 101,205l26,-6C130,197 128,195 123,193C122,184 120,175 119,166z" horiz-adv-x="256" unicode="左" />
<glyph d="M12,0C28,19 36,43 36,72l0,109l88,0l0,26l19,0C148,206 149,204 144,201l0,-20l91,0l0,-19l-48,0l0,-22l48,0l0,-19l-48,0l0,-42l-20,0l0,5l-13,0l0,-20l65,0l0,-59C219,-4 214,-9 205,-9l-20,0l-5,19l15,0C198,10 199,11 199,14l0,31l-45,0l0,-66l-20,0l0,66l-39,0l0,-54l-20,0l0,73l59,0l0,20l-17,0l0,-5l-20,0l0,42l-41,0l0,-49C56,39 46,9 27,-16M56,140l41,0l0,22l-41,0M167,162l-50,0l0,-22l50,0M167,121l-50,0l0,-18l50,0z" horiz-adv-x="256" unicode="席" />
<glyph d="M33,101l-14,18C46,139 65,168 75,206l23,-6C101,197 100,196 95,195l-8,-20l141,0l0,-19l-73,0l0,-34l60,0l0,-19l-60,0l0,-45l84,0l0,-19l-84,0l0,-60l-20,0l0,60l-115,0l0,19l45,0l0,64l70,0l0,34l-55,0C67,134 52,116 33,101M85,58l50,0l0,45l-50,0z" horiz-adv-x="256" unicode="年" />
<glyph d="M234,-23C202,-19 174,-11 149,2C126,-12 98,-21 65,-24l-8,21C87,0 112,6 132,16C121,27 112,38 103,50l-28,0l0,16l117,0l3,3l15,-12C213,53 211,51 206,52C195,39 181,26 165,15C188,7 213,2 239,0M143,181l90,0l0,-19l-177,0l0,-88C56,37 48,5 31,-20l-18,15C28,16 36,43 36,78l0,103l84,0l0,26l22,0C147,206 148,204 143,201M177,50l-52,0C132,42 140,34 149,26C157,31 166,39 177,50M185,80l-20,0l0,6l-43,0l0,-7l-20,0l0,40l-40,0l0,16l40,0l0,19l19,0C126,153 127,151 122,148l0,-13l43,0l0,21l19,0C189,155 190,153 185,150l0,-15l48,0l0,-16l-48,0M165,119l-43,0l0,-17l43,0z" horiz-adv-x="256" unicode="度" />
<glyph d="M143,183l91,0l0,-19l-182,0l0,-106C52,32 44,6 29,-19l-20,15C24,19 32,45 32,73l0,110l88,0l0,25l22,0C149,207 149,204 143,200M152,80C170,102 180,127 183,154l20,-4C207,149 207,147 203,145C201,136 199,128 197,121C214,113 227,104 236,95l-13,-20C212,86 202,95 191,104C184,89 177,76 168,67l-16,12l0,-19l69,0l0,-19l-69,0l0,-35l88,0l0,-19l-188,0l0,19l80,0l0,35l-61,0l0,19l61,0l0,33l-13,-19C110,83 101,91 93,97C87,84 80,73 71,64l-16,15C74,98 84,122 86,151l20,-4C110,146 110,144 106,142C104,129 102,120 100,114C108,112 119,106 132,95l0,62l19,0C156,156 157,154 152,151z" horiz-adv-x="256" unicode="座" />
<glyph d="M209,13C212,13 213,15 214,19l2,17l22,-10l-4,-24C232,-9 226,-15 216,-15C196,-15 179,-1 165,26C152,52 145,89 144,136l-123,0l0,22l122,0l0,46l22,0C172,203 172,200 166,196l0,-38l70,0l0,-22l-70,0C169,89 175,56 186,37C195,21 202,13 209,13M147,19C110,11 72,4 34,-3C33,-9 30,-10 27,-5l-5,25C39,21 55,23 71,26l0,57l-40,0l0,19l99,0l0,-19l-39,0l0,-54C106,31 124,34 144,38M193,199C202,194 211,188 220,180l-18,-15C195,172 187,178 176,184z" horiz-adv-x="256" unicode="式" />
<glyph d="M202,-4l-168,0l0,19l168,0l0,34l-156,0l0,19l156,0l0,31l-168,0l0,19l82,0l0,81l22,0C145,198 145,195 139,191l0,-73l83,0l0,-134l-20,0M212,179C217,176 216,175 209,174C204,159 196,143 184,125l-20,11C174,152 182,170 189,190M63,185C73,174 83,160 92,142l-21,-13C62,147 53,161 44,171z" horiz-adv-x="256" unicode="当" />
<glyph d="M140,-2C181,17 211,40 230,66l17,-17C248,46 246,45 241,46C222,21 192,-2 153,-21M15,1C28,10 39,21 46,34l18,-12C66,20 64,18 58,16C52,6 42,-4 29,-14M30,39l0,48l107,0l0,-48l-42,0l0,-46C95,-18 90,-23 79,-23l-19,0l-3,19l14,0C74,-4 75,-3 75,0l0,39l-23,0M31,131l0,68l105,0l0,-68l-42,0l0,-16l59,0l0,-16l-139,0l0,16l60,0l0,16l-22,0M144,152C170,163 192,180 211,201l17,-17C229,181 227,180 221,181C204,163 183,147 157,134M116,33C126,27 134,21 140,14l-12,-17C123,5 115,12 105,19M50,55l67,0l0,16l-67,0M51,159l0,-16l65,0l0,16M238,119C239,116 237,115 232,116C217,98 194,81 161,64l-13,18C182,99 207,116 222,135M51,187l0,-16l65,0l0,16z" horiz-adv-x="256" unicode="影" />
<glyph d="M217,201l12,-18C230,180 228,179 222,181l-40,-4l0,-26l60,0l0,-16l-60,0l0,-23l38,0l0,-130l-17,0l0,7l-56,0l0,-12l-17,0l0,135l35,0l0,23l-53,0l0,-53C112,39 103,6 85,-18l-16,16C84,18 92,46 92,82l0,114l21,-7C151,191 186,195 217,201M24,67l-11,17C38,107 56,132 68,157l17,-13C88,140 87,138 82,139C77,129 70,119 62,108l0,-129l-20,0l0,106C37,79 31,73 24,67M165,151l0,24l-53,-2l0,-22M203,77l0,19l-56,0l0,-19M203,61l-56,0l0,-19l56,0M203,5l0,21l-56,0l0,-21M82,190C84,187 82,186 77,186C60,166 43,149 27,136l-12,15C34,166 50,184 64,205z" horiz-adv-x="256" unicode="循" />
<glyph d="M205,178C177,113 141,62 97,24l0,-10C97,9 99,6 104,6l60,0C170,6 174,9 175,16l7,29l23,-5l-8,-32C193,-8 185,-16 174,-16l-79,0C83,-16 77,-10 77,1l0,9C61,-1 44,-11 26,-19l-12,23C35,11 56,23 77,39l0,115l19,0C103,153 103,150 97,146l0,-91C135,93 164,137 183,188M207,115C225,90 238,66 246,42l-24,-11C213,58 201,82 187,103M60,124C65,122 65,120 59,117C55,82 48,53 39,31l-24,9C26,63 34,94 38,131M100,203C122,194 140,182 154,168l-14,-20C125,162 108,174 88,184z" horiz-adv-x="256" unicode="必" />
<glyph d="M84,166C89,159 92,150 95,137l-17,-8C75,141 72,150 69,157M30,81l-20,4C15,111 18,135 19,157l19,-3C44,153 44,151 39,148C38,125 35,102 30,81M66,-23l-20,0l0,231l19,0C72,207 72,204 66,200M236,185l0,-16l-61,0l0,-13l49,0l0,-16l-49,0l0,-14l68,0l0,-16l-153,0l0,16l65,0l0,14l-49,0l0,16l49,0l0,13l-60,0l0,16l60,0l0,24l19,0C179,208 180,206 175,203l0,-18M221,97l0,-105C221,-17 216,-21 207,-21l-17,0l-6,19l13,0C200,-2 201,-1 201,2l0,19l-69,0l0,-45l-20,0l0,121M201,81l-69,0l0,-14l69,0M201,51l-69,0l0,-14l69,0z" horiz-adv-x="256" unicode="情" />
<glyph d="M234,-20C189,-9 159,12 144,45C136,11 109,-12 62,-23l-6,19C98,5 122,24 127,53l-66,0C59,24 49,1 31,-18l-14,16C33,13 41,34 41,61l0,98l177,0l0,-64l-20,0l0,6l-137,0l0,-29l68,0l0,23l19,0C153,94 154,92 149,89l0,-17l85,0l0,-19l-75,0C168,28 196,11 242,1M230,195l0,-19l-201,0l0,19M198,140l-137,0l0,-20l137,0z" horiz-adv-x="256" unicode="戻" />
<glyph d="M32,180C89,181 144,187 195,200l13,-16C213,178 211,176 203,178C182,173 160,170 139,168l0,-36l79,0l0,-19l-79,0l0,-34l100,0l0,-19l-100,0l0,-60C139,-12 133,-18 122,-18l-26,0l-5,22l25,0C118,4 119,5 119,7l0,53l-102,0l0,19l102,0l0,34l-81,0l0,19l81,0l0,33C91,162 64,161 37,161z" horiz-adv-x="256" unicode="手" />
<glyph d="M121,42l29,12l4,-17l-54,-23C99,9 98,8 95,11l-7,22l13,3l0,158l16,-4C128,193 138,196 149,201l9,-21C159,175 157,175 152,178C141,176 130,174 121,173M64,-6C64,-17 59,-22 48,-22l-18,0l-2,19l12,0C43,-3 44,-2 44,1l0,66l-19,-7C24,55 22,54 21,57l-4,23l27,7l0,49l-26,0l0,19l26,0l0,52l19,0C68,206 69,204 64,201l0,-46l23,0l0,-19l-23,0l0,-45l25,8l3,-17l-28,-10M237,190l0,-157C237,22 232,17 221,17l-18,0l-5,19l15,0C216,36 217,37 217,40l0,131l-34,0l0,-192l-20,0l0,211z" horiz-adv-x="256" unicode="抑" />
<glyph d="M110,195l117,0l0,-101l-20,0l0,7l-29,0C179,61 201,27 244,0l-10,-23C185,10 161,52 160,101l-30,0l0,-27C130,29 117,-4 90,-25l-13,17C99,11 110,38 110,72M130,176l0,-56l77,0l0,56M70,88l30,9l0,-19l-30,-10l0,-75C70,-18 65,-23 54,-23l-19,0l-3,19l14,0C49,-4 50,-3 50,0l0,63l-31,-9l-5,22l36,8l0,52l-31,0l0,19l31,0l0,52l19,0C74,206 75,204 70,201l0,-46l30,0l0,-19l-30,0z" horiz-adv-x="256" unicode="択" />
<glyph d="M52,65C45,63 37,60 28,57C25,51 22,50 21,54l-6,22C24,78 36,81 52,86l0,58l-35,0l0,19l35,0l0,45l19,0C76,208 76,206 72,202l0,-39l26,0l0,-19l-26,0l0,-52C81,95 89,97 96,100l4,-18C92,79 83,76 72,72l0,-77C72,-16 67,-21 56,-21l-19,0l-4,19l15,0C51,-2 52,-1 52,2M126,76l33,0l0,39l-33,0M233,44l-20,0l0,13l-34,0l0,-77l-20,0l0,77l-33,0l0,-19l-20,0l0,156l127,0M126,134l33,0l0,41l-33,0M213,134l0,41l-34,0l0,-41M213,76l0,39l-34,0l0,-39z" horiz-adv-x="256" unicode="押" />
<glyph d="M160,11C167,12 183,14 208,18C207,25 201,42 189,68l19,7C223,48 234,20 241,-8l-23,-8l-4,18C188,-3 162,-8 135,-13C133,-16 131,-17 129,-14l-5,23l15,1C150,50 158,91 162,132l22,-4C188,126 188,124 184,121C177,81 169,44 160,11M65,92l25,9l4,-18l-29,-11l0,-78C65,-17 59,-23 48,-23l-19,0l-2,22l14,0C44,-1 45,0 45,3l0,63l-21,-7C23,54 22,53 19,56l-7,23l33,8l0,51l-28,0l0,19l28,0l0,48l19,0C69,204 70,202 65,199l0,-42l30,0l0,-19l-30,0M124,147l0,-79C124,31 112,0 89,-23l-13,18C95,12 104,38 104,71l0,95l53,0l0,40l19,0C181,205 182,203 177,200l0,-34l60,0l0,-19z" horiz-adv-x="256" unicode="拡" />
<glyph d="M85,-6C118,7 135,26 135,51l-40,-14C94,32 93,31 90,34l-5,21l51,13l0,25l-35,0l0,19l35,0l0,32l-39,0l0,19l39,0l0,40l19,0C160,202 161,200 156,197l0,-143C156,19 136,-8 95,-26M191,203C196,202 197,200 192,197l0,-34l43,0l0,-19l-43,0l0,-32l37,0l0,-19l-37,0l0,-32l49,0l0,-19l-49,0l0,-59l-20,0l0,220M91,95l4,-16l-28,-8l0,-74C67,-14 62,-20 51,-20l-18,0l-3,19l14,0C46,-1 47,0 47,2l0,64l-23,-5C23,56 22,54 19,57l-5,24l33,6l0,49l-27,0l0,19l27,0l0,51l19,0C71,205 72,203 67,200l0,-45l20,0l0,-19l-20,0l0,-46z" horiz-adv-x="256" unicode="排" />
<glyph d="M231,-7C210,2 190,18 172,42l0,-64l-20,0l0,62C143,22 122,5 90,-11l-8,19C115,23 138,43 151,68l-53,0l0,16l54,0l0,23l19,0C176,106 177,104 172,101l0,-17l66,0l0,-16l-65,0C188,45 210,27 241,13M241,137C239,117 232,107 220,107l-26,0C182,107 176,113 176,124l0,47l19,0C200,170 201,168 196,165l0,-31C196,129 198,126 203,126l9,0C217,126 220,128 221,132l2,10M154,156C154,125 136,105 101,98l-6,20C120,121 133,133 133,156l0,15l19,0C159,170 159,168 154,165M63,91l24,9l4,-18l-28,-11l0,-76C63,-16 58,-21 47,-21l-20,0l-5,22l17,0C42,1 43,2 43,5l0,59l-20,-7C22,52 21,51 18,54l-6,22l31,9l0,51l-29,0l0,19l29,0l0,51l19,0C67,205 68,203 63,200l0,-45l24,0l0,-19l-24,0M217,179l-101,0l0,-31l-20,0l0,50l141,0l0,-47l-20,0z" horiz-adv-x="256" unicode="探" />
<glyph d="M89,157l0,-17C104,153 116,176 127,209l19,-5C147,203 146,201 143,199l-4,-9l48,0l3,3l13,-11C205,179 204,178 201,177l-19,-28l41,0l0,-90l20,0l0,-16l-69,0C186,20 210,6 247,1l-9,-23C207,-15 182,0 164,25C155,-1 129,-17 84,-24l-5,20C123,1 147,17 150,43l-66,0l0,16l20,0l0,69C103,125 98,119 89,111l-13,17l12,10l-24,0l0,-49l22,7l3,-18l-25,-9l0,-76C64,-18 59,-23 48,-23l-19,0l-3,22l14,0C43,-1 44,0 44,3l0,61l-20,-6C22,55 20,54 18,56l-5,21l31,8l0,53l-27,0l0,19l27,0l0,49l19,0C68,205 69,203 64,199l0,-42M171,133l-17,0l0,-16C154,98 147,84 132,76l-10,15C132,96 137,106 137,119l0,14l-16,0l0,-74l30,0l0,21l19,0C175,79 176,77 171,74l0,-15l35,0l0,24l-23,0C175,83 171,88 171,98M188,103C188,100 189,99 192,99l14,0l0,34l-18,0M133,174C128,164 124,156 119,149l43,0l16,25z" horiz-adv-x="256" unicode="換" />
<glyph d="M125,172C131,163 136,153 139,144l-19,-9C116,147 112,156 107,163M77,-5C110,12 128,39 131,77l-39,0l0,19l42,0l1,19l-36,0l0,16l130,0l0,-16l-74,0l-1,-19l88,0l0,-19l-90,0l-3,-15l56,0l4,5l16,-14l-4,-3C214,37 205,26 193,15C208,8 225,4 244,1l-7,-21C212,-15 192,-7 179,3C166,-8 149,-16 129,-23l-8,18C138,0 152,6 165,15C156,24 149,34 144,45C139,20 120,-4 89,-25M231,192C234,189 231,188 223,190C176,182 136,179 101,181l-4,16C142,196 184,200 221,209M188,144C193,151 198,163 205,182l23,-10C231,170 229,168 224,166C219,156 213,146 206,136M178,24C185,30 191,37 196,46l-35,0C162,41 168,33 178,24M44,156l0,52l19,0C68,207 69,205 64,202l0,-46l26,0l0,-19l-26,0l0,-46C71,94 77,96 82,99l4,-17C77,77 70,74 64,72l0,-78C64,-17 59,-22 48,-22l-19,0l-2,22l13,0C43,0 44,1 44,4l0,61C37,63 31,61 26,60C25,57 23,56 21,57l-7,20C24,80 34,82 44,85l0,52l-24,0l0,19M161,139C156,152 152,161 147,168l17,8C169,167 174,158 179,148z" horiz-adv-x="256" unicode="援" />
<glyph d="M239,4l-8,-25C187,-11 154,3 131,21C102,2 66,-12 24,-22l-9,23C54,8 87,20 114,35C97,54 83,76 74,99l-31,0l0,19l73,0l0,36l-96,0l0,19l96,0l0,32l22,0C145,204 145,201 139,197l0,-24l97,0l0,-19l-97,0l0,-36l46,0l6,6l17,-15l-4,-2C187,76 169,52 149,35C171,21 201,11 239,4M98,99C107,79 118,62 132,49C148,62 161,79 172,99z" horiz-adv-x="256" unicode="支" />
<glyph d="M238,157l0,-19l-19,0C218,104 209,73 192,44C204,29 221,16 242,4l-14,-21C206,-2 190,12 179,26C163,9 139,-6 106,-18l-11,20C129,15 153,29 166,44C155,67 148,88 144,109C139,98 135,90 130,84l-14,19C132,124 145,157 154,201l22,-7C179,191 178,190 173,189C170,178 167,168 164,157M83,196l0,-36l45,0l0,-19l-45,0l0,-41l32,0l0,-84l-71,0l0,-17l-20,0l0,101l39,0l0,41l-48,0l0,19l48,0l0,42l19,0C87,201 88,199 83,196M44,35l51,0l0,46l-51,0M198,138l-41,0C163,107 170,82 179,63C188,80 195,105 198,138z" horiz-adv-x="256" unicode="故" />
<glyph d="M203,137l-34,0C171,100 177,73 186,55C195,73 201,100 203,137M199,37C210,24 225,12 244,2l-13,-22C210,-6 195,7 186,20C171,3 147,-12 115,-25l-10,20C140,9 163,23 174,38C163,60 156,82 155,104C151,94 147,86 143,81l-17,13C146,123 158,160 162,203l21,-5C187,195 186,193 180,192C178,180 175,168 172,156l68,0l0,-19l-17,0C222,96 214,62 199,37M116,160l-16,9C105,178 110,188 115,199l18,-9C136,187 135,186 130,185C126,175 121,167 116,160M91,35C96,41 101,50 104,62l-29,0C72,56 69,50 66,44C75,41 84,38 91,35M52,19l-16,9C43,38 49,49 56,62l-38,0l0,16l44,0C66,87 69,94 71,100l19,-5C93,92 92,91 87,90l-6,-12l57,0l0,-16l-15,0C120,49 115,37 108,28C114,25 120,22 127,18l-9,-16C111,7 104,10 98,13C81,-4 57,-15 28,-19l-7,18C47,2 67,9 81,21C74,24 66,27 59,30M72,207l16,0C93,206 94,204 89,201l0,-43l51,0l0,-16l-42,0C105,133 117,125 132,117l-11,-17C110,107 99,116 89,128l0,-24l-17,0l0,19C61,110 47,98 28,87l-13,16C36,114 53,127 66,142l-46,0l0,16l52,0M26,187l16,10C50,189 56,181 60,172l-16,-11C39,171 33,180 26,187z" horiz-adv-x="256" unicode="数" />
<glyph d="M12,29C40,51 58,74 65,98l-46,0l0,19l46,0l0,89l19,0C89,205 90,203 85,200l0,-83l41,0l0,-19l-41,0l0,-13C102,75 115,64 126,52l-12,-20C103,45 94,54 85,61l0,-83l-20,0l0,77C56,39 43,24 25,9M93,133C100,148 106,166 112,187l21,-7C136,177 136,176 131,176C124,156 118,139 112,125M38,181C47,165 54,150 57,135l-20,-8C34,140 28,156 19,173M211,203C216,202 217,200 212,197l0,-127l27,7l6,-21l-33,-7l0,-71l-20,0l0,66l-54,-12l-5,21l59,12l0,138M184,150l-14,-18C164,138 154,146 141,157l13,17C167,166 177,158 184,150M181,95l-14,-18C159,86 149,94 138,102l13,17C161,113 171,105 181,95z" horiz-adv-x="256" unicode="料" />
<glyph d="M104,136C111,152 116,167 119,182l18,-5C140,175 139,173 135,172C131,158 126,144 120,130M238,178C239,173 236,173 230,176C208,171 186,168 163,165l0,-43l80,0l0,-19l-27,0l0,-122l-20,0l0,122l-33,0l0,-43C163,26 151,-1 127,-21l-15,17l9,8l-78,0l0,-19l-20,0l0,208l19,0C47,192 48,190 43,187l0,-66l37,0l0,76l16,0C101,196 102,194 97,191l0,-70l38,0l0,-16l-38,0l0,-8C112,89 123,81 132,74l-12,-19C114,62 106,69 97,78l0,-46l-17,0l0,42C73,61 65,51 56,43l-11,16C59,72 70,87 79,105l-36,0l0,-82l85,0l0,-12C138,22 143,39 143,61l0,126l19,-5C185,185 204,191 220,200M57,129C54,149 50,164 46,173l17,6C68,166 72,151 74,135z" horiz-adv-x="256" unicode="断" />
<glyph d="M120,109l93,0l-10,-90C200,-5 191,-17 174,-17l-40,0l-5,22l43,0C177,5 180,10 181,20l8,70l-72,0C108,47 80,11 31,-20l-14,21C69,28 97,69 100,126l1,18l-84,0l0,22l98,0l0,40l22,0C144,205 144,202 138,198l0,-32l101,0l0,-22l-115,0z" horiz-adv-x="256" unicode="方" />
<glyph d="M73,-9l-23,0l0,193l157,0l0,-189l-23,0l0,14l-111,0M184,108l0,57l-111,0l0,-57M184,28l0,61l-111,0l0,-61z" horiz-adv-x="256" unicode="日" />
<glyph d="M115,39C90,14 60,-4 26,-15l-12,22C54,18 86,35 110,60l-81,0l0,19l86,0l0,26l19,0C139,104 140,102 135,99l0,-20l88,0l0,-19l-80,0C166,37 197,21 236,11l-8,-23C191,-1 160,18 135,45l0,-68l-20,0M173,191l5,5l14,-14C194,179 193,178 189,177C172,160 157,146 143,137C168,124 201,118 243,117l-7,-24C186,98 150,109 127,126C90,105 56,92 27,86l-10,20C50,113 81,124 110,139C101,148 93,157 86,168C73,151 57,137 38,126l-13,17C53,156 74,179 88,210l21,-6C112,201 111,200 106,199l-5,-8M100,175C107,166 116,157 127,148C139,157 150,166 160,175z" horiz-adv-x="256" unicode="条" />
<glyph d="M19,61l0,19l99,0l0,22l-51,0l0,-9l-20,0l0,107l161,0l0,-105l-20,0l0,7l-50,0l0,-22l97,0l0,-19l-92,0C168,36 200,19 239,8l-9,-23C188,1 157,20 138,42l0,-66l-20,0l0,65C99,16 69,-3 28,-16l-11,22C60,17 92,35 113,61M67,141l0,-20l51,0l0,20M67,181l0,-21l51,0l0,21M188,181l-50,0l0,-21l50,0M188,141l-50,0l0,-20l50,0z" horiz-adv-x="256" unicode="果" />
<glyph d="M155,62C155,22 135,-6 94,-22l-8,21C119,12 135,33 135,61l0,10C126,60 117,50 107,42C106,35 105,33 102,38l-9,21C109,70 123,82 135,95l0,106l19,0C159,200 160,198 155,195M132,109l-19,-7C110,124 105,142 98,157l18,7C123,150 129,132 132,109M73,155l20,0l0,-19l-20,0l0,-27C84,101 93,93 102,85l-10,-20C85,73 79,80 73,86l0,-108l-20,0l0,103C47,62 37,44 24,28l-12,21C34,76 47,105 51,136l-32,0l0,19l34,0l0,50l19,0C77,204 78,202 73,199M242,24l-5,-23C235,-9 230,-14 221,-14l-31,0C178,-14 172,-8 172,3l0,198l19,0C196,200 197,198 192,195l0,-58C202,148 211,159 220,172l17,-17C241,152 239,150 231,151C221,139 208,126 192,112l0,-4C206,99 221,85 238,68l-12,-21C213,64 201,77 192,86l0,-73C192,8 194,5 199,5l13,0C216,5 218,8 219,13l3,19z" horiz-adv-x="256" unicode="桃" />
<glyph d="M49,76C43,61 34,46 22,31l-11,21C33,82 45,110 48,137l-31,0l0,19l32,0l0,49l19,0C73,204 74,202 69,199l0,-43l24,0l0,-7C122,160 143,179 156,208l20,-6C179,199 177,197 172,196C189,176 212,159 243,146l-9,-20C225,129 217,134 208,139l0,-15l-33,0l0,-20l52,0l0,-64l-17,0l0,5l-32,0C191,26 213,12 245,5l-10,-22C204,-8 182,8 167,31C154,3 129,-14 92,-21l-8,20C120,6 143,21 152,45l-31,0l0,-6l-17,0l0,65l51,0l0,20l-35,0l0,14C113,133 103,128 92,124l-5,13l-18,0l0,-31C82,97 92,90 98,84l-11,-19C82,71 76,77 69,83l0,-106l-20,0M123,140l84,0C192,149 177,163 163,181C154,164 140,151 123,140M210,88l-35,0l0,-27l35,0M121,88l0,-27l34,0l0,27z" horiz-adv-x="256" unicode="検" />
<glyph d="M170,195l1,-4C174,183 177,176 182,171l23,23l12,-10C222,179 221,177 215,178l-23,-19l11,-11l23,24l12,-11C243,156 242,154 236,155l-20,-17C225,133 235,128 244,125l-8,-20C224,110 212,117 199,127l0,-17l-71,0l0,16C119,117 108,109 93,101l-10,19C97,125 109,132 119,141C113,147 106,153 98,158l12,14C120,165 127,159 132,154C139,162 145,170 150,179l-39,0l0,16M132,129l65,0C184,138 172,151 163,167C154,152 143,139 132,129M201,32C208,29 208,26 201,25l-12,-23l47,0l0,-19l-145,0l0,19l45,0C133,10 128,18 122,25l17,11C146,28 152,19 155,10l-13,-8l29,0l13,36M216,96l0,-55l-103,0l0,55M130,57l69,0l0,23l-69,0M68,206C73,205 74,203 69,200l0,-45l27,0l0,-19l-27,0l0,-28C82,98 93,88 100,78l-11,-21C82,68 76,76 69,83l0,-105l-20,0l0,102C42,59 32,41 21,26l-11,22C31,76 44,105 49,136l-32,0l0,19l32,0l0,51z" horiz-adv-x="256" unicode="橙" />
<glyph d="M78,73C71,81 66,86 63,89l0,-112l-17,0l0,109C40,67 32,52 21,39l-12,19C24,80 36,107 45,139l-28,0l0,19l29,0l0,48l16,0C67,205 68,203 63,200l0,-42l23,0l0,-19l-23,0l0,-28C75,104 84,98 89,91M170,126C170,110 171,95 172,81l27,0C198,86 195,91 192,96l19,5C216,94 219,88 221,81l21,0l0,-16l-69,0C175,52 178,40 183,30C192,38 200,48 207,61l17,-9C228,49 227,47 221,46C212,33 204,22 196,15C205,6 213,1 219,1C223,1 226,8 228,22l17,-10C243,-4 238,-14 231,-19C220,-26 203,-19 181,3C167,-8 150,-16 131,-22l-9,19C139,2 155,9 169,19C162,34 157,49 156,65l-37,0l0,-15C131,46 142,40 153,32l-12,-18C136,19 128,24 119,31C116,8 105,-10 87,-23l-16,16C90,4 100,23 99,48l0,17l-11,0l0,16l67,0C154,88 154,93 154,98l-14,-5l-2,10l-41,-6C96,92 94,91 93,94l-6,19l10,0l12,21l-21,15l8,13l3,-2l19,41l15,-10C136,188 135,187 131,187l-21,-34l7,-5l16,27l13,-9C149,163 148,162 144,162l-31,-48l21,2l-6,16l12,5C145,129 150,118 153,105l0,99l16,0C174,203 175,201 170,198M225,110l-41,-8C183,97 181,96 180,99l-6,18l9,1l12,18l-24,18l8,12l4,-3l20,38l14,-9C220,189 219,188 215,188l-20,-31l9,-6l16,25l13,-7C236,166 235,165 231,165l-32,-46l22,3l-6,14l13,3C235,129 240,117 243,104l-15,-5z" horiz-adv-x="256" unicode="機" />
<glyph d="M159,98C173,112 185,127 194,144l-58,0l0,-13C136,66 170,25 238,7l-10,-26C176,-5 143,27 128,76C118,30 84,-2 26,-21l-8,24C81,20 113,59 113,120l0,24l-22,0C79,123 60,103 34,82l-12,22C55,127 79,161 93,205l24,-4C120,198 119,197 114,196C111,185 106,174 100,163l103,0l6,7l20,-17C232,150 231,148 224,147C209,122 193,101 178,84z" horiz-adv-x="256" unicode="欠" />
<glyph d="M234,-18C193,-2 165,26 149,65C138,24 106,-4 53,-19l-11,21C104,18 135,53 135,107l0,39l-13,0C113,129 101,112 85,96l-17,17C94,139 111,170 119,206l23,-6C145,198 144,196 139,193C137,187 134,178 129,165l89,0l4,4l17,-14C242,152 240,150 235,149C226,128 213,104 194,78l-17,15C193,113 204,131 209,146l-51,0l0,-34C158,65 187,29 244,6M88,72C70,52 51,35 32,22C31,17 29,15 27,18l-14,21C36,54 56,70 74,88M59,133C49,144 37,154 23,161l15,20C53,174 65,166 76,155z" horiz-adv-x="256" unicode="次" />
<glyph d="M150,191l0,-61l66,0l0,-22l-66,0l0,-90l92,0l0,-22l-229,0l0,22l46,0l0,131l22,0C88,148 88,145 82,141l0,-123l45,0l0,181l22,0C156,198 156,195 150,191z" horiz-adv-x="256" unicode="止" />
<glyph d="M162,11l-15,-20C132,6 120,18 110,25C87,5 61,-10 34,-19l-11,22C51,13 74,25 91,39C80,48 65,56 48,64l14,17C81,72 96,64 108,55C118,65 127,77 136,91l19,-14C158,74 157,72 152,73C145,63 137,53 126,42C137,33 149,23 162,11M179,95l-153,0l0,19l173,0l0,-42C199,44 203,25 210,16C215,10 218,11 219,18C221,28 222,34 222,35l20,-12C237,4 235,-4 236,-3C229,-24 216,-24 198,-5C185,8 179,35 179,76M65,148l124,0l0,-19l-124,0M82,183l139,0l0,-19l-149,0C61,147 47,133 32,122l-15,17C42,157 60,180 71,207l20,-7C94,197 93,196 88,195z" horiz-adv-x="256" unicode="気" />
<glyph d="M140,112l0,-115C140,-14 135,-19 124,-19l-24,0l-4,19l20,0C119,0 120,1 120,4l0,201l19,0C144,204 145,202 140,199l0,-29C140,155 146,138 157,118C172,129 189,145 208,168l18,-18C229,145 227,143 220,144C204,129 186,115 166,101C185,67 211,40 243,19l-12,-23C192,23 161,61 140,112M23,-4l-11,21C49,38 73,75 84,128l-58,0l0,19l58,0l6,8l17,-12C112,140 111,137 106,134C95,71 68,25 23,-4z" horiz-adv-x="256" unicode="水" />
<glyph d="M71,61C63,39 52,15 38,-11C39,-16 37,-18 34,-17l-18,18C29,19 42,43 53,72M210,-14l0,13l-102,0l0,-16l-20,0l0,176l61,0l0,46l19,0C173,204 174,202 169,199l0,-40l61,0l0,-173M210,70l-41,0l0,-52l41,0M149,18l0,52l-41,0l0,-52M149,89l0,51l-41,0l0,-51M210,89l0,51l-41,0l0,-51M32,175l14,17C59,184 70,176 79,167l-14,-19C54,160 43,169 32,175M56,92C45,103 34,111 21,118l12,17C47,128 59,120 69,111z" horiz-adv-x="256" unicode="油" />
<glyph d="M30,-16l-19,17C28,22 41,45 51,70l17,-13C57,29 46,7 35,-10C35,-17 33,-19 30,-16M111,158l82,0l0,22l-82,0M111,118l82,0l0,24l-82,0M213,196l0,-94l-122,0l0,94M83,79l140,0l0,-77l20,0l0,-19l-180,0l0,19l20,0M103,63l0,-61l22,0l0,61M142,2l22,0l0,61l-22,0M203,2l0,61l-22,0l0,-61M42,195C55,189 67,181 76,171l-14,-18C53,163 42,172 29,179M51,95C42,106 31,114 19,121l13,16C43,134 54,126 66,113z" horiz-adv-x="256" unicode="温" />
<glyph d="M64,59C57,36 46,12 33,-12C34,-19 32,-21 29,-18l-19,18C24,21 36,46 47,73M117,-13l-17,14C111,15 120,31 126,48l20,-10C149,35 148,34 143,33C138,18 129,2 117,-13M228,-9C213,6 201,22 191,39l18,11C222,31 233,17 243,9M135,96l0,-21l70,0l0,21M135,132l0,-20l70,0l0,20M162,56l-22,0l-22,0l0,95l35,0l2,26l-56,0l0,-116C99,30 90,2 71,-22l-16,18C71,16 79,40 79,68l0,128l158,0l0,-19l-58,0l-7,-26l50,0l0,-95l-40,0l0,-61C182,-16 177,-21 166,-21l-18,0l-4,19l13,0C160,-2 162,0 162,4M30,142C44,135 56,127 66,116l-15,-21C41,106 30,115 17,122M58,153C48,164 37,172 26,179l12,20C51,193 62,185 71,174z" horiz-adv-x="256" unicode="源" />
<glyph d="M32,-21l-12,25C83,24 114,64 114,123l0,79l23,-2C141,199 141,196 137,192l0,-69C137,72 170,33 237,7l-10,-25C177,2 144,33 128,74C114,31 82,-1 32,-21M186,83l-20,13C178,112 189,133 199,158l22,-11C225,145 224,143 218,140C205,113 195,94 186,83M37,87C46,104 51,127 50,154l25,-6C80,146 80,144 75,141C75,122 71,101 62,79z" horiz-adv-x="256" unicode="火" />
<glyph d="M121,4C108,20 95,34 81,46C76,21 61,-2 35,-21l-14,19C50,17 64,43 64,76l0,126l19,0C90,201 91,199 84,196l0,-58l31,29l15,-18C131,146 129,145 125,146l-41,-29l0,-49C104,56 121,42 136,25M53,149C57,148 57,147 52,144C49,121 44,97 39,71l-22,10C24,106 28,130 30,153M240,186l0,-22l-45,0l0,-166C195,-13 190,-18 179,-18l-20,0l-4,22l16,0C174,4 175,5 175,8l0,156l-50,0l0,22z" horiz-adv-x="256" unicode="灯" />
<glyph d="M14,-1C30,16 38,39 38,69l0,123l197,0l0,-19l-177,0l0,-107C58,29 49,2 32,-17M228,127C232,125 231,123 226,122C221,109 211,92 196,69l-18,14C192,105 201,123 206,137M153,157l0,-41C153,65 184,28 247,5l-9,-24C189,2 159,28 149,61C142,20 114,-8 65,-23l-9,21C107,14 133,46 133,94l0,69l18,0C158,163 158,161 153,157M111,125C115,124 115,122 111,119C106,97 99,78 92,62l-21,9C79,90 85,110 89,131z" horiz-adv-x="256" unicode="灰" />
<glyph d="M199,42C212,29 224,14 235,-5l-24,-12C202,3 192,19 181,32M153,41C164,22 171,4 173,-13l-25,-6C145,-1 140,17 133,34M21,-8C33,4 43,20 50,40l21,-8C66,12 57,-6 43,-21M108,35C113,22 115,5 114,-18l-24,-1C91,4 90,21 87,34M186,73l0,39l-112,0l0,-39M134,199l0,-22l84,0l0,-19l-84,0l0,-27l75,0l0,-83l-23,0l0,6l-112,0l0,-8l-23,0l0,85l60,0l0,74l22,0C138,204 139,202 134,199z" horiz-adv-x="256" unicode="点" />
<glyph d="M232,46C211,63 196,81 187,102C179,75 164,54 142,40l-12,16C157,77 172,102 174,133l-25,0C143,96 124,66 92,43l-11,14C99,70 111,82 117,94l-19,17C96,106 92,100 86,93l-12,13C90,125 100,157 103,203l18,-2C126,200 125,198 119,196l-2,-16l38,0C155,169 154,158 152,149l22,0l0,54l19,0C198,202 199,200 194,197l0,-48l43,0l0,-16l-43,0C199,107 215,84 243,64M128,-17C129,-2 129,14 126,31l17,1C148,17 150,2 149,-15M111,28C108,9 101,-7 91,-22l-17,11C83,2 90,18 95,35M124,107C126,110 128,116 130,124l-22,14l-5,-15M37,142C38,117 36,96 31,78l-16,11C20,108 22,129 21,151l16,-3C42,147 42,145 37,142M82,164l8,-15C93,144 92,142 87,144l-23,-18l0,-73C73,47 80,39 86,28l-11,-18C69,20 64,27 59,32C55,9 45,-10 30,-25l-13,16C37,12 47,37 47,66l0,137l16,0C68,202 69,200 64,197l0,-51M232,170l-15,-10C215,166 209,173 200,182l13,9C219,187 225,180 232,170M115,164l-3,-14l22,-12C135,144 137,153 138,164M222,-15C215,2 207,18 196,31l16,7C224,26 234,11 242,-6M179,33C186,20 191,6 195,-10l-21,-4C171,3 167,17 162,30z" horiz-adv-x="256" unicode="燃" />
<glyph d="M171,-24l-20,0l0,51C135,9 115,-4 90,-11l-8,20C114,18 136,32 149,51l-38,0l0,52l108,0l0,-49l16,-14C236,37 234,36 230,37C219,30 208,25 199,22C211,14 226,8 243,4l-7,-21C208,-8 186,6 171,25M214,51l-45,0C174,44 180,37 187,32C192,35 201,41 214,51M89,131l151,0l0,-16l-151,0M87,93l-24,0l0,-56l28,10l4,-18l-70,-29C24,-3 23,-4 20,-2l-8,23l31,9l0,63l-24,0l0,19l24,0l0,56l-28,0l0,19l75,0l0,-19l-27,0l0,-56l24,0M202,87l-74,0l0,-20l74,0M229,143l-128,0l0,58l128,0M212,185l-20,0l0,-26l20,0M175,185l-20,0l0,-26l20,0M138,185l-20,0l0,-26l20,0z" horiz-adv-x="256" unicode="環" />
<glyph d="M77,155l46,0l0,50l19,0C147,204 148,202 143,199l0,-44l82,0l0,-19l-82,0l0,-46l70,0l0,-19l-70,0l0,-59l95,0l0,-19l-219,0l0,19l104,0l0,59l-67,0l0,19l67,0l0,46l-52,0C63,115 51,97 35,81l-15,16C44,120 58,151 63,189l21,-5C88,183 88,181 83,178C82,175 80,167 77,155z" horiz-adv-x="256" unicode="生" />
<glyph d="M207,62l-65,0l0,-76l-20,0l0,76l-60,0C61,27 50,0 31,-21l-16,16C33,15 42,38 42,65l0,128l185,0l0,-191C227,-9 222,-14 211,-14l-28,0l-5,22l25,0C206,8 207,9 207,12M62,118l0,-37l60,0l0,37M62,174l0,-37l60,0l0,37M142,118l0,-37l65,0l0,37M142,174l0,-37l65,0l0,37z" horiz-adv-x="256" unicode="用" />
<glyph d="M207,13l0,139l19,0C231,151 232,149 227,146l0,-164l-20,0l0,12l-161,0l0,-13l-20,0l0,172l19,0C50,152 51,150 46,147l0,-134M118,51l0,32l-31,0l0,-32M166,83l-31,0l0,-32l31,0M166,99l0,29l-31,0l0,-29M239,174l-104,0l0,-30l48,0l0,-109l-113,0l0,109l48,0l0,30l-102,0l0,19l223,0M118,99l0,29l-31,0l0,-29z" horiz-adv-x="256" unicode="画" />
<glyph d="M241,83l-7,-23C221,64 211,68 206,72l0,-93l-20,0l0,10l-114,0l0,-13l-20,0l0,93C45,65 35,61 22,57l-11,19C45,86 75,102 100,125l-82,0l0,19l54,0C66,153 61,159 57,164l17,7C80,166 86,159 91,150l-14,-6l40,0l0,33l-81,-2l-6,16C106,192 163,196 201,203l10,-17C212,183 210,182 204,184l-67,-5l0,-35l19,0l21,35l18,-10C198,166 197,164 192,165l-16,-21l60,0l0,-19l-79,0C177,108 205,94 241,83M186,41l0,20l-49,0l0,-20M186,5l0,20l-49,0l0,-20M117,25l-45,0l0,-20l45,0M117,41l0,20l-45,0l0,-20M194,77C176,84 157,97 137,116l0,-34l-20,0l0,34C101,99 84,86 65,77z" horiz-adv-x="256" unicode="番" />
<glyph d="M105,91l44,0l0,23l-44,0M169,52l75,0l0,-19l-233,0l0,19l74,0l0,20l-51,0l0,19l51,0l0,23l-27,0l0,-9l-20,0l0,95l177,0l0,-93l-20,0l0,7l-26,0l0,-23l52,0l0,-19l-52,0M31,-22l-12,19C52,3 78,14 98,30l13,-13C116,12 114,11 107,12C87,-3 62,-15 31,-22M232,-19C195,-10 168,1 149,16l18,13C186,16 210,6 241,1M105,72l0,-20l44,0l0,20M195,184l-59,0l0,-19l59,0M195,149l-59,0l0,-19l59,0M58,165l58,0l0,19l-58,0M116,130l0,19l-58,0l0,-19z" horiz-adv-x="256" unicode="異" />
<glyph d="M75,113C61,102 43,93 22,86l-10,20C33,113 52,122 68,134l-30,21l14,16l33,-23C92,153 100,163 111,178l-54,0l0,19l65,0l4,4l15,-11C144,187 143,186 138,185C146,176 153,168 158,163l30,30l17,-13C206,177 204,176 200,177l-30,-25C173,149 177,145 183,142l31,31l17,-14C232,156 230,155 226,156l-30,-24C207,125 222,119 243,112l-10,-21C214,97 197,106 182,117l0,-15l-19,0l0,-27l61,0l0,-19l-61,0l0,-44C163,7 165,4 170,4l29,0C206,4 211,7 212,13l5,19l21,-7C234,-2 225,-15 210,-15l-51,0C148,-15 143,-9 143,2l0,54l-32,0C111,12 82,-14 25,-22l-6,21C67,6 91,25 91,56l-57,0l0,19l58,0l0,27l-17,0M86,121l90,0C156,134 140,150 128,169C117,150 103,134 86,121M143,75l0,27l-31,0l0,-27z" horiz-adv-x="256" unicode="発" />
<glyph d="M197,72l-137,0l0,-54l137,0M197,143l-137,0l0,-52l137,0M217,-14l-20,0l0,13l-137,0l0,-13l-20,0l0,176l61,0l14,43l24,-6C142,196 141,195 136,194l-14,-32l95,0z" horiz-adv-x="256" unicode="白" />
<glyph d="M117,141l-39,0l0,-29C95,103 108,91 119,78l-11,-18C98,73 88,82 78,89l0,-110l-20,0l0,111C49,70 38,54 24,41l-13,17C36,84 51,112 58,141l-41,0l0,19l41,0l0,45l19,0C82,204 83,202 78,199l0,-39l39,0M126,187l104,0l0,-203l-20,0l0,9l-64,0l0,-15l-20,0M146,168l0,-38l64,0l0,38M146,111l0,-39l64,0l0,39M146,12l64,0l0,41l-64,0z" horiz-adv-x="256" unicode="相" />
<glyph d="M212,0l-112,-10C97,-17 94,-17 93,-12l-4,21l31,2l30,41C137,67 123,82 107,96l12,15l9,-7l24,43l-53,0l0,19l55,0l0,42l19,0C178,207 179,205 174,202l0,-36l60,0l0,-19l-59,0l-34,-54C149,86 157,78 164,70l34,51l17,-13C216,105 215,104 211,103l-68,-91l60,3C198,25 191,36 184,47l16,10C217,34 231,13 242,-8l-19,-13C218,-11 215,-4 212,0M90,17l-51,0l0,-19l-17,0l0,192l68,0M39,139l34,0l0,32l-34,0M39,88l34,0l0,32l-34,0M39,36l34,0l0,33l-34,0z" horiz-adv-x="256" unicode="眩" />
<glyph d="M15,9C46,31 62,62 62,101l-49,0l0,16l104,0l0,16l-72,0l0,16l72,0l0,14l-92,0l0,16l54,0C76,184 71,190 65,197l20,10C92,199 98,190 105,179l40,0l18,30l20,-7C188,199 188,198 181,197l-13,-18l60,0l0,-16l-91,0l0,-14l72,0l0,-16l-72,0l0,-16l104,0l0,-16l-159,0C82,54 65,18 30,-8M88,-24l0,112l119,0l0,-109l-20,0l0,9l-79,0l0,-12M108,59l79,0l0,17l-79,0M108,0l79,0l0,18l-79,0M108,30l79,0l0,17l-79,0z" horiz-adv-x="256" unicode="着" />
<glyph d="M184,87C197,65 216,46 239,29l-17,-19C200,28 181,50 166,75M124,-14l-28,0l-4,22l22,0C117,8 118,9 118,12l0,94l-98,0l0,22l215,0l0,-22l-94,0l0,-102C141,-8 135,-14 124,-14M53,165l0,22l152,0l0,-22M20,25C39,38 55,59 69,86l20,-11C94,72 93,69 86,68C75,44 58,23 36,6z" horiz-adv-x="256" unicode="示" />
<glyph d="M168,146l-24,0C139,136 130,125 118,112l-12,14l-27,0l0,-24C90,98 102,90 115,79l-12,-20C95,67 87,74 79,79l0,-102l-20,0l0,102C50,58 39,41 26,28l-11,21C36,72 50,97 57,126l-37,0l0,19l39,0l0,32C47,176 35,175 23,174l-6,19C57,196 85,201 102,206l10,-18C115,183 113,182 107,185C97,183 88,181 79,180l0,-35l29,0l0,-13C122,145 135,170 148,207l21,-6C172,198 171,197 166,196C162,185 158,175 153,165l82,0l0,-19l-47,0l0,-151C188,-14 183,-19 174,-19l-21,0l-3,19l14,0C167,0 168,1 168,4M222,25C214,58 205,84 196,102l19,8C226,91 235,65 244,32M121,18l-19,11C116,51 127,78 135,110l19,-7C159,100 158,98 153,97C146,68 135,42 121,18z" horiz-adv-x="256" unicode="称" />
<glyph d="M106,191C153,193 189,198 212,206l12,-15C226,187 224,186 219,187C207,184 194,182 180,180l0,-16l56,0l0,-16l-56,0l0,-15l46,0l0,-79l-46,0l0,-16l50,0l0,-16l-50,0l0,-22l63,0l0,-16l-150,0l0,16l67,0l0,22l-50,0l0,16l50,0l0,16l-23,0l-23,0l0,79l46,0l0,15l-58,0l0,16l58,0l0,14C145,177 130,176 113,175M68,-24l-17,0l0,101C44,60 34,43 23,28l-14,18C30,71 43,98 50,125l-33,0l0,16l34,0l0,34C41,173 32,172 23,171l-6,17C46,192 68,197 85,204l10,-15C98,185 96,184 91,185C83,182 75,180 68,179l0,-38l31,0l0,-16l-31,0l0,-25C81,93 93,86 102,77l-12,-24C83,63 76,72 68,79M160,117l-29,0l0,-18l29,0M160,87l-29,0l0,-17l29,0M209,87l-29,0l0,-17l29,0M180,117l0,-18l29,0l0,18z" horiz-adv-x="256" unicode="種" />
<glyph d="M224,118C219,101 211,92 198,92l-38,0C147,92 141,98 141,111l0,49l-32,0l0,-12C109,118 87,95 43,80l-10,19C70,110 89,127 89,148l0,12l-46,0l0,-34l-23,0l0,53l96,0l0,28l22,0C143,206 144,204 139,201l0,-22l96,0l0,-47l-23,0l0,28l-51,0l0,-42C161,113 164,111 170,111l22,0C199,111 203,116 205,126M239,6l0,-22l-222,0l0,22l100,0l0,43l-76,0l0,22l172,0l0,-22l-76,0l0,-43z" horiz-adv-x="256" unicode="空" />
<glyph d="M102,28C76,20 50,13 24,7C23,2 22,1 19,4l-4,24l44,8l13,98l21,-2C96,130 96,128 91,126l-13,-86l24,6M32,52C29,77 25,100 19,120l17,5C43,106 48,83 50,58M210,-22l-5,19l8,0C216,-3 217,-2 217,1l0,70l-19,0l0,-86l-17,0l0,86l-17,0l0,-86l-17,0l0,86l-17,0l0,-92l-17,0l0,108l41,0l8,22l-58,0l0,16l139,0l0,-16l-61,0l-8,-22l60,0l0,-95C234,-17 229,-22 220,-22M98,140l-81,0l0,19l32,0l0,42l19,0C73,200 74,198 69,195l0,-36l29,0M181,201l0,-42l31,0l0,37l16,0C233,195 234,193 229,190l0,-47l-112,0l0,53l16,0C138,195 139,193 134,190l0,-31l30,0l0,48l16,0C185,206 186,204 181,201z" horiz-adv-x="256" unicode="端" />
<glyph d="M32,174l-5,18C93,193 152,197 203,206l14,-19C218,184 216,183 210,185C183,182 155,179 126,177l12,-8C143,166 141,164 133,163C116,144 103,130 94,121l23,-14C138,126 155,143 169,159l19,-14C193,142 191,140 183,140C162,121 139,103 116,84l73,4C182,95 176,100 170,104l15,14C207,103 225,86 239,67l-19,-17C213,61 207,69 203,72l-65,-5l0,-89l-20,0l0,87l-84,-5C33,55 32,54 29,57l-7,25l64,1l13,9C82,104 65,115 47,124l13,16l18,-9C85,138 98,153 116,176C87,175 59,174 32,174M226,-13C200,-2 178,15 159,38l19,15C193,35 213,20 239,9M98,40C103,37 102,35 95,34C80,14 61,-3 38,-17l-15,21C46,18 64,34 78,52z" horiz-adv-x="256" unicode="系" />
<glyph d="M21,-1C45,9 63,22 76,39l18,-13C97,22 95,20 90,21C73,2 54,-12 33,-21M213,35C208,40 202,46 197,51l-61,-4l0,-67l-20,0l0,66l-72,-5C39,36 36,36 35,41l-3,20l72,1C90,72 75,82 59,91l12,15C76,103 81,100 86,97l30,30l-72,0l0,-25l-20,0l0,41l92,0l0,21l-85,0l0,19l85,0l0,25l19,0C140,207 141,205 136,202l0,-19l86,0l0,-19l-86,0l0,-21l92,0l0,-39l-20,0l0,23l-83,0l11,-9C138,115 137,113 133,114l-33,-25C106,85 112,81 118,77l43,38l16,-12C179,100 178,98 174,99l-47,-36l54,2C176,68 171,72 166,76l15,12C198,78 215,65 230,49M224,-17C199,-10 177,4 157,26l18,13C189,25 208,14 233,5z" horiz-adv-x="256" unicode="索" />
<glyph d="M25,-2C46,6 64,17 81,31l12,-11C97,15 96,13 90,14C74,-1 56,-12 36,-20M191,53C184,58 177,63 170,68l14,11C202,68 218,56 232,45l-15,-15l-12,10l-66,-3l0,-60l-23,0l0,59l-78,-3C34,27 32,27 31,33l-3,19l72,0l6,4l-46,25l12,12l13,-7l25,29l14,-8C129,104 128,103 123,102l-23,-23l20,-11l36,32l16,-8C177,89 176,88 171,87l-47,-37M97,197l0,-27l36,0l0,-16l-36,0l0,-24l38,8l2,-14C103,115 68,108 31,101C30,94 27,94 24,100l-6,20l19,2l0,62l16,0C58,183 59,181 54,178l0,-54l23,3l0,76l19,0C101,202 102,200 97,197M226,169C228,164 225,163 217,166C192,160 175,156 164,154l0,-16C164,133 166,130 171,130l37,0C213,130 215,132 216,137l2,13l20,-5C237,122 228,111 213,111l-52,0C150,111 144,117 144,129l0,74l19,0C168,202 169,200 164,197l0,-27C185,176 202,182 215,187M174,31C190,19 209,10 231,4l-7,-20C201,-9 180,2 162,16z" horiz-adv-x="256" unicode="紫" />
<glyph d="M49,149l15,-13C71,145 80,159 93,180l18,-11C114,166 113,165 108,164C92,143 76,123 61,104l37,2C96,110 93,115 88,122l16,8C114,117 122,103 127,88l0,99l110,0l0,-201l-20,0l0,10l-70,0l0,-12l-20,0l0,101l-17,-10C108,80 106,86 104,91l-24,-2l0,-111l-20,0l0,109l-39,-4C18,77 15,77 14,84l-3,19l28,1l13,16C39,133 26,142 15,148l11,17l10,-6C44,172 53,189 63,209l19,-11C85,195 84,194 79,193C69,178 59,164 49,149M100,12C97,33 92,50 86,63l19,6C112,55 118,38 121,19M16,6C22,29 26,50 27,69l23,-4C53,64 52,62 47,59C46,44 43,23 37,-2M147,168l0,-66l26,0l0,66M190,168l0,-66l27,0l0,66M190,83l0,-68l27,0l0,68M147,83l0,-68l26,0l0,68z" horiz-adv-x="256" unicode="細" />
<glyph d="M44,64C49,63 49,61 44,58C44,35 41,15 35,-2l-20,9C21,26 24,46 23,66M100,92l-24,-3l0,-111l-20,0l0,108l-37,-3C18,78 17,77 14,80l-4,23l23,0C38,108 43,114 48,120C37,129 25,138 13,145l10,16l8,-4C44,176 54,193 61,208l19,-11C83,194 81,193 76,192C69,179 59,164 46,147l14,-11C71,151 80,166 88,181l17,-10C109,168 108,167 103,166C94,149 78,129 56,104l38,2C91,113 87,119 82,125l17,7C109,123 118,108 126,87l-20,-9M97,13C94,34 90,51 85,65l18,6C110,58 115,41 118,19M212,12l0,47l-60,0l0,-47M152,-7l0,-14l-20,0l0,99l100,0l0,-96l-20,0l0,11M190,120l46,0l0,-19l-110,0l0,19l44,0l0,31l-52,0l0,19l52,0l0,36l19,0C194,205 195,203 190,200l0,-30l53,0l0,-19l-53,0z" horiz-adv-x="256" unicode="結" />
<glyph d="M96,129C105,117 113,103 118,86l-18,-7l-3,9l-22,-2l0,-109l-20,0l0,107l-35,-3C19,76 18,75 15,78l-4,23l26,1l15,19C43,128 30,136 14,146l10,16l10,-6C46,175 56,192 64,208l17,-9C86,196 85,194 79,193C70,178 59,163 48,148C52,145 57,142 63,138C72,150 81,163 89,178l18,-10C112,164 111,162 104,163C90,142 74,122 57,102C69,103 80,103 91,104C89,109 86,114 81,121M105,121C134,144 152,173 161,208l22,-6C186,199 185,198 180,197C195,170 217,147 246,130l-15,-19C205,129 185,152 172,179C163,152 146,127 121,105M95,14C92,31 88,48 82,65l18,4C107,54 112,36 115,17M146,62l0,-51l62,0l0,51M146,-20l-20,0l0,98l102,0l0,-95l-20,0l0,12l-62,0M208,103l-66,0l0,19l66,0M36,-2l-21,8C20,30 23,50 23,66l22,-3C47,61 46,59 43,57C44,43 41,23 36,-2z" horiz-adv-x="256" unicode="給" />
<glyph d="M203,55C215,40 230,26 247,13l-10,-20C217,8 200,28 185,54l0,-61C185,-17 181,-22 173,-22l-20,0l-3,16l14,0C167,-6 168,-5 168,-2l0,37C155,23 140,12 125,3C124,-2 123,-4 120,-1l-9,17l-15,-3C93,34 91,50 88,60l19,4C110,54 112,39 115,20C134,31 152,42 168,55l0,55l-57,0l0,16l84,0l0,19l-71,0l0,16l71,0l0,20l-74,0l0,16l91,0l0,-71l30,0l0,-16l-57,0l0,-24C190,75 193,70 194,69l26,31l14,-13C236,83 235,82 231,83M139,51C133,64 127,75 120,84l16,10C143,87 150,76 156,61M99,124C108,110 114,95 117,79l-17,-6l-3,11l-21,-2l0,-106l-17,0l0,105l-35,-3C21,73 19,72 18,77l-3,20l19,0l18,25C40,133 28,143 15,151l12,15l10,-6l29,46l17,-10C87,193 86,192 81,192l-30,-42l13,-12l25,36l17,-10C110,161 109,160 104,160l-48,-63l35,3C91,102 88,108 83,118M44,61C49,60 49,58 44,55C45,36 42,16 36,-3l-18,9C23,28 26,47 25,64z" horiz-adv-x="256" unicode="緑" />
<glyph d="M178,182l48,0l0,-88l-44,0l0,-12C182,77 186,69 193,57l31,31l14,-16C239,69 237,68 233,69l-31,-24C213,31 227,18 245,7l-11,-20C213,0 196,19 182,44l0,-50C182,-16 178,-21 170,-21l-19,0l-4,16l14,0C164,-5 165,-4 165,-1l0,95l-22,0l-21,0l0,88l38,0l6,27l21,-4C192,203 192,201 186,199M158,69l-2,-5C155,27 141,0 112,-16l-13,15C123,14 136,33 137,57l-26,0l0,16l29,0l3,3M46,147l13,-11l27,42l16,-11C105,164 104,163 99,162C81,135 66,115 55,102l33,3l-7,14l15,8C106,114 113,101 118,86l-18,-8l-5,11l-21,-3l0,-110l-20,0l0,108l-33,-2C18,78 16,79 15,86l-2,15l20,0l14,19l-31,25l10,15l5,-3C44,178 54,194 59,205l18,-9C80,193 79,192 74,191C60,168 51,154 46,147M18,5C23,30 26,50 26,65l18,-2C49,62 50,60 45,58C45,36 42,15 37,-5M139,146l70,0l0,20l-70,0M209,110l0,20l-70,0l0,-20M99,66C104,56 107,42 109,24l-19,-4C89,31 87,45 82,62z" horiz-adv-x="256" unicode="線" />
<glyph d="M48,101l33,3l-7,17l14,7C93,118 98,105 103,90l-15,-7l-2,8l-19,-3l0,-109l-17,0l0,107l-30,-4C19,77 18,76 15,79l-4,21l17,0l17,25l-30,30l11,14l4,-4l28,44l17,-10C78,196 77,194 72,195l-29,-41l13,-13l23,38l16,-11C98,165 97,163 92,164M133,103l0,-124l-17,0l0,95C113,69 109,64 104,58l-11,14C110,93 123,120 131,154l18,-6C152,145 151,144 146,143C143,132 139,119 133,103M167,49l48,0l0,30l-48,0M167,33l0,-30l48,0l0,30M198,95l34,0l0,-114l-17,0l0,6l-48,0l0,-8l-17,0l0,116l30,0l2,22l-34,0l0,16l94,0l0,-16l-40,0M221,145l0,19l-101,0l0,-24l-17,0l0,40l56,0l0,29l19,0C183,208 184,206 179,203l0,-23l59,0l0,-35M94,65C98,52 100,35 100,16l-18,-1C83,32 81,48 78,63M37,64C42,63 42,61 37,59C38,42 34,22 26,-1l-17,8C16,26 20,46 20,67z" horiz-adv-x="256" unicode="縮" />
<glyph d="M53,2l188,0l0,-16l-188,0l0,-8l-20,0l0,126l19,0C57,103 58,101 53,98M162,166l37,0l0,21l-37,0M145,166l0,21l-36,0l0,-21M92,166l0,21l-37,0l0,-21M35,154l0,45l184,0l0,-45l-79,0l0,-14l99,0l0,-16l-99,0l0,-14l62,0l0,-96l-125,0l0,96l43,0l0,14l-108,0l0,16l108,0l0,14l-42,0M185,83l0,15l-91,0l0,-15M185,55l0,16l-91,0l0,-16M185,26l0,17l-91,0l0,-17z" horiz-adv-x="256" unicode="置" />
<glyph d="M12,59C39,69 63,80 84,92l2,5l6,0C102,104 112,111 121,118l-107,0l0,19l91,0l0,24l-67,0l0,19l67,0l0,30l19,0C132,209 132,207 125,203l0,-23l50,0l0,-13C179,171 186,180 195,193l17,-14C215,175 214,173 207,174C195,161 183,148 170,137l73,0l0,-19l-95,0C137,109 126,101 115,94C158,99 187,103 200,107l11,-18C217,81 215,79 205,84C171,81 137,79 103,78l-4,-16l114,0l-8,-45C200,-11 190,-24 174,-22l-37,5l-1,22l31,-5C176,-1 182,5 184,18l4,25l-94,0C93,38 89,28 82,11l-20,7C69,34 76,52 81,72C68,63 48,52 21,41M170,161l-45,0l0,-24l20,0C158,150 167,158 170,161z" horiz-adv-x="256" unicode="考" />
<glyph d="M106,186C119,172 130,157 140,140l-19,-11l-8,12l-89,-9C23,127 22,126 19,129l-6,24l27,0l20,54l25,-6C88,198 87,197 82,196l-24,-42l47,3l-15,20M53,103l0,-17l47,0l0,17M53,67l0,-17l47,0l0,17M120,122l0,-126C120,-15 115,-20 104,-20l-17,0l-3,19l13,0C99,-1 100,0 100,2l0,29l-47,0l0,-52l-20,0l0,143M165,77l0,-26l57,21l10,-17C233,50 231,49 226,52l-61,-16l0,-28C165,3 167,1 171,1l40,0C216,1 218,3 219,8l3,17l21,-4l-4,-23C237,-13 231,-18 222,-18l-59,0C151,-18 145,-12 145,-1l0,84l19,0C169,82 170,80 165,77M222,159l-57,-16l0,-24C165,114 167,112 171,112l40,0C215,112 217,115 218,120l2,18l21,-4l-2,-22C238,99 231,93 220,93l-57,0C151,93 145,99 145,110l0,89l19,0C169,198 170,196 165,193l0,-35l51,22l12,-18C229,157 227,156 222,159z" horiz-adv-x="256" unicode="能" />
<glyph d="M193,121l0,33l-126,0l0,-33M193,102l-126,0l0,-34l126,0M193,12l0,37l-126,0l0,-37M109,173l9,35l24,-5C145,200 144,199 139,198l-11,-25l85,0l0,-189l-20,0l0,9l-126,0l0,-12l-20,0l0,192z" horiz-adv-x="256" unicode="自" />
<glyph d="M66,108C63,125 59,137 55,145l18,7C78,143 82,130 85,115M223,32l20,-5l-4,-17C235,-7 228,-15 218,-15l-51,0C155,-15 149,-9 149,2l0,135l19,0C173,136 174,134 169,131l0,-49C184,89 200,98 217,111l15,-19C235,89 233,88 227,89C210,79 190,70 169,63l0,-51C169,7 171,4 176,4l32,0C214,4 218,7 219,14M189,202l0,-30l50,0l0,-53l-20,0l0,34l-78,0l0,-34l-20,0l0,53l48,0l0,36l19,0C193,207 194,205 189,202M48,79l0,-35C48,17 44,-6 35,-25l-17,10C27,4 31,23 31,43l0,34l-12,-1C18,71 17,70 14,73l-5,24l22,0l0,82l28,0l6,31l20,-3C88,204 87,203 82,202l-7,-23l35,0l0,-78l18,1l2,-16l-20,-2l0,-91C110,-17 106,-22 99,-22l-24,0l-3,16l17,0C92,-6 93,-5 93,-2l0,84M93,100l0,63l-45,0l0,-65M61,72l17,0C83,71 83,70 78,67l0,-56l-17,0z" horiz-adv-x="256" unicode="舵" />
<glyph d="M12,114C46,138 67,169 75,206l24,-5C103,198 102,197 96,196l-3,-8l69,0l5,5l13,-13C187,174 186,172 177,173l-24,-32l56,0l0,-86l-20,0l0,6l-119,0l0,-51C70,5 73,3 79,3l120,0C204,3 207,5 209,10C212,16 214,24 217,35l22,-6C234,10 229,-3 226,-8C223,-13 217,-16 208,-16l-139,0C56,-16 50,-10 50,3l0,114C45,111 37,104 25,95M189,122l-50,0l0,-42l50,0M119,122l-49,0l0,-42l49,0M129,141l21,28l-64,0C82,160 77,150 70,141z" horiz-adv-x="256" unicode="色" />
<glyph d="M102,118l9,28l23,-4C137,139 135,137 130,136l-7,-18l114,0l0,-19l-121,0C110,88 104,79 99,72l107,0l0,-91l-20,0l0,10l-92,0l0,-13l-20,0l0,65C59,30 42,19 24,10l-8,21C52,47 78,70 93,99l-74,0l0,19M175,199l0,-20l59,0l0,-19l-59,0l0,-25l-20,0l0,25l-57,0l0,-25l-20,0l0,25l-60,0l0,19l60,0l0,26l19,0C102,204 103,202 98,199l0,-20l57,0l0,26l19,0C179,204 180,202 175,199M94,53l0,-43l92,0l0,43z" horiz-adv-x="256" unicode="若" />
<glyph d="M161,34l16,13C190,32 207,19 227,8l-13,-20C191,3 173,18 161,34M30,0C45,9 61,24 77,44l17,-10C98,31 97,29 91,28C76,9 60,-7 41,-19M121,151l21,-5C145,145 145,143 140,140C159,116 193,97 242,83l-6,-20C193,74 157,95 128,128C110,106 87,88 60,73l58,0l0,29l19,0C142,101 143,99 138,96l0,-23l59,0l0,-19l-59,0l0,-74l-20,0l0,74l-60,0l0,18C48,66 36,61 23,56l-8,21C68,94 103,119 121,151M96,178l62,0l0,24l19,0C182,201 183,199 178,196l0,-18l57,0l0,-19l-57,0l0,-23l-20,0l0,23l-62,0l0,-25l-20,0l0,25l-56,0l0,19l56,0l0,23l19,0C100,200 101,198 96,195z" horiz-adv-x="256" unicode="茶" />
<glyph d="M238,-17C194,-8 160,8 137,32l0,-55l-17,0l0,57C95,7 62,-11 21,-20l-6,20C49,6 78,20 103,41l-84,0l0,16l101,0l0,16l-43,0l0,-5l-17,0l0,58l-41,0l0,16l41,0l0,15l16,0C81,156 82,154 77,151l0,-9l38,0l0,18l16,0C136,159 137,157 132,154l0,-12l42,0l0,16l16,0C195,157 196,155 191,152l0,-10l44,0l0,-16l-44,0l0,-25l-76,0l0,12l0,13l-38,0l0,-37l145,0l0,-16l-85,0l0,-16l99,0l0,-16l-84,0C170,24 201,12 244,3M174,113l0,13l-42,0l0,-13M171,187l64,0l0,-16l-64,0l0,-13l-17,0l0,13l-53,0l0,-13l-17,0l0,13l-65,0l0,16l65,0l0,20l16,0C105,206 106,204 101,201l0,-14l53,0l0,21l16,0C175,207 176,205 171,202z" horiz-adv-x="256" unicode="葉" />
<glyph d="M149,-16C148,-8 144,3 138,18l21,3C166,10 171,-1 172,-12M65,17C58,4 48,-9 35,-22l-16,14C28,1 38,13 47,26M233,35C195,48 165,71 142,106l-4,-2l0,-40C138,55 133,50 124,50l-17,0l-2,19l9,0C117,69 118,70 118,73l0,48l20,-3l24,14l-105,0l0,16l124,0l5,3l14,-14C203,133 202,131 195,132l-38,-20C161,107 167,101 174,94l43,28l15,-15C233,104 231,103 227,104l-41,-21C199,73 218,64 241,56M78,97l-51,0l0,16l60,0l4,4l15,-12C108,103 107,101 103,100C82,66 54,42 21,27l-7,21C40,58 61,74 78,97M66,45l126,0l0,-16l-126,0M208,25C219,16 228,4 237,-9l-20,-12C210,-7 200,6 189,18M172,208C177,207 178,205 173,202l0,-17l63,0l0,-16l-63,0l0,-13l-20,0l0,13l-52,0l0,-13l-20,0l0,13l-59,0l0,16l59,0l0,23l19,0C105,207 106,205 101,202l0,-17l52,0l0,23M110,20C115,9 116,-3 115,-16l-22,-2C93,-6 92,6 89,19z" horiz-adv-x="256" unicode="蒸" />
<glyph d="M142,7l-14,-14C121,0 114,7 106,14l11,11l-38,0l0,16l103,0l0,14l-46,0l-46,0l0,64l58,0l0,11l-70,0l0,16l70,0l0,16l7,0l0,9l-57,0l0,-15l-17,0l0,15l-61,0l0,16l61,0l0,19l16,0C102,205 103,203 98,200l0,-13l57,0l0,19l16,0C176,205 177,203 172,200l0,-13l64,0l0,-16l-64,0l0,-9l-7,0l0,-16l33,0C192,149 185,153 177,156l11,11C199,164 207,159 214,154l-8,-8l30,0l0,-16l-71,0l0,-11l58,0l0,-64l-24,0l0,-14l45,0l0,-16l-45,0l0,-30C199,-15 195,-20 187,-20l-24,0l-4,16l20,0C181,-4 182,-3 182,-1l0,26l-59,0C130,21 136,15 142,7M75,50C65,27 53,5 40,-16C41,-21 39,-23 36,-22l-18,16C33,13 46,35 59,60M67,104C56,113 43,122 29,129l12,17C55,139 68,131 79,121M148,93l0,14l-41,0l0,-14M206,93l0,14l-41,0l0,-14M25,105C38,100 50,91 62,80l-13,-17C38,74 26,82 13,89M206,67l0,14l-41,0l0,-14M148,67l0,14l-41,0l0,-14z" horiz-adv-x="256" unicode="薄" />
<glyph d="M239,1l-10,-22C177,-4 144,33 130,89l-6,0C117,80 110,71 103,64l0,-56l57,11l3,-17C127,-7 92,-14 57,-21C55,-27 53,-28 51,-24l-7,24l39,5l0,43C66,36 46,26 25,19l-10,20C48,48 77,65 100,89l-80,0l0,19l97,0l0,18l-72,0l0,19l72,0l0,18l-85,0l0,19l85,0l0,24l19,0C141,205 142,203 137,200l0,-18l85,0l0,-19l-85,0l0,-18l72,0l0,-19l-72,0l0,-18l97,0l0,-19l-85,0C153,76 160,63 169,49C182,60 194,71 205,84l15,-15C221,66 219,65 215,66C204,55 192,46 179,37C190,24 210,12 239,1z" horiz-adv-x="256" unicode="表" />
<glyph d="M156,-6C120,-15 91,-22 68,-26C66,-32 64,-33 62,-29l-8,24l27,3l0,25C62,11 41,2 18,-3l-6,21C46,25 75,38 99,57l-79,0l0,19l98,0l0,17l19,0C142,92 143,90 138,87l0,-11l99,0l0,-19l-90,0C153,46 161,37 170,30l29,22l16,-13C216,36 214,35 210,36l-27,-16C194,10 213,2 240,-4l-8,-20C183,-13 148,14 126,57l-3,0C117,50 110,42 101,35l0,-35C118,3 136,7 155,12M26,100l-11,20C30,125 48,133 68,146l0,60l19,0C92,205 93,203 88,200l0,-109l-20,0l0,34C54,116 42,108 31,103C30,98 29,97 26,100M175,202l0,-29l64,0l0,-19l-64,0l0,-36l51,0l0,-19l-119,0l0,19l48,0l0,36l-57,0l0,19l57,0l0,35l19,0C179,207 180,205 175,202M40,190C49,180 54,168 57,154l-19,-8C33,159 28,171 21,182z" horiz-adv-x="256" unicode="装" />
<glyph d="M177,23C194,12 216,4 243,-1l-8,-20C182,-10 147,15 128,53l-3,0C120,47 111,40 98,31l0,-31l59,9l0,-15C134,-11 101,-17 58,-24C57,-29 56,-30 53,-27l-5,21l33,4l0,24C64,12 44,4 21,-1l-7,19C47,25 76,36 99,53l-86,0l0,16l105,0l0,13l-85,0l0,12l85,0l0,12l-34,0l-34,0l0,57l154,0l0,-57l-69,0l0,-12l86,0l0,-12l-86,0l0,-13l106,0l0,-16l-94,0C154,44 159,37 164,33l30,18l16,-10C213,38 212,37 207,37M19,190l98,0l0,18l19,0C141,207 142,205 137,202l0,-12l98,0l0,-16l-216,0M67,151l0,-13l51,0l0,13M135,151l0,-13l52,0l0,13M67,131l0,-13l51,0l0,13M135,131l0,-13l52,0l0,13z" horiz-adv-x="256" unicode="裏" />
<glyph d="M29,-23l-4,19C71,-1 104,5 125,16C110,20 95,23 80,26l-6,-7l-18,10l27,30l-69,0l0,16l82,0l16,22l-53,0l0,-7l-17,0l0,67l52,0l0,22l-74,0l0,16l215,0l0,-16l-74,0l0,-22l52,0l0,-66l-17,0l0,6l-75,0l10,-5C134,90 133,88 128,87l-10,-12l124,0l0,-16l-51,0C183,46 173,34 162,23C183,17 206,8 231,-3l-13,-18C198,-10 174,0 146,9C123,-8 84,-18 29,-23M108,59l-17,-19C106,38 123,35 142,30C153,38 161,48 167,59M111,179l0,-22l33,0l0,22M59,113l35,0l0,28l-35,0M111,141l0,-28l33,0l0,28M161,141l0,-28l35,0l0,28z" horiz-adv-x="256" unicode="要" />
<glyph d="M21,-23l-2,19l20,0C72,-4 89,5 90,23l-37,0l0,84l149,0l0,-84l-38,0l0,-21C164,-2 166,-4 170,-4l41,0C216,-4 219,-1 221,4l3,8l18,-7l-3,-9C236,-15 229,-20 218,-20l-53,0C153,-20 147,-14 147,-2l0,25l-37,0C106,-8 82,-23 39,-23M131,157C144,171 155,188 162,209l17,-5C182,201 181,200 176,199l-7,-15l72,0l0,-16l-79,0C156,159 149,150 140,141M70,84l115,0l0,11l-115,0M88,192l0,-14l38,0l0,-34l-38,0l0,-14l44,0l0,-12l-89,0l0,-6l-17,0l0,92l103,0l0,-12M228,127l-78,0l0,16l78,0M112,156l0,10l-69,0l0,-10M74,178l0,14l-31,0l0,-14M74,130l0,14l-31,0l0,-14M185,60l0,12l-115,0l0,-12M185,35l0,13l-115,0l0,-13z" horiz-adv-x="256" unicode="覧" />
<glyph d="M220,-3C220,-14 215,-20 204,-20l-25,0l-4,19l21,0C199,-1 200,0 200,3l0,34l-123,0C76,14 62,-7 36,-24l-13,19C46,8 58,28 58,57l0,72C49,120 38,112 27,106l-10,20C49,144 73,172 88,210l21,-5C112,202 111,201 106,200l-4,-9l65,0l5,7l19,-12C194,183 193,181 186,180l-30,-35l64,0M128,129l-50,0l0,-29l50,0M148,129l0,-29l52,0l0,29M128,84l-50,0l0,-31l50,0M148,84l0,-31l52,0l0,31M156,175l-62,0C90,167 83,157 73,145l60,0z" horiz-adv-x="256" unicode="角" />
<glyph d="M34,120C29,113 24,108 20,105l-10,17C30,143 46,171 57,207l18,-2C77,203 76,201 73,199l-3,-7l25,0l4,5l18,-12l-5,-6l-17,-32l27,0l0,-153C122,-17 117,-23 107,-23l-22,0l-4,19l20,0C104,-4 105,-3 105,0l0,45l-54,0C51,18 44,-4 30,-21l-15,12C28,5 34,27 34,57M182,139l20,0C207,139 209,141 210,145l3,34l-30,0C180,148 165,126 136,114l-8,17C151,140 164,156 165,179l-32,0l0,16l99,0l-5,-58C226,126 221,120 210,120l-26,0M197,25l0,-47l-17,0l0,47l-49,0l0,19l49,0l0,23l-22,0l-11,-18l-15,11C143,74 149,90 152,108l18,-3C172,103 171,101 168,99l-4,-13l16,0l0,25l16,0C201,110 202,108 197,105l0,-19l35,0l0,-19l-35,0l0,-23l44,0l0,-19M51,147l27,0l13,29l-26,0C62,169 58,159 51,147M85,61l20,0l0,28l-20,0M71,61l0,28l-20,0l0,-28M51,131l0,-26l20,0l0,26M85,131l0,-26l20,0l0,26z" horiz-adv-x="256" unicode="解" />
<glyph d="M58,182l0,19l138,0l0,-19M238,165l0,-19l-222,0l0,19M196,129l0,-19l-138,0l0,19M196,93l0,-19l-138,0l0,19M206,58l0,-78l-23,0l0,11l-113,0l0,-15l-23,0l0,82M183,39l-113,0l0,-29l113,0z" horiz-adv-x="256" unicode="言" />
<glyph d="M108,0C156,10 194,35 221,75l18,-15C240,57 238,56 234,57C203,14 163,-12 115,-21M112,49C147,60 176,80 199,110l18,-15C218,91 216,90 211,91C185,58 154,36 119,27M106,89C133,101 156,118 174,141l16,-16C191,121 189,120 184,121C165,98 142,81 114,70M94,137C125,150 146,173 159,207l17,-4C181,202 181,199 175,196C194,170 217,152 246,141l-9,-20C208,133 185,152 166,179C154,155 134,135 105,119M76,7l0,37l-33,0l0,-37M96,-20l-20,0l0,11l-33,0l0,-12l-20,0l0,81l73,0M91,76l-62,0l0,19l62,0M29,131l62,0l0,-19l-62,0M15,165l90,0l0,-19l-90,0M91,181l-62,0l0,19l62,0z" horiz-adv-x="256" unicode="診" />
<glyph d="M82,-16l0,6l-40,0l0,-11l-17,0l0,81l74,0l0,-76M113,-24l-8,21C156,18 195,53 222,104l15,-12C240,88 239,86 234,86C225,69 214,54 202,41C217,30 230,17 242,2l-17,-21C216,-2 203,13 188,26C171,9 146,-7 113,-24M166,88C175,95 186,109 200,132l15,-12C218,116 217,114 212,115C194,82 164,54 122,29l-12,18C123,52 137,61 151,73C139,85 126,96 113,106l14,14C130,118 132,116 135,114C144,126 151,137 157,148l-41,0l0,19l46,0l0,40l19,0C186,206 187,204 182,201l0,-34l56,0l0,-19l-58,0C171,133 161,118 149,104C155,99 161,93 166,88M96,182l-68,0l0,19l68,0M104,166l0,-19l-89,0l0,19M96,112l-68,0l0,19l68,0M96,77l-68,0l0,19l68,0M82,44l-40,0l0,-38l40,0z" horiz-adv-x="256" unicode="該" />
<glyph d="M147,204C156,192 161,181 164,172l-20,-9C141,172 135,183 128,194M216,201C219,198 218,197 213,196l-16,-35l39,0l0,-19l-53,0l0,-33l47,0l0,-19l-47,0l0,-35l59,0l0,-19l-59,0l0,-57l-20,0l0,57l-53,0l0,19l53,0l0,35l-44,0l0,19l44,0l0,33l-49,0l0,19l64,0l15,47M30,182l0,19l67,0l0,-19M15,148l0,19l90,0l0,-19M97,112l-67,0l0,19l67,0M97,76l-67,0l0,19l67,0M83,7l0,36l-38,0l0,-36M45,-22l-20,0l0,84l78,0l0,-81l-20,0l0,7l-38,0z" horiz-adv-x="256" unicode="詳" />
<glyph d="M14,164l87,0l0,-19l-87,0M110,181l0,16l125,0l0,-16l-62,0l-5,-28l46,0l-2,-51l30,0l0,-16l-139,0l0,16l35,0l8,35l-29,0l0,16l32,0l5,28M27,181l0,19l61,0l0,-19M27,109l0,19l61,0l0,-19M27,74l0,19l61,0l0,-19M23,-25l0,82l70,0l0,-77l-17,0l0,7l-36,0l0,-12M40,3l36,0l0,38l-36,0M121,-23l0,91l105,0l0,-90l-20,0l0,10l-65,0l0,-11M206,7l0,42l-65,0l0,-42M158,102l35,0l2,35l-30,0z" horiz-adv-x="256" unicode="語" />
<glyph d="M75,-18l0,7l-35,0l0,-11l-17,0l0,82l69,0l0,-78M118,199l115,0l0,-206C233,-16 229,-21 221,-21l-24,0l-4,19l19,0C215,-2 216,-1 216,2l0,178l-81,0l0,-114C135,31 126,2 109,-21l-15,16C110,17 118,44 118,75M185,113l21,0l0,-16l-60,0l0,16l22,0l0,24l-22,0l0,16l22,0l0,20l16,0C189,172 190,170 185,167l0,-14l22,0l0,-16l-22,0M40,5l35,0l0,39l-35,0M26,95l66,0l0,-19l-66,0M26,200l66,0l0,-19l-66,0M105,165l0,-19l-91,0l0,19M26,111l0,19l66,0l0,-19M165,3l-17,0l0,76l53,0l0,-62l-36,0M165,63l0,-30l19,0l0,30z" horiz-adv-x="256" unicode="調" />
<glyph d="M166,179C169,170 176,161 186,151C194,160 199,170 200,179M110,195l30,0l0,-12l-30,0l0,-6l-17,0l0,6l-26,0l0,-7C65,174 64,172 63,169l65,0l0,-25C128,123 121,111 106,109l31,0l-7,15C146,127 161,133 175,142C168,149 162,157 157,164C153,158 148,152 143,147l-10,15C147,174 157,190 163,211l16,-6C182,202 181,201 176,200l-4,-9l63,0l0,-12l-18,0C214,166 208,153 199,142C211,136 225,131 241,127l-8,-18C214,116 199,123 188,131C170,120 155,112 143,109l54,0l0,-12l-138,0l0,12l35,0l-5,13l-47,0l0,24C38,143 32,138 25,133l-9,14C28,153 39,163 50,176l0,7l-32,0l0,12l32,0l0,13l16,0C71,207 72,205 67,202l0,-7l26,0l0,13l16,0C114,207 115,205 110,202M65,-26l-17,0l0,51l159,0l0,-49l-17,0l0,8l-125,0M190,-4l0,17l-125,0l0,-17M59,37l0,7l138,0l0,-7M197,56l-138,0l0,7l138,0M236,74l-216,0l0,12l216,0M44,148l53,0l0,-24l8,2C111,130 114,137 114,147l0,10l-61,0M56,129l27,0l0,12l-27,0z" horiz-adv-x="256" unicode="警" />
<glyph d="M133,59l-5,9C100,45 69,31 35,25l-8,19C64,51 95,64 118,83l-7,7C87,76 59,66 28,59l-8,18C57,84 87,95 109,109l-57,0l0,32C45,135 36,129 25,123l-10,20C46,160 70,182 86,209l23,-4C112,202 111,201 106,200C104,197 102,195 100,193l56,0l4,5l18,-11C181,184 180,183 175,182l-19,-22l61,0l0,-51l-74,0l-17,-10C134,94 141,87 146,79C163,86 181,96 200,108l16,-17C216,88 214,87 210,88C195,80 180,72 165,65C186,47 213,30 245,15l-11,-22C203,8 177,27 158,48C161,39 162,31 162,24C162,-3 154,-19 139,-22C132,-23 122,-22 109,-19l0,21C116,-1 123,-2 129,-2C137,-2 141,7 141,24C141,31 140,36 139,39C110,13 75,-6 33,-18l-9,22C68,13 104,32 133,59M123,144l-54,0l0,-19l54,0M200,144l-60,0l0,-19l60,0M147,177l-59,0C83,171 77,165 72,160l60,0z" horiz-adv-x="256" unicode="象" />
<glyph d="M30,-25l-7,21C57,2 83,11 101,23l-25,0l0,-8l-20,0l0,114C50,122 42,116 31,109l-14,19C51,149 74,176 85,208l21,-5C109,200 108,199 103,198l-3,-7l66,0l5,7l19,-12C193,183 191,181 186,180l-24,-28l51,0l0,-134l-20,0l0,5l-28,0C186,12 212,4 242,-1l-7,-22C200,-17 172,-7 150,8l12,15l-58,0l13,-16C120,4 119,2 112,3C88,-11 61,-20 30,-25M93,175C88,166 82,159 77,152l62,0l18,23M76,61l0,-22l117,0l0,22M193,98l-117,0l0,-21l117,0M193,114l0,22l-117,0l0,-22z" horiz-adv-x="256" unicode="負" />
<glyph d="M38,17l-17,16C39,52 52,71 61,91l20,-12C84,76 83,75 78,74C68,53 55,34 38,17M131,-22l-5,19l14,0C143,-3 144,-2 144,1l0,103l-26,0l0,-30C118,27 93,-6 43,-24l-10,21C76,8 98,35 98,77l0,27l-79,0l0,19l98,0l0,35l-78,0l0,19l78,0l0,31l19,0C141,207 142,205 137,202l0,-25l78,0l0,-19l-78,0l0,-35l98,0l0,-19l-71,0l0,-112C164,-17 159,-22 150,-22M237,33l-20,-15C204,41 190,60 175,75l18,12C210,72 225,54 237,33z" horiz-adv-x="256" unicode="赤" />
<glyph d="M203,9l0,45l-50,0l0,-45M223,-18l-20,0l0,11l-50,0l0,-14l-20,0l0,91l90,0M152,168C155,159 164,147 177,132C189,148 197,160 200,168M112,61l-9,20C122,87 142,100 164,119C159,124 152,134 143,148C136,133 130,122 123,115l-15,15C124,151 136,178 145,210l21,-6C169,201 168,200 163,199l-5,-12l51,0l3,5l16,-13C231,177 229,175 224,173C215,152 204,134 191,119C214,102 233,90 249,85l-8,-22C225,68 204,82 177,104C154,83 132,68 112,61M104,194l0,-74l-25,0l0,-37l23,0l0,-19l-23,0l0,-46l35,11l4,-18l-92,-26C25,-20 24,-22 21,-19l-8,22l12,2l0,93l19,0C49,97 50,95 45,92l0,-82l14,3l0,107l-18,0l-17,0l0,74M84,136l0,42l-40,0l0,-42z" horiz-adv-x="256" unicode="路" />
<glyph d="M26,166l0,19l92,0l0,22l19,0C142,206 143,204 138,201l0,-16l90,0l0,-19l-90,0l0,-20l70,0l0,-91l-20,0l0,5l-50,0l0,-20l104,0l0,-19l-104,0l0,-42l-20,0l0,42l-104,0l0,19l104,0l0,20l-50,0l0,-6l-20,0l0,92l70,0l0,20M138,76l50,0l0,19l-50,0M68,111l50,0l0,19l-50,0M138,111l50,0l0,19l-50,0M68,76l50,0l0,19l-50,0z" horiz-adv-x="256" unicode="車" />
<glyph d="M210,66C225,44 237,19 248,-10l-21,-11C225,-15 223,-9 221,-3l-86,-12C134,-20 133,-21 130,-18l-9,26l17,0l24,88l-33,0l0,22l112,0l0,-22l-56,0l-28,-87l57,5C207,31 201,46 194,57M229,168l-91,0l0,22l91,0M98,95l-20,0l0,-22l20,0M61,95l-20,0l0,-22l20,0M61,111l0,20l-20,0l0,-20M98,111l0,20l-20,0l0,-20M126,20l-48,0l0,-43l-17,0l0,43l-48,0l0,19l48,0l0,18l-19,0l-18,0l0,90l37,0l0,18l-42,0l0,19l42,0l0,25l16,0C82,208 83,206 78,203l0,-19l41,0l0,-19l-41,0l0,-18l37,0l0,-90l-37,0l0,-18l48,0z" horiz-adv-x="256" unicode="転" />
<glyph d="M58,6C50,-3 38,-13 21,-22l-8,25C20,5 32,11 47,21l0,65l-31,0l0,19l51,0l0,-83C80,10 98,4 119,4l124,0l-4,-22l-124,0C94,-18 75,-10 58,6M129,176C146,172 156,169 161,167l19,14l-92,0l0,19l114,0l5,3l15,-11C226,189 224,187 217,186l-39,-26l13,-6l-12,-12l45,0l0,-114C224,19 219,14 210,14l-22,0l-1,19l13,0C203,33 204,34 204,37l0,19l-38,0l0,-39l-20,0l0,39l-36,0l0,-43l-20,0l0,129l74,0C136,153 119,160 114,161M166,126l0,-19l38,0l0,19M110,126l0,-19l36,0l0,19M146,91l-36,0l0,-19l36,0M204,91l-38,0l0,-19l38,0M41,202C59,191 71,180 78,169l-17,-18C50,164 39,176 27,185z" horiz-adv-x="256" unicode="通" />
<glyph d="M45,88l-31,0l0,19l51,0l0,-81C78,10 99,2 128,2l117,0l-4,-19l-112,0C94,-17 71,-8 58,10C46,-2 35,-11 25,-17l-13,22C28,11 39,17 45,24M46,146C39,159 31,171 20,182l17,13C50,183 60,172 65,161M94,138l55,0l0,15l-41,0l0,16l41,0l0,16l-54,0l0,-31l-20,0l0,47l162,0l0,-47l-20,0l0,31l-51,0l0,-16l38,0l0,-16l-38,0l0,-15l56,0l0,-78l-56,0l0,-14l72,0l0,-16l-72,0l0,-19l-17,0l0,19l-70,0l0,16l70,0l0,14l-28,0l-27,0M202,76l0,15l-36,0l0,-15M114,107l35,0l0,15l-35,0M149,76l0,15l-35,0l0,-15M166,107l36,0l0,15l-36,0z" horiz-adv-x="256" unicode="運" />
<glyph d="M245,1l-5,-19l-133,0C84,-18 67,-10 54,6l-32,-30l-14,23l35,20l0,66l-29,0l0,19l49,0l0,-82C72,8 90,1 117,1M210,139C214,139 217,143 218,151l18,-3C235,131 228,123 215,123l-26,0l0,-16l33,0l0,-16l-33,0l0,-22l46,0l0,-16l-161,0l0,16l44,0l0,22l-35,0l0,16l35,0l0,16l-21,0C86,123 80,129 80,140l0,32l48,0l0,13l-47,0l0,16l64,0l0,-45l-48,0l0,-11C97,141 99,139 103,139l25,0C132,139 135,143 136,150l17,-2C151,132 145,124 135,123l0,-16l37,0l0,16C164,124 160,129 160,138l0,34l50,0l0,13l-52,0l0,16l69,0l0,-45l-50,0l0,-11C177,141 179,139 183,139M181,52C197,41 214,34 231,30l-7,-19C205,16 186,24 169,37M128,52l11,-15C141,33 140,32 135,33C124,24 108,17 89,10l-10,17C100,34 116,43 128,52M135,91l0,-22l37,0l0,22M37,198C50,189 61,178 70,165l-17,-16C44,161 34,172 21,182z" horiz-adv-x="256" unicode="選" />
<glyph d="M195,10l-4,22l16,0C216,32 220,40 218,55C215,74 207,90 193,104l18,67l-33,0l0,-194l-20,0l0,213l59,0l2,3l18,-15l-4,-3l-22,-67C231,86 241,66 240,49C239,23 230,10 213,10M34,79l95,0l0,-91l-20,0l0,11l-55,0l0,-16l-20,0M54,60l0,-42l55,0l0,42M71,207l22,0C100,206 100,203 94,199l0,-22l47,0l0,-19l-14,0l-14,-42l38,0l0,-19l-137,0l0,19l38,0l-12,42l-13,0l0,19l44,0M104,158l-41,0l10,-42l19,0z" horiz-adv-x="256" unicode="部" />
<glyph d="M246,35l-4,-27C240,-5 233,-11 220,-11l-58,0C150,-11 144,-5 144,7l0,105l67,0l0,59l-69,0l0,19l89,0l0,-106l-20,0l0,9l-47,0l0,-78C164,10 166,8 170,8l40,0C217,8 221,11 222,17l3,23M67,128l0,-23C67,91 62,78 51,66l-11,13C49,86 53,96 53,107l0,21l-14,0l0,-74l71,0l0,22l-14,0C86,76 81,81 81,92l0,36M95,128l0,-34C95,90 97,88 101,88l9,0l0,40M127,-15l-17,0l0,13l-71,0l0,-13l-17,0l0,159l31,0l0,29l-40,0l0,19l119,0l0,-19l-37,0l0,-29l32,0M67,144l14,0l0,29l-14,0M39,14l71,0l0,24l-71,0z" horiz-adv-x="256" unicode="配" />
<glyph d="M24,-22l0,221l94,0l0,-82l-74,0l0,-139M131,67l-66,0l0,19l66,0l0,26l19,0C155,111 156,109 151,106l0,-20l47,0l0,-19l-47,0l0,-65C151,-9 146,-14 135,-14l-16,0l-5,19l14,0C130,5 131,6 131,8l0,30C116,23 95,10 66,-1l-7,20C91,30 115,45 131,64M44,150l0,-17l54,0l0,17M44,183l0,-17l54,0l0,17M139,199l94,0l0,-205C233,-17 228,-22 217,-22l-20,0l-4,19l17,0C212,-3 213,-2 213,0l0,117l-37,0l-37,0M159,183l0,-17l54,0l0,17M159,150l0,-17l54,0l0,17z" horiz-adv-x="256" unicode="閉" />
<glyph d="M141,201l94,0l0,-204C235,-14 230,-19 219,-19l-24,0l-3,19l19,0C214,0 215,1 215,4l0,114l-37,0l-37,0M58,46l0,16l40,0l0,24l-33,0l0,16l126,0l0,-16l-26,0l0,-24l34,0l0,-16l-34,0l0,-60l-20,0l0,60l-27,0C119,17 104,-5 73,-19l-10,19C86,9 98,24 98,46M94,185l-50,0l0,-18l50,0M114,118l-70,0l0,-140l-20,0l0,223l90,0M145,62l0,24l-27,0l0,-24M215,167l0,18l-54,0l0,-18M161,134l54,0l0,17l-54,0M44,134l50,0l0,17l-50,0z" horiz-adv-x="256" unicode="開" />
<glyph d="M211,3l0,115l-36,0l-36,0l0,80l92,0l0,-202C231,-15 226,-20 215,-20l-20,0l-2,19l14,0C210,-1 211,0 211,3M154,47l-53,0l0,-20l53,0M154,85l-53,0l0,-22l53,0M174,101l0,-98l-20,0l0,8l-53,0l0,-16l-20,0l0,106M211,166l0,16l-52,0l0,-16M211,150l-52,0l0,-16l52,0M93,150l-51,0l0,-16l51,0M93,166l0,16l-51,0l0,-16M113,118l-71,0l0,-139l-20,0l0,219l91,0z" horiz-adv-x="256" unicode="間" />
<glyph d="M155,87C151,32 130,-4 91,-22l-10,20C118,16 136,54 136,112l0,33l-38,0l0,19l46,0l0,42l22,0C173,205 173,202 167,198l0,-34l77,0l0,-19l-88,0l0,-39l72,0C225,47 221,11 216,-4C212,-15 201,-21 184,-21l-16,0l-3,19l15,0C189,-2 194,2 197,9C200,17 202,43 205,87M70,10l-12,0l-4,19l10,0C75,29 80,39 78,59C77,72 70,90 58,113l16,62l-30,0l0,-199l-20,0l0,218l56,0l2,4l21,-11C106,184 105,183 100,182l-23,-68C88,93 95,76 97,65C103,28 94,10 70,10z" horiz-adv-x="256" unicode="防" />
<glyph d="M89,113l-12,19l-6,-15C84,100 91,81 91,60C91,33 83,19 68,19l-17,0l-2,19l12,0C68,38 72,46 72,62C72,77 65,96 51,117l23,62l-31,0l0,-201l-20,0l0,220l61,0l2,2l14,-14C103,183 103,181 98,180l-19,-45C110,150 133,174 148,207l25,-3C176,201 175,200 170,199l-1,-2C187,171 212,152 244,139l-11,-22C200,132 175,155 158,185C143,157 120,133 89,113M205,56C215,41 228,27 245,13l-16,-16C214,8 201,25 188,46M156,109l-38,0l0,19l91,0l0,-19l-33,0l0,-24l56,0l0,-19l-56,0l0,-68C176,-13 170,-19 159,-19l-17,0l-4,19l15,0C155,0 156,1 156,3l0,63l-61,0l0,19l61,0M136,47C141,44 140,41 134,40C125,23 113,8 97,-7l-15,15C99,22 112,38 119,56z" horiz-adv-x="256" unicode="除" />
<glyph d="M69,117C84,96 91,75 90,52C89,28 75,17 48,18l-2,22C60,39 68,43 69,51C72,69 66,90 51,114l16,68l-29,0l0,-204l-17,0l0,220l52,0l3,3l16,-11C95,187 94,186 89,185M141,169l8,-23l28,0l11,23M244,130l-157,0l0,16l44,0l-8,23l-23,0l0,16l55,0l0,25l19,0C179,209 180,207 175,204l0,-19l57,0l0,-16l-24,0l-13,-23l49,0M88,15l0,16l67,0l0,16l-22,0l-22,0l0,73l108,0l0,-73l-44,0l0,-16l69,0l0,-16l-69,0l0,-36l-20,0l0,36M128,63l74,0l0,15l-74,0M128,90l74,0l0,14l-74,0z" horiz-adv-x="256" unicode="障" />
<glyph d="M245,15C244,-10 233,-22 212,-22l-78,0C122,-22 116,-16 116,-5l0,19l-52,0l0,-17l-17,0l0,98l163,0l0,-81l-74,0l0,-9C136,0 138,-3 143,-3l66,0C218,-3 222,4 223,19M64,30l52,0l0,17l-52,0M64,63l52,0l0,16l-52,0M136,30l57,0l0,17l-57,0M136,63l57,0l0,16l-57,0M52,133l0,12l55,0l0,-12M107,109l-55,0l0,12l55,0M148,109l0,12l58,0l0,-12M148,133l0,12l58,0l0,-12M217,186l-80,0l0,-16l100,0l0,-48l-20,0l0,36l-80,0l0,-57l-20,0l0,57l-77,0l0,-40l-20,0l0,52l97,0l0,16l-80,0l0,16l180,0z" horiz-adv-x="256" unicode="電" />
<glyph d="M174,-2C177,-2 178,-1 178,2l0,22l-99,0l0,-47l-20,0l0,125l139,0l0,-110C198,-17 193,-21 184,-21l-22,0l-4,19M138,203l0,-15l84,0l0,-16l-84,0l0,-13l72,0l0,-16l-72,0l0,-13l104,0l0,-16l-228,0l0,16l104,0l0,13l-72,0l0,16l72,0l0,13l-84,0l0,16l84,0l0,21l19,0C142,208 143,206 138,203M178,40l0,16l-99,0l0,-16M178,72l0,14l-99,0l0,-14z" horiz-adv-x="256" unicode="青" />
<glyph d="M224,-15l-20,0l0,10l-153,0l0,-14l-20,0l0,158l82,0l8,33l-102,0l0,19l217,0l0,-19l-92,0l-11,-33l91,0M86,14l0,106l-35,0l0,-106M149,14l0,25l-43,0l0,-25M149,55l0,23l-43,0l0,-23M149,120l-43,0l0,-26l43,0M204,120l-35,0l0,-106l35,0z" horiz-adv-x="256" unicode="面" />
<glyph d="M92,110C90,104 88,104 86,110l-4,14l13,2l0,79l62,0l0,-57l-17,0C149,141 157,131 166,118l-13,-9C150,115 147,120 144,123M46,174l5,-4l23,23l10,-8C89,181 88,179 82,180l-38,-34l26,5l4,13l16,-4C95,158 95,156 90,155C82,125 60,105 24,95l-9,14C38,115 54,124 65,137l-43,-10C20,121 18,121 16,126l-3,18l11,0l16,14C33,164 25,170 16,175l10,12l8,-5C41,191 48,200 55,211l12,-9C72,199 71,197 65,197C60,190 53,182 46,174M78,66l-11,18l-28,0l0,12l78,0l0,17l19,0C141,112 142,110 137,107l0,-11l79,0l0,-12l-28,0l-14,-18l68,0l0,-12l-229,0l0,12M188,193l0,-85l-17,0l0,97l45,0l3,3l14,-7C237,198 236,197 230,196l-17,-32C234,152 241,137 233,120C230,114 223,111 212,111l-9,0l-4,16l12,0C217,127 219,131 218,139C217,143 210,151 197,162l13,31M136,133l-9,11l7,4l-25,0l0,-20M154,66l10,18l-75,0l8,-18M58,43l139,0l0,-66l-20,0l0,7l-99,0l0,-10l-20,0M78,20l99,0l0,11l-99,0M143,193l-34,0l0,-10l34,0M143,171l-34,0l0,-11l34,0M177,8l-99,0l0,-12l99,0z" horiz-adv-x="256" unicode="響" />
<glyph d="M26,-18l-13,17C23,10 28,28 28,51l0,144l16,0C49,194 50,192 45,189l0,-147C45,19 39,-1 26,-18M116,-5C130,1 144,11 158,24l13,-15C173,6 172,5 167,6C155,-6 140,-16 123,-25l-8,18l-16,0l0,202l16,0C120,194 121,192 116,189M211,64l-58,0l0,-22l58,0M211,101l-58,0l0,-21l58,0M211,117l0,20l-58,0l0,-20M127,176l0,19l110,0l0,-19l-46,0l-8,-23l45,0l0,-127l-92,0l0,127l30,0l4,23M204,25C216,12 229,2 244,-5l-10,-19C217,-15 203,-4 190,11M63,3l0,178l16,0C84,180 85,178 80,175l0,-172z" horiz-adv-x="256" unicode="順" />
<glyph d="M102,199l0,-16l50,0l0,22l19,0C176,204 177,202 172,199l0,-16l49,0l0,-19l-49,0l0,-21l69,0l0,-19l-103,0l0,-14l68,0l0,-83l-41,0C185,14 209,5 237,1l-9,-21C195,-15 169,-5 149,12l11,15l-69,0l11,-15C105,8 104,6 97,7C81,-4 58,-14 29,-23l-8,21C46,4 68,14 87,27l-40,0l0,83l71,0l0,14l-105,0l0,19l69,0l0,21l-49,0l0,19l49,0l0,22l19,0C106,204 107,202 102,199M152,143l0,21l-50,0l0,-21M118,76l0,18l-51,0l0,-18M186,76l0,18l-48,0l0,-18M186,43l0,17l-48,0l0,-17M118,60l-51,0l0,-17l51,0z" horiz-adv-x="256" unicode="黄" />
<glyph d="M68,21C61,7 50,-8 37,-24l-18,15C31,4 41,18 49,33M240,35l-223,0l0,19l102,0l0,16l-81,0l0,19l81,0l0,18l-37,0l-37,0l0,89l165,0l0,-89l-71,0l0,-18l79,0l0,-19l-79,0l0,-16l101,0M153,31C162,17 168,3 173,-12l-23,-6C146,-4 141,10 134,25M108,29C113,11 115,-4 115,-17l-23,-2C92,-5 90,10 87,27M219,-19C209,-4 197,8 183,19l19,12C215,22 227,10 240,-5M139,180l0,-21l51,0l0,21M65,159l54,0l0,21l-54,0M65,123l54,0l0,20l-54,0M139,123l51,0l0,20l-51,0z" horiz-adv-x="256" unicode="黒" />
<glyph horiz-adv-x="78" unicode=" " />
<glyph d="M14,174l28,0l-6,-113l-16,0M17,25l22,0l0,-22l-22,0z" horiz-adv-x="56" unicode="!" />
<glyph d="M14,155l25,50l28,0l-35,-50M115,205l-35,-50l-18,0l25,50z" horiz-adv-x="128" unicode="&quot;" />
<glyph d="M87,131l6,45l16,0l-6,-45l19,0l0,-19l-22,0l-6,-42l28,0l0,-19l-30,0l-7,-46l-16,0l7,46l-33,0l-7,-46l-16,0l7,46l-20,0l0,19l22,0l6,42l-28,0l0,19l31,0l6,45l16,0l-6,-45M51,112l-6,-42l33,0l6,42z" horiz-adv-x="128" unicode="#" />
<glyph d="M58,198l14,0l0,-19C82,178 90,174 97,167C106,158 110,147 110,132l-22,0C88,143 86,150 82,154C79,157 75,159 72,160l0,-56C83,97 91,92 96,87C107,76 112,63 112,48C112,34 108,23 100,15C93,8 83,4 72,4l0,-25l-14,0l0,25C47,4 38,8 29,17C20,26 16,40 16,61l23,0C39,44 41,33 45,29C49,25 53,23 58,23l0,64C47,93 38,99 33,104C24,113 20,124 20,138C20,149 24,159 32,167C39,174 48,178 58,179M47,155C43,151 41,145 41,138C41,131 44,124 49,119C52,116 55,113 58,112l0,48C54,160 50,158 47,155M79,74C77,76 75,78 72,80l0,-57C77,23 80,24 83,27C88,32 90,38 90,45C90,57 86,67 79,74z" horiz-adv-x="128" unicode="$" />
<glyph d="M37,104C40,107 41,112 41,119l0,26C41,152 40,157 37,160C36,161 34,162 32,162C30,162 28,161 27,160C24,157 23,152 23,145l0,-26C23,112 24,107 27,104C28,103 30,102 32,102C34,102 36,103 37,104M16,93C10,99 7,108 7,119l0,26C7,156 10,165 16,171C20,175 25,177 32,177C39,177 44,175 48,171C54,165 57,156 57,145l0,-26C57,108 54,99 48,93C44,89 39,87 32,87C25,87 20,89 16,93M70,60C70,71 73,80 79,86C83,90 88,92 95,92C102,92 107,90 111,86C117,80 120,71 120,60l0,-26C120,23 117,14 111,8C107,4 102,2 95,2C88,2 83,4 79,8C73,14 70,23 70,34M22,5l76,172l7,-3l-76,-173M90,75C87,72 86,67 86,60l0,-26C86,27 87,22 90,19C91,18 93,17 95,17C97,17 99,18 100,19C103,22 104,27 104,34l0,26C104,67 103,72 100,75C99,76 97,77 95,77C93,77 91,76 90,75z" horiz-adv-x="128" unicode="%" />
<glyph d="M41,164C49,172 58,176 68,176C79,176 88,173 95,166C102,159 106,150 106,139C106,127 102,117 94,109C88,103 79,97 68,92C86,68 101,53 112,46C116,53 118,64 118,78l21,0C138,63 135,48 128,34C136,29 143,25 150,23l-8,-20C137,4 128,10 115,19C102,7 85,1 64,1C46,1 32,6 23,15C14,24 9,35 9,47C9,61 14,73 25,84C30,89 36,93 43,98C34,112 29,124 29,135C29,146 33,156 41,164M55,153C51,149 49,143 49,134C49,126 52,117 59,106C67,110 73,114 77,118C83,124 86,131 86,138C86,144 84,149 80,153C77,156 72,158 67,158C62,158 58,156 55,153M31,47C31,40 34,33 39,28C45,22 53,19 64,19C79,19 91,23 100,31C83,46 67,63 52,84C49,82 45,79 42,76C35,69 31,59 31,47z" horiz-adv-x="152" unicode="&amp;" />
<glyph d="M25,156l-10,0l0,22l23,0l0,-22l-13,-30l-10,0z" horiz-adv-x="52" unicode="'" />
<glyph d="M59,-20C26,11 9,48 9,89C9,130 26,167 59,198l11,-11C39,158 24,126 24,89C24,52 39,20 70,-9z" horiz-adv-x="78" unicode="(" />
<glyph d="M7,187l11,11C51,167 68,130 68,89C68,48 51,11 18,-20l-11,11C38,20 53,52 53,89C53,126 38,158 7,187z" horiz-adv-x="78" unicode=")" />
<glyph d="M72,105l41,26l10,-18l-43,-22l43,-22l-10,-18l-41,26l2,-51l-20,0l2,51l-41,-26l-10,18l43,22l-43,22l10,18l41,-26l-2,48l20,0z" horiz-adv-x="128" unicode="*" />
<glyph d="M56,148l17,0l0,-49l49,0l0,-16l-49,0l0,-49l-17,0l0,49l-49,0l0,16l49,0z" horiz-adv-x="128" unicode="+" />
<glyph d="M25,-24l-10,0l10,27l-10,0l0,22l23,0l0,-22z" horiz-adv-x="52" unicode="," />
<glyph d="M7,99l114,0l0,-16l-114,0z" horiz-adv-x="128" unicode="-" />
<glyph d="M15,25l23,0l0,-22l-23,0z" horiz-adv-x="52" unicode="." />
<glyph d="M6,-2l106,189l10,-6l-106,-189z" horiz-adv-x="128" unicode="/" />
<glyph d="M9,99C9,128 16,150 29,163C38,172 50,177 64,177C78,177 90,172 99,163C112,150 119,128 119,99l0,-20C119,50 112,29 99,16C90,7 78,2 64,2C50,2 38,7 29,16C16,29 9,50 9,79M46,150C37,141 33,125 33,101l0,-23C33,55 38,38 47,29C52,24 58,21 64,21C71,21 77,24 82,29C91,38 95,54 95,78l0,23C95,125 91,141 82,150C77,155 71,158 64,158C57,158 51,155 46,150z" horiz-adv-x="128" unicode="0" />
<glyph d="M68,177l12,0l0,-173l-23,0l0,133l-30,0l0,12l9,0C45,149 53,152 58,157C64,163 67,170 68,177z" horiz-adv-x="128" unicode="1" />
<glyph d="M17,116C17,137 22,152 33,163C42,172 52,176 64,176C79,176 90,172 99,163C108,154 112,144 112,131C112,115 107,101 97,89C88,78 78,67 68,56C63,50 57,44 52,38C47,33 43,27 40,22l75,0l0,-19l-102,0l0,17C14,27 20,36 30,48C47,66 60,81 71,93C82,105 88,118 88,131C88,139 85,146 80,151C76,155 71,157 65,157C60,157 55,155 51,151C44,144 40,132 40,116z" horiz-adv-x="128" unicode="2" />
<glyph d="M17,125C17,140 22,153 32,163C41,172 51,176 64,176C79,176 90,172 99,163C107,155 111,144 111,131C111,118 108,108 101,101C96,96 91,94 86,93C93,91 98,88 103,83C111,75 115,64 115,51C115,36 110,24 101,15C92,6 79,1 62,1C48,1 36,6 27,15C18,24 13,35 13,48l0,8l23,0l0,-7C36,40 39,33 45,27C50,22 55,20 62,20C71,20 78,23 83,28C88,33 91,42 91,53C91,62 88,70 83,75C78,80 72,83 65,83l-8,0l0,17l6,0C69,100 75,103 80,108C85,113 88,121 88,131C88,140 85,147 80,152C76,156 71,158 64,158C58,158 53,156 48,151C43,146 40,137 39,125z" horiz-adv-x="128" unicode="3" />
<glyph d="M76,176l23,0l0,-110l21,0l0,-19l-21,0l0,-44l-23,0l0,44l-67,0l0,20M76,139l-45,-73l45,0z" horiz-adv-x="128" unicode="4" />
<glyph d="M25,174l86,0l0,-19l-67,0l0,-3C43,139 42,127 41,115C40,113 40,111 40,109C49,117 58,121 68,121C81,121 92,117 101,108C110,99 115,85 115,67C115,44 109,27 97,15C88,6 76,1 62,1C49,1 38,5 29,14C20,23 15,36 13,53l23,0C37,40 41,31 46,26C50,22 55,20 61,20C69,20 75,22 80,27C87,34 91,47 91,64C91,81 88,92 82,98C78,102 73,104 68,104C60,104 53,101 47,95C43,91 40,88 39,86l-20,0C20,89 20,91 20,93l5,77z" horiz-adv-x="128" unicode="5" />
<glyph d="M38,164C46,172 56,176 68,176C81,176 91,172 99,164C108,155 112,144 112,131l-23,0C89,140 87,147 83,151C79,155 74,157 68,157C62,157 57,155 53,151C42,140 37,122 37,95C40,100 43,104 47,108C53,114 60,117 69,117C81,117 91,113 99,105C109,95 114,80 114,60C114,39 109,24 98,13C90,5 79,1 65,1C53,1 42,6 32,16C20,28 14,51 14,85C14,122 22,148 38,164M50,92C43,85 39,75 39,62C39,46 43,34 51,26C56,21 61,19 66,19C72,19 77,21 81,25C87,31 90,43 90,60C90,75 87,86 81,92C76,97 72,99 67,99C60,99 55,97 50,92z" horiz-adv-x="128" unicode="6" />
<glyph d="M17,174l95,0l0,-22l-48,-149l-22,0l48,152l-73,0z" horiz-adv-x="128" unicode="7" />
<glyph d="M31,164C39,172 50,176 64,176C78,176 89,172 98,163C107,154 111,143 111,128C111,117 107,107 99,99C96,96 92,93 87,92l0,-2C93,89 99,85 104,80C112,72 116,61 116,48C116,35 111,23 102,14C93,5 81,1 64,1C47,1 35,5 26,14C17,23 12,35 12,48C12,61 16,72 24,80C29,85 35,89 41,90l0,2C37,93 33,96 28,101C21,108 17,117 17,128C17,143 22,155 31,164M47,151C42,146 39,138 39,128C39,119 42,111 47,106C52,101 57,99 63,99C71,99 77,101 81,105C86,110 89,118 89,128C89,138 86,146 81,151C76,156 71,158 64,158C57,158 52,156 47,151M43,74C38,69 35,61 35,51C35,41 38,33 44,27C49,22 56,19 64,19C72,19 79,22 84,27C90,33 93,41 93,51C93,61 90,69 84,75C79,80 73,82 64,82C55,82 48,79 43,74z" horiz-adv-x="128" unicode="8" />
<glyph d="M32,165C39,172 49,176 62,176C74,176 84,172 93,163C107,149 114,125 114,90C114,55 107,30 92,15C83,6 72,1 59,1C46,1 36,5 29,12C20,21 16,32 16,46l23,0C38,37 41,30 47,24C50,21 54,20 59,20C65,20 70,22 75,27C86,38 91,57 91,86C88,82 85,78 82,75C75,68 66,64 55,64C45,64 37,67 30,74C19,85 14,99 14,117C14,137 20,153 32,165M48,152C41,145 38,134 38,117C38,104 41,94 46,89C51,84 55,82 60,82C68,82 74,84 78,88C85,95 89,104 89,115C89,132 85,144 78,151C73,156 68,158 62,158C57,158 52,156 48,152z" horiz-adv-x="128" unicode="9" />
<glyph d="M15,117l23,0l0,-22l-23,0M15,25l23,0l0,-22l-23,0z" horiz-adv-x="52" unicode=":" />
<glyph d="M15,117l23,0l0,-22l-23,0M15,25l23,0l0,-22l-13,-27l-10,0l10,27l-10,0z" horiz-adv-x="52" unicode=";" />
<glyph d="M10,89l99,92l10,-10l-89,-82l89,-82l-10,-10z" horiz-adv-x="128" unicode="&lt;" />
<glyph d="M7,130l114,0l0,-16l-114,0M7,69l114,0l0,-16l-114,0z" horiz-adv-x="128" unicode="=" />
<glyph d="M8,171l10,10l99,-92l-99,-92l-10,10l89,82z" horiz-adv-x="128" unicode="&gt;" />
<glyph d="M10,121C10,138 16,153 27,164C35,172 46,176 59,176C74,176 85,172 93,164C102,155 106,144 106,131C106,120 102,110 94,102C89,97 83,91 75,83C69,77 66,68 66,56l-18,0C48,71 50,82 55,89C58,94 65,102 74,111C79,116 82,123 82,130C82,139 80,146 75,151C71,155 65,157 58,157C52,157 47,155 43,151C36,144 33,134 33,121M46,27l22,0l0,-24l-22,0z" horiz-adv-x="116" unicode="?" />
<glyph d="M36,155C50,169 67,176 88,176C109,176 127,169 140,156C154,142 161,124 161,102C161,79 155,61 144,50C137,43 129,39 120,39C113,39 108,41 105,44C102,47 99,51 98,55C90,44 81,39 71,39C63,39 56,42 51,47C44,54 40,64 40,75C40,96 47,114 61,128C70,137 79,141 90,141C98,141 104,137 109,130l3,11l19,0l-14,-73C116,61 117,57 119,55C120,54 122,53 123,53C129,53 134,55 137,58C146,67 151,82 151,102C151,123 145,139 134,150C122,162 107,168 89,168C71,168 56,162 43,149C28,134 20,112 20,84C20,61 27,42 42,27C54,15 69,9 86,9C105,9 120,14 133,25l6,-6C126,7 108,1 86,1C65,1 48,8 35,21C18,38 10,59 10,85C10,114 19,138 36,155M78,121C68,111 63,96 63,75C63,67 65,61 68,58C71,55 74,54 77,54C82,54 87,56 90,59C93,62 95,65 96,67l11,53C103,126 98,129 92,129C88,129 83,126 78,121z" horiz-adv-x="171" unicode="@" />
<glyph d="M3,3l68,173l20,0l68,-173l-24,0l-21,52l-66,0l-21,-52M81,143l-26,-69l52,0z" horiz-adv-x="162" unicode="A" />
<glyph d="M17,174l80,0C110,174 121,170 130,161C138,153 142,142 142,129C142,118 138,109 131,102C127,98 122,95 116,93C124,90 130,87 135,82C143,74 147,64 147,52C147,37 142,25 132,15C124,7 112,3 96,3l-79,0M40,155l0,-53l54,0C101,102 106,104 111,109C116,114 119,121 119,130C119,137 116,144 111,149C107,153 102,155 96,155M40,83l0,-61l51,0C101,22 109,25 114,30C120,36 123,43 123,52C123,61 120,69 115,74C109,80 101,83 91,83z" horiz-adv-x="163" unicode="B" />
<glyph d="M39,157C52,170 68,176 88,176C108,176 124,170 135,159C147,147 153,132 154,113l-24,0C129,127 124,138 117,145C109,153 99,157 88,157C76,157 65,152 56,143C44,131 38,113 38,88C38,63 44,45 56,33C65,24 75,20 88,20C101,20 112,24 119,31C128,40 133,54 133,71l24,0C156,48 150,31 137,18C126,7 109,1 88,1C68,1 52,7 39,20C22,37 14,59 14,88C14,117 22,140 39,157z" horiz-adv-x="170" unicode="C" />
<glyph d="M17,174l60,0C97,174 114,167 128,153C143,138 150,116 150,87C150,59 142,37 127,22C114,9 98,3 77,3l-60,0M40,155l0,-133l36,0C89,22 99,26 107,34C120,47 126,64 126,87C126,111 120,129 108,141C99,150 88,155 76,155z" horiz-adv-x="166" unicode="D" />
<glyph d="M17,174l110,0l0,-19l-87,0l0,-53l81,0l0,-19l-81,0l0,-61l92,0l0,-19l-115,0z" horiz-adv-x="145" unicode="E" />
<glyph d="M20,174l115,0l0,-19l-92,0l0,-56l72,0l0,-19l-72,0l0,-77l-23,0z" horiz-adv-x="141" unicode="F" />
<glyph d="M39,155C53,169 70,176 90,176C110,176 126,170 139,157C150,146 155,133 156,118l-24,0C131,129 127,139 120,146C113,153 103,157 90,157C77,157 67,153 58,144C46,132 40,113 40,88C40,64 46,46 59,33C68,24 80,20 95,20C106,20 116,24 123,31C130,38 135,46 136,54l0,16l-29,0l0,19l52,0l0,-88l-17,0l-6,17C125,7 110,1 93,1C72,1 54,8 41,21C24,38 16,60 16,88C16,117 24,140 39,155z" horiz-adv-x="174" unicode="G" />
<glyph d="M18,174l23,0l0,-72l82,0l0,72l23,0l0,-171l-23,0l0,80l-82,0l0,-80l-23,0z" horiz-adv-x="164" unicode="H" />
<glyph d="M9,174l45,0l0,-22l-11,0l0,-127l11,0l0,-22l-45,0l0,22l11,0l0,127l-11,0z" horiz-adv-x="63" unicode="I" />
<glyph d="M98,174l23,0l0,-123C121,36 116,23 107,14C98,5 85,1 67,1C49,1 36,5 27,14C16,25 10,44 10,69l23,0C33,50 36,37 43,30C48,25 56,22 66,22C77,22 84,24 89,29C95,35 98,43 98,52z" horiz-adv-x="139" unicode="J" />
<glyph d="M18,174l23,0l0,-78l78,78l29,0l-68,-68l69,-103l-27,0l-58,87l-23,-23l0,-64l-23,0z" horiz-adv-x="153" unicode="K" />
<glyph d="M20,174l23,0l0,-152l92,0l0,-19l-115,0z" horiz-adv-x="138" unicode="L" />
<glyph d="M18,174l31,0l46,-133l46,133l31,0l0,-171l-23,0l0,131l-46,-131l-16,0l-46,131l0,-131l-23,0z" horiz-adv-x="190" unicode="M" />
<glyph d="M18,174l25,0l80,-135l0,135l23,0l0,-171l-25,0l-80,135l0,-135l-23,0z" horiz-adv-x="164" unicode="N" />
<glyph d="M39,155C53,169 70,176 90,176C110,176 127,169 141,155C157,139 165,117 165,89C165,61 157,39 141,23C127,9 110,2 90,2C70,2 53,9 39,23C23,39 15,61 15,89C15,117 23,139 39,155M56,142C45,131 39,113 39,89C39,65 45,47 56,36C66,26 77,21 90,21C103,21 114,26 124,36C135,47 141,65 141,89C141,113 135,131 124,142C114,152 103,157 90,157C77,157 66,152 56,142z" horiz-adv-x="181" unicode="O" />
<glyph d="M16,174l80,0C111,174 123,169 132,160C141,151 146,138 146,121C146,104 142,92 133,83C124,74 112,70 96,70l-57,0l0,-67l-23,0M39,155l0,-66l52,0C100,89 108,92 113,97C119,103 122,111 122,121C122,132 119,141 114,146C108,152 100,155 91,155z" horiz-adv-x="158" unicode="P" />
<glyph d="M114,27l-22,27l15,13l22,-26C137,52 141,67 141,88C141,112 135,130 124,141C114,151 103,156 90,156C77,156 66,151 56,141C45,130 39,112 39,88C39,64 45,46 56,35C66,25 77,20 90,20C100,20 108,22 114,27M39,154C53,168 70,175 90,175C110,175 127,168 141,154C157,138 165,116 165,88C165,63 158,41 144,24l16,-19l-15,-14l-17,20C115,4 103,1 90,1C70,1 53,8 39,22C23,38 15,60 15,88C15,116 23,138 39,154z" horiz-adv-x="181" unicode="Q" />
<glyph d="M21,175l84,0C118,175 129,171 138,162C147,153 151,141 151,126C151,111 147,99 138,90C133,85 127,82 118,81l39,-77l-25,0l-36,74l-52,0l0,-74l-23,0M44,156l0,-59l59,0C110,97 115,99 120,104C125,109 127,116 127,126C127,135 124,143 119,148C114,153 107,156 100,156z" horiz-adv-x="160" unicode="R" />
<glyph d="M33,162C42,171 57,176 76,176C97,176 112,171 123,160C132,151 137,140 137,127l-23,0C114,135 111,142 106,147C100,153 91,156 78,156C64,156 54,153 49,148C44,143 42,138 42,132C42,126 43,122 46,119C49,116 55,112 64,109C79,102 97,95 116,86C121,84 126,81 131,76C138,69 142,60 142,50C142,37 137,25 128,16C118,6 102,1 79,1C57,1 40,7 28,19C19,28 15,40 15,57l23,0C38,45 41,36 46,31C53,24 65,20 80,20C94,20 104,23 111,30C116,35 119,41 119,46C119,52 117,57 113,61C110,64 104,68 97,71C90,74 82,78 71,83C59,88 49,93 42,96C37,98 32,101 28,105C22,111 19,119 19,129C19,142 24,153 33,162z" horiz-adv-x="154" unicode="S" />
<glyph d="M7,174l137,0l0,-19l-57,0l0,-152l-23,0l0,152l-57,0z" horiz-adv-x="151" unicode="T" />
<glyph d="M18,174l23,0l0,-120C41,45 44,37 50,31C57,24 68,20 82,20C96,20 107,24 114,31C120,37 123,45 123,54l0,120l23,0l0,-121C146,38 141,26 132,17C121,6 105,1 82,1C59,1 43,6 32,17C23,26 18,38 18,53z" horiz-adv-x="164" unicode="U" />
<glyph d="M4,175l24,0l53,-139l53,139l24,0l-68,-173l-18,0z" horiz-adv-x="162" unicode="V" />
<glyph d="M2,174l22,0l27,-127l33,127l22,0l33,-127l27,127l22,0l-38,-173l-20,0l-35,139l-35,-139l-20,0z" horiz-adv-x="190" unicode="W" />
<glyph d="M65,92l-54,82l26,0l40,-63l40,63l26,0l-54,-82l59,-89l-26,0l-45,70l-45,-70l-26,0z" horiz-adv-x="154" unicode="X" />
<glyph d="M2,174l24,0l49,-78l49,78l24,0l-61,-95l0,-76l-23,0l0,76z" horiz-adv-x="151" unicode="Y" />
<glyph d="M15,174l116,0l0,-20l-98,-132l101,0l0,-19l-125,0l0,20l98,132l-92,0z" horiz-adv-x="145" unicode="Z" />
<glyph d="M20,200l63,0l0,-16l-46,0l0,-191l46,0l0,-16l-63,0z" horiz-adv-x="86" unicode="[" />
<glyph d="M3,174l25,0l36,-74l36,74l25,0l-45,-85l36,0l0,-16l-42,0l0,-14l42,0l0,-16l-42,0l0,-40l-20,0l0,40l-42,0l0,16l42,0l0,14l-42,0l0,16l36,0z" horiz-adv-x="129" unicode="\" />
<glyph d="M2,200l63,0l0,-223l-63,0l0,16l46,0l0,191l-46,0z" horiz-adv-x="86" unicode="]" />
<glyph d="M5,163l36,41l24,0l36,-41l-19,0l-29,25l-29,-25z" horiz-adv-x="106" unicode="^" />
<glyph d="M0,-13l77,0l0,-12l-77,0z" horiz-adv-x="78" unicode="_" />
<glyph d="M15,204l30,0l29,-46l-16,0z" horiz-adv-x="106" unicode="`" />
<glyph d="M27,106C34,113 45,117 59,117C76,117 88,113 95,106C102,99 105,92 105,83l0,-63C105,13 108,7 113,3l-24,0C86,6 85,10 85,16C75,6 62,1 47,1C34,1 25,4 18,11C12,17 9,24 9,32C9,41 12,49 18,55C25,62 34,66 46,68C54,69 61,71 67,73C76,75 82,77 85,79C85,84 83,89 79,93C75,97 69,99 62,99C53,99 46,97 42,93C39,90 37,87 36,82l-22,0C16,91 20,99 27,106M85,60C81,59 77,58 74,57C63,54 54,52 48,51C43,50 39,48 36,45C33,42 31,38 31,34C31,29 33,25 36,22C38,20 42,19 49,19C60,19 70,23 77,30C82,35 84,38 85,40z" horiz-adv-x="122" unicode="a" />
<glyph d="M13,174l20,0l0,-72C42,113 52,118 65,118C78,118 89,114 98,105C109,94 114,79 114,59C114,40 109,25 98,14C89,5 78,1 64,1C49,1 39,6 33,17l0,-14l-20,0M42,90C36,84 33,76 33,65l0,-12C33,43 36,35 43,28C49,22 56,19 64,19C71,19 76,21 81,26C88,33 92,44 92,59C92,74 89,85 82,92C77,97 71,100 64,100C56,100 49,97 42,90z" horiz-adv-x="127" unicode="b" />
<glyph d="M28,101C38,111 50,116 65,116C81,116 93,112 101,104C108,97 113,88 114,77l-22,0C91,82 89,87 84,92C80,96 74,98 66,98C58,98 51,95 46,90C38,82 34,71 34,57C34,44 38,33 45,26C50,21 57,18 65,18C74,18 82,21 87,26C92,31 95,38 95,47l22,0C116,33 112,22 103,13C94,4 82,0 65,0C51,0 39,5 30,14C18,26 12,41 12,58C12,76 17,90 28,101z" horiz-adv-x="128" unicode="c" />
<glyph d="M94,174l20,0l0,-171l-20,0l0,14C87,6 77,1 64,1C50,1 39,5 31,13C19,25 13,40 13,59C13,79 18,94 29,105C38,114 48,118 60,118C75,118 86,112 94,101M45,92C38,85 35,74 35,59C35,44 39,33 46,26C51,21 56,19 63,19C71,19 78,22 83,27C90,34 94,45 94,59C94,73 90,84 82,92C77,97 70,100 63,100C56,100 50,97 45,92z" horiz-adv-x="127" unicode="d" />
<glyph d="M29,103C38,112 50,117 65,117C79,117 91,112 101,102C110,93 115,78 115,59l-81,0C34,45 37,35 44,28C50,22 58,19 67,19C76,19 83,21 87,25C92,30 94,35 94,41l22,0C113,29 109,20 103,14C94,5 82,1 67,1C51,1 38,6 28,16C17,27 12,41 12,59C12,77 18,92 29,103M44,92C39,87 36,82 35,75l57,0C92,82 89,88 84,93C79,98 73,100 64,100C56,100 49,97 44,92z" horiz-adv-x="128" unicode="e" />
<glyph d="M44,115l34,0l0,-16l-34,0l0,-96l-20,0l0,96l-24,0l0,16l24,0l0,28C24,152 27,160 33,166C40,173 49,176 60,176C69,176 78,174 87,171l0,-20C78,156 70,158 64,158C57,158 51,156 48,153C45,150 44,147 44,143z" horiz-adv-x="78" unicode="f" />
<glyph d="M28,106C35,113 45,117 56,117C67,117 76,114 84,107C91,114 99,117 108,117l9,0l0,-19C109,101 100,102 90,99C95,93 97,86 97,78C97,66 93,56 86,49C79,42 70,39 57,39C50,39 43,41 36,44C33,41 31,39 31,36C31,34 32,32 33,31C36,28 44,26 56,25C67,24 78,24 90,23C97,22 102,19 105,16C110,11 113,4 113,-3C113,-11 110,-18 105,-23C98,-30 82,-34 57,-34C36,-34 22,-30 15,-23C10,-18 8,-13 8,-6C8,-1 10,3 13,6C16,9 20,11 25,14C23,15 21,17 18,20C15,23 13,28 13,33C13,40 18,46 28,52C21,59 17,68 17,78C17,89 21,99 28,106M44,95C39,90 37,85 37,78C37,71 39,66 43,62C47,58 52,56 57,56C63,56 68,58 71,61C75,65 77,71 77,78C77,85 75,90 70,95C67,98 62,100 56,100C51,100 47,98 44,95M40,9C35,8 32,6 30,4C27,1 26,-2 26,-5C26,-8 27,-11 30,-14C34,-18 43,-20 56,-20C74,-20 85,-18 90,-13C93,-10 94,-8 94,-5C94,-2 93,0 91,2C88,5 84,6 77,6C61,7 49,8 40,9z" horiz-adv-x="118" unicode="g" />
<glyph d="M15,174l20,0l0,-79C46,110 59,117 72,117C86,117 96,114 103,107C110,100 113,92 113,83l0,-80l-20,0l0,75C93,85 91,91 86,96C83,99 78,101 72,101C65,101 58,98 52,92C45,85 39,74 35,61l0,-58l-20,0z" horiz-adv-x="128" unicode="h" />
<glyph d="M17,173l20,0l0,-26l-20,0M17,115l20,0l0,-112l-20,0z" horiz-adv-x="54" unicode="i" />
<glyph d="M18,173l20,0l0,-26l-20,0M18,115l20,0l0,-116C38,-10 35,-17 29,-23C22,-30 11,-34 -3,-34C-13,-34 -22,-32 -31,-28l0,19C-20,-14 -10,-16 -3,-16C4,-16 10,-14 14,-10C17,-7 18,-4 18,0z" horiz-adv-x="56" unicode="j" />
<glyph d="M13,174l20,0l0,-108l49,49l25,0l-38,-38l46,-74l-21,0l-38,61l-23,-23l0,-38l-20,0z" horiz-adv-x="118" unicode="k" />
<glyph d="M17,174l20,0l0,-171l-20,0z" horiz-adv-x="54" unicode="l" />
<glyph d="M35,3l-20,0l0,112l20,0l0,-17C44,111 54,117 65,117C78,117 87,114 94,107C97,104 100,100 102,96C111,110 123,117 138,117C149,117 157,114 163,108C170,101 173,94 173,86l0,-83l-20,0l0,79C153,86 152,89 149,92C145,96 140,98 135,98C126,98 118,95 112,89C107,84 104,79 104,74l0,-71l-20,0l0,78C84,85 82,89 78,93C75,96 70,98 63,98C56,98 49,95 44,90C38,84 35,78 35,73z" horiz-adv-x="188" unicode="m" />
<glyph d="M35,3l-20,0l0,112l20,0l0,-20C47,110 60,117 73,117C86,117 97,113 105,105C110,100 113,93 113,86l0,-83l-20,0l0,77C93,86 91,91 87,95C83,99 77,101 70,101C63,101 57,98 50,91C40,81 35,70 35,59z" horiz-adv-x="128" unicode="n" />
<glyph d="M28,102C38,112 50,117 65,117C80,117 92,112 102,102C113,91 119,76 119,59C119,42 113,27 102,16C92,6 80,1 65,1C50,1 38,6 28,16C17,27 11,42 11,59C11,76 17,91 28,102M45,91C37,83 33,72 33,59C33,46 37,35 44,28C50,22 57,19 65,19C73,19 80,22 86,28C93,35 97,46 97,59C97,72 93,83 85,91C80,96 73,99 65,99C57,99 50,96 45,91z" horiz-adv-x="130" unicode="o" />
<glyph d="M33,-34l-20,0l0,149l20,0l0,-13C41,112 51,117 64,117C78,117 89,113 98,104C109,93 114,78 114,59C114,39 109,24 98,13C89,4 78,0 64,0C50,0 40,5 33,16M43,90C36,83 33,75 33,66l0,-14C33,43 37,34 44,27C50,21 57,18 64,18C71,18 76,20 81,25C88,32 92,44 92,59C92,74 89,84 82,91C77,96 71,99 64,99C56,99 49,96 43,90z" horiz-adv-x="127" unicode="p" />
<glyph d="M29,104C38,113 48,117 60,117C75,117 86,112 94,102l0,13l20,0l0,-149l-20,0l0,51C85,6 74,0 59,0C48,0 38,4 29,13C18,24 13,39 13,59C13,78 18,93 29,104M45,91C38,84 35,74 35,59C35,44 39,32 46,25C51,20 56,18 63,18C70,18 77,21 82,26C90,34 94,43 94,53l0,13C94,76 91,84 84,91C79,96 72,99 63,99C56,99 50,96 45,91z" horiz-adv-x="127" unicode="q" />
<glyph d="M88,117l0,-22C85,96 82,96 77,96C67,96 58,92 49,83C42,76 37,68 34,60l0,-57l-20,0l0,112l20,0l0,-28C37,92 41,97 45,101C56,112 70,117 88,117z" horiz-adv-x="89" unicode="r" />
<glyph d="M24,105C32,113 43,117 58,117C74,117 86,113 93,106C100,99 103,92 103,84l-20,0C82,89 81,92 79,94C75,98 68,100 57,100C50,100 45,98 41,94C38,91 36,87 36,83C36,80 37,78 39,76C42,73 50,70 64,67C73,65 80,63 86,61C91,59 95,57 98,54C103,49 106,42 106,35C106,27 103,20 96,13C88,5 76,1 59,1C42,1 30,5 22,13C15,20 12,28 12,38l20,0C33,32 34,28 37,25C42,20 49,18 58,18C69,18 77,20 81,24C84,27 85,30 85,34C85,37 83,40 80,43C77,46 73,48 67,49C55,52 46,54 40,56C33,58 27,61 24,64C18,70 15,76 15,83C15,92 18,99 24,105z" horiz-adv-x="118" unicode="s" />
<glyph d="M24,154l20,0l0,-39l34,0l0,-16l-34,0l0,-65C44,30 46,26 49,23C52,20 56,19 62,19C71,19 80,21 87,26l0,-19C80,3 72,1 63,1C50,1 40,4 34,10C27,17 24,24 24,32l0,67l-24,0l0,16l24,0z" horiz-adv-x="90" unicode="t" />
<glyph d="M15,115l20,0l0,-75C35,32 37,26 41,22C44,19 49,17 55,17C64,17 71,20 78,27C88,37 93,47 93,58l0,57l20,0l0,-112l-20,0l0,20C82,8 69,1 54,1C40,1 30,4 24,10C18,16 15,24 15,33z" horiz-adv-x="128" unicode="u" />
<glyph d="M3,115l22,0l36,-89l36,89l22,0l-48,-114l-20,0z" horiz-adv-x="122" unicode="v" />
<glyph d="M4,115l21,0l23,-84l24,84l22,0l24,-84l23,84l21,0l-34,-114l-19,0l-26,91l-26,-91l-19,0z" horiz-adv-x="166" unicode="w" />
<glyph d="M9,115l23,0l27,-40l27,40l23,0l-38,-55l41,-57l-23,0l-30,42l-30,-42l-23,0l41,57z" horiz-adv-x="118" unicode="x" />
<glyph d="M2,116l22,0l36,-89l36,89l22,0l-50,-120C64,-14 60,-21 56,-25C51,-30 44,-33 36,-33C27,-33 21,-32 18,-29l0,19C23,-13 29,-14 35,-14C38,-14 41,-13 44,-10C47,-7 49,-4 50,1z" horiz-adv-x="122" unicode="y" />
<glyph d="M14,115l88,0l0,-17l-68,-79l73,0l0,-16l-97,0l0,17l68,79l-64,0z" horiz-adv-x="117" unicode="z" />
<glyph d="M37,200l20,0l0,-12l-12,0C42,188 40,187 39,186C38,185 37,182 37,179l0,-72C37,100 34,93 29,88C34,83 37,76 37,67l0,-69C37,-5 38,-7 39,-8C41,-10 43,-11 45,-11l12,0l0,-12l-20,0C32,-23 27,-21 23,-17C19,-13 17,-8 17,-2l0,74C17,74 16,76 14,78C12,80 9,81 4,81l0,14C9,95 12,96 14,98C16,100 17,102 17,104l0,75C17,185 19,190 23,194C27,198 32,200 37,200z" horiz-adv-x="60" unicode="{" />
<glyph d="M20,219l20,0l0,-254l-20,0z" horiz-adv-x="60" unicode="|" />
<glyph d="M3,-23l0,12l12,0C17,-11 19,-10 21,-8C22,-7 23,-5 23,-2l0,69C23,76 26,83 31,88C26,93 23,100 23,107l0,72C23,182 22,185 21,186C20,187 18,188 15,188l-12,0l0,12l20,0C28,200 33,198 37,194C41,190 43,185 43,179l0,-75C43,102 44,100 46,98C48,96 51,95 56,95l0,-14C51,81 48,80 46,78C44,76 43,74 43,72l0,-74C43,-8 41,-13 37,-17C33,-21 28,-23 23,-23z" horiz-adv-x="60" unicode="}" />
<glyph d="M92,181C87,173 80,169 73,169C68,169 60,174 50,184C42,191 36,195 31,195C25,195 21,192 18,186C15,179 13,175 12,172l-10,11C5,191 8,198 13,205C18,212 23,216 30,216C37,216 44,212 52,204C61,195 69,191 75,191C79,191 83,195 88,202C90,205 92,210 94,215l10,-13C100,194 96,187 92,181z" horiz-adv-x="106" unicode="~" />
<glyph d="M148,21l0,142l-41,0l0,-142M84,21l0,142l-22,0l0,19l132,0l0,-19l-23,0l0,-142l23,0l0,-19l-132,0l0,19z" horiz-adv-x="256" unicode="Ⅱ" />
<glyph d="M75,-24C59,-6 42,9 25,20l15,20C61,27 79,13 93,-3z" horiz-adv-x="170" unicode="、" />
<glyph d="M95,13C95,3 92,-5 85,-12C78,-19 70,-22 60,-22C50,-22 42,-19 35,-12C28,-5 25,3 25,13C25,23 28,31 35,38C42,45 50,48 60,48C70,48 78,45 85,38C92,31 95,23 95,13M83,13C83,19 81,24 76,29C71,34 66,36 60,36C54,36 49,34 44,29C39,24 37,19 37,13C37,7 39,2 44,-3C49,-8 54,-10 60,-10C66,-10 71,-8 76,-3C81,2 83,7 83,13z" horiz-adv-x="170" unicode="。" />
<glyph d="M95,155l0,-179l-75,0l0,19l55,0l0,160z" horiz-adv-x="128" unicode="」" />
<glyph d="M187,17C194,24 198,35 198,48C198,63 194,74 187,81C178,90 166,95 151,96C140,61 128,37 115,23l6,-13l-19,-14l-5,11C80,-8 65,-15 53,-15C45,-15 38,-12 31,-5C24,2 20,12 20,25C20,48 28,67 43,82C52,91 62,99 72,104l2,38l-42,-2l-4,22l47,1C76,178 77,193 78,207l19,0C104,206 104,203 99,199C98,187 97,175 96,164C128,166 155,169 178,173l4,-22C154,148 125,145 95,144l-2,-32C102,115 115,117 132,118l3,16l19,-3C160,130 161,127 156,123l-1,-7C176,114 192,107 203,96C216,83 222,67 222,47C222,28 216,13 205,2C193,-10 173,-18 145,-23l-13,22C159,2 178,8 187,17M57,69C45,57 39,41 39,22C39,17 41,12 45,8C46,7 49,6 53,6C63,6 74,12 87,25C80,45 76,64 75,83C70,80 64,76 57,69M105,43C116,58 123,76 128,98C116,98 105,96 95,93C96,76 99,59 105,43z" horiz-adv-x="241" unicode="あ" />
<glyph d="M93,15C84,4 74,-2 65,-2C48,-2 36,8 28,27C23,38 21,63 21,100C21,127 22,154 25,181l21,-5C54,174 54,171 47,166C44,141 43,119 43,99C43,72 45,52 48,41C51,30 56,24 63,24C70,24 77,29 82,40C85,47 89,55 92,64l20,-14C106,35 100,23 93,15M226,53l-27,-7C191,93 175,129 150,155l21,12C201,136 219,98 226,53z" horiz-adv-x="242" unicode="い" />
<glyph d="M32,130C91,134 129,137 146,140l8,4l17,-17C146,109 124,91 107,72C120,74 129,74 133,73C140,70 144,65 144,56l0,-34C144,14 148,10 156,11l58,0l-4,-22l-50,0C136,-11 124,-1 124,20l0,25C124,53 119,57 109,57C100,57 92,53 83,45C66,29 49,12 34,-7l-18,12C48,42 86,80 129,119l-90,-11M152,167C122,168 91,170 59,173l3,23C87,191 118,188 155,188z" horiz-adv-x="231" unicode="え" />
<glyph d="M68,117C53,115 39,113 25,112l-2,22C35,134 52,135 73,137C79,158 84,179 88,200l21,-7C117,190 117,187 108,184C104,170 100,155 96,139C104,140 112,141 121,141C130,141 137,139 142,134C150,126 154,108 154,80C154,41 148,16 137,5C130,-2 123,-5 114,-5C101,-5 89,2 76,17l13,18C100,24 108,19 113,19C116,19 119,20 122,23C129,30 133,51 133,84C133,103 131,114 127,118C125,120 121,121 115,121C109,121 101,120 90,119C76,70 59,27 40,-8l-23,8C36,30 53,69 68,117M166,147l18,13C211,132 230,98 240,59l-22,-9C206,93 189,126 166,147z" horiz-adv-x="256" unicode="か" />
<glyph d="M184,160C211,132 230,98 240,59l-22,-9C206,93 189,126 166,147M137,5C130,-2 123,-5 114,-5C101,-5 89,2 76,17l13,18C100,24 108,19 113,19C116,19 119,20 122,23C129,30 133,51 133,84C133,103 131,114 127,118C125,120 121,121 115,121C109,121 101,120 90,119C76,70 59,27 40,-8l-23,8C36,30 53,69 68,117C53,115 39,113 25,112l-2,22C35,134 52,135 73,137C79,158 84,179 88,200l21,-7C117,190 117,187 108,184C104,170 100,155 96,139C104,140 112,141 121,141C130,141 137,139 142,134C150,126 154,108 154,80C154,41 148,16 137,5M210,212C222,205 235,196 250,184l-12,-12C223,183 210,193 198,200M217,148C202,161 189,170 178,177l12,12C202,182 215,173 230,161z" horiz-adv-x="256" unicode="が" />
<glyph d="M131,123C152,126 173,131 194,137l9,-21C186,112 165,108 142,105C152,92 165,79 181,67l-17,-17C140,55 121,58 107,58C80,58 63,54 55,46C50,41 48,36 48,31C48,24 50,19 54,15C59,10 74,7 99,7l61,0l-4,-22l-61,0C68,-15 50,-10 39,1C31,9 27,19 27,32C27,42 31,51 38,58C49,69 73,75 108,75C120,75 132,74 144,72C135,82 126,92 119,101C88,97 53,95 16,95l-3,21C47,115 79,117 109,120C104,129 101,137 98,145C73,143 48,142 21,142l-2,20C46,161 71,162 93,164C90,176 87,190 85,205l22,0C114,204 114,201 108,197C109,187 111,177 113,167C130,169 148,172 166,177l7,-20C150,153 132,150 119,148C122,140 126,132 131,123z" horiz-adv-x="216" unicode="き" />
<glyph d="M28,113C71,154 99,184 112,205l18,-14C136,184 134,182 125,183C115,168 89,141 46,101C43,98 42,96 42,94C42,90 43,87 46,85C83,56 113,28 136,2l-18,-18C95,11 66,40 32,69C22,78 17,85 17,92C17,99 21,106 28,113z" horiz-adv-x="151" unicode="く" />
<glyph d="M178,82C178,43 167,10 144,-18l-21,12C146,21 158,51 158,86l0,28C133,112 109,111 86,111l0,22C109,132 133,133 158,135l0,61l18,0C182,195 183,192 178,188l0,-52C195,137 210,139 225,142l3,-21C211,119 194,117 178,116M39,186l19,-5C67,179 67,176 59,172C53,143 50,114 50,85C50,61 53,36 58,9l-22,-4C31,29 29,56 29,85C29,124 32,157 39,186z" horiz-adv-x="242" unicode="け" />
<glyph d="M76,5C55,5 41,9 33,17C25,25 21,36 21,49C21,56 22,65 25,75l23,-3C45,61 43,54 43,49C43,43 45,38 49,34C54,29 63,27 77,27l109,0l0,-22M36,174l130,0l0,-22l-130,0z" horiz-adv-x="204" unicode="こ" />
<glyph d="M186,22l0,-22l-110,0C55,0 41,4 33,12C25,20 21,31 21,44C21,51 22,60 25,70l23,-3C45,56 43,49 43,44C43,38 45,33 49,29C54,24 63,22 77,22M36,147l0,22l130,0l0,-22M185,213C196,207 209,199 223,188l-9,-14C199,185 187,193 176,199M171,190C182,184 195,176 209,165l-9,-14C185,162 173,170 162,176z" horiz-adv-x="229" unicode="ご" />
<glyph d="M20,130l-6,20C47,150 73,151 93,152C86,171 82,188 79,204l22,0C107,203 108,200 103,196C106,183 110,169 115,154C138,156 158,159 175,163l5,-22C161,138 142,136 123,135C136,110 157,88 184,69l-15,-18C144,62 120,68 96,68C74,68 59,64 50,55C46,51 44,45 44,38C44,31 47,25 53,19C62,10 84,5 119,5l35,0l-5,-22l-38,0C76,-17 52,-10 38,4C28,14 23,25 23,38C23,51 27,61 34,68C46,80 65,86 90,86C115,86 130,85 134,82C118,102 107,119 101,133C74,131 47,130 20,130z" horiz-adv-x="196" unicode="さ" />
<glyph d="M93,-11C69,-11 51,-5 40,6C31,15 27,31 27,56l0,134l21,0C54,189 55,186 50,182l0,-126C50,39 53,28 59,22C66,15 77,11 92,11C118,11 144,26 171,55l15,-19C157,5 126,-11 93,-11z" horiz-adv-x="196" unicode="し" />
<glyph d="M186,36C157,5 126,-11 93,-11C69,-11 51,-5 40,6C31,15 27,31 27,56l0,134l21,0C54,189 55,186 50,182l0,-126C50,39 53,28 59,22C66,15 77,11 92,11C118,11 144,26 171,55M161,173l-10,-13C137,169 124,178 112,185l10,13C135,189 148,181 161,173M141,151l-10,-13C118,147 105,155 92,163l10,13C115,168 128,160 141,151z" horiz-adv-x="196" unicode="じ" />
<glyph d="M98,45C87,45 78,48 72,54C64,62 60,71 60,81C60,92 64,101 72,109C80,117 90,121 102,121C110,121 118,120 125,118l0,22l-110,-7l-4,21l114,5l0,47l18,0C150,205 151,202 145,198l0,-38l85,6l0,-21l-85,-4l0,-38C148,91 149,78 149,63C148,29 129,0 92,-23l-19,14C106,10 123,31 123,52C115,47 107,45 98,45M86,97C82,93 80,88 80,81C80,75 82,70 85,67C88,64 94,62 101,62C108,62 114,64 119,69C123,73 125,78 125,84C125,90 123,95 119,99C116,102 111,104 104,104C97,104 91,102 86,97z" horiz-adv-x="246" unicode="す" />
<glyph d="M182,74C182,55 173,46 155,46l-33,0l-4,22l34,0C159,68 162,71 162,78l0,32l-75,-5l0,-73C87,20 93,14 106,14l98,0l-4,-22l-95,0C80,-8 67,5 67,30l0,73l-50,-4l-3,21l53,3l0,51l18,0C92,173 92,170 87,166l0,-42l75,5l0,59l18,0C187,187 187,184 182,180l0,-50l54,3l2,-21l-56,-1z" horiz-adv-x="256" unicode="せ" />
<glyph d="M61,162l-4,21C103,185 132,188 144,193l10,4l18,-19C176,175 175,172 168,171C141,150 114,129 87,108C128,113 172,118 219,122l0,-21l-38,-3C155,96 134,87 119,72C111,64 107,54 107,42C107,33 110,25 116,19C126,9 147,4 179,3l-9,-26C136,-20 112,-12 99,1C89,11 84,23 84,37C84,54 89,67 99,77C104,82 111,88 119,93C83,88 50,83 20,78l-5,22C29,102 43,104 56,106C74,119 99,140 131,171C108,167 85,164 61,162z" horiz-adv-x="236" unicode="そ" />
<glyph d="M219,13l0,-22l-44,0C150,-9 126,-3 103,9l9,18C129,18 150,13 175,13M44,-11l-22,7C40,38 53,82 60,128C44,127 30,126 17,126l-4,20C32,146 48,147 63,148C66,169 68,187 70,202l20,-4C97,196 98,193 92,190C90,182 87,169 84,150C99,152 113,155 126,158l4,-20C113,135 96,132 81,130C71,71 59,24 44,-11M214,96C175,95 145,89 123,80l-6,20C146,111 177,117 210,117z" horiz-adv-x="236" unicode="た" />
<glyph d="M214,96C175,95 145,89 123,80l-6,20C146,111 177,117 210,117M219,13l0,-22l-44,0C150,-9 126,-3 103,9l9,18C129,18 150,13 175,13M130,138C113,135 96,132 81,130C71,71 59,24 44,-11l-22,7C40,38 53,82 60,128C43,127 29,126 17,126l-4,20C32,146 48,147 63,148C66,169 68,187 70,202l20,-4C97,196 98,193 92,190C90,182 87,169 84,150C99,152 113,155 126,158M190,206C201,200 214,191 229,180l-9,-14C205,177 192,185 181,192M170,186C182,179 195,170 209,160l-9,-14C185,156 172,165 161,172z" horiz-adv-x="236" unicode="だ" />
<glyph d="M216,157C193,157 174,155 161,150C146,145 133,136 120,123C107,110 101,94 101,74C101,58 106,45 116,35C129,22 155,14 193,13l-8,-22C146,-7 118,2 103,17C88,32 80,51 80,73C80,104 92,129 117,147C86,142 54,138 21,133l-6,23C80,161 146,169 212,180z" horiz-adv-x="231" unicode="て" />
<glyph d="M216,157C193,157 174,155 161,150C146,145 133,136 120,123C107,110 101,94 101,74C101,58 106,45 116,35C129,22 155,14 193,13l-8,-22C146,-7 118,2 103,17C88,32 80,51 80,73C80,104 92,129 117,147C86,142 54,138 21,133l-6,23C80,161 146,169 212,180M156,104l10,12C176,110 189,102 204,91l-10,-12C179,90 167,98 156,104M176,128l10,12C195,135 208,126 224,115l-10,-12C198,114 185,123 176,128z" horiz-adv-x="231" unicode="で" />
<glyph d="M66,200l21,0C94,199 95,196 89,192l2,-48C92,130 94,119 98,110C117,118 142,126 173,135l10,-26C120,98 77,81 56,60C49,53 45,45 45,37C45,31 47,26 52,21C57,16 66,14 81,14l96,0l0,-22l-97,0C58,-8 43,-4 34,5C25,14 21,24 21,35C21,50 26,62 37,73C45,81 58,90 77,101C73,111 71,122 70,134z" horiz-adv-x="196" unicode="と" />
<glyph d="M163,113C170,112 171,109 165,105l0,-58C182,42 199,34 217,25l-12,-19C190,15 177,21 165,25C163,11 159,1 152,-6C144,-14 133,-18 119,-18C100,-18 87,-14 80,-7C73,0 70,8 70,19C70,28 73,35 80,42C89,51 101,55 118,55C129,55 138,54 145,52l0,61M16,135l-3,21C30,156 46,157 63,158C66,170 70,186 75,206l18,-6C100,197 100,195 93,192l-9,-32C95,161 107,164 119,167l5,-21C105,142 90,140 78,139C67,105 52,68 31,28l-20,10C32,75 47,108 56,137C45,136 32,135 16,135M152,167C171,161 193,153 219,143l-9,-21C182,134 160,142 144,147M118,37C107,37 100,35 96,31C93,28 91,24 91,19C91,14 92,11 95,8C99,4 106,2 116,2C125,2 132,4 136,8C142,14 145,22 145,33C137,36 128,37 118,37z" horiz-adv-x="231" unicode="な" />
<glyph d="M171,12C140,12 114,22 93,42l13,17C124,42 146,33 171,34l55,0l0,-22M28,-7C26,28 25,57 25,82C25,112 29,148 36,189l20,-5C63,183 64,180 57,175C50,136 47,105 47,82C47,56 48,27 51,-5M213,141C184,142 147,140 101,135l0,21C149,161 186,163 213,162z" horiz-adv-x="241" unicode="に" />
<glyph d="M97,17C88,8 79,4 70,4C59,4 51,7 45,13C29,29 21,49 21,73C21,102 31,127 52,148C75,171 102,182 135,182C164,182 187,174 204,157C223,138 232,116 232,91C232,64 223,41 206,24C195,13 177,2 154,-9l-21,21C156,19 175,30 188,43C201,56 207,71 207,89C207,110 200,128 186,142C172,156 150,162 120,161l18,-9C146,149 146,145 138,141C127,74 113,33 97,17M70,135C53,118 44,96 44,71C44,56 49,43 59,33C61,31 64,30 68,30C72,30 76,32 81,37C96,52 108,93 115,160C98,156 83,148 70,135z" horiz-adv-x="256" unicode="の" />
<glyph d="M184,128C185,103 185,77 184,52C204,45 223,34 242,21l-12,-19C216,13 201,22 184,30C184,18 180,8 173,1C165,-7 153,-11 138,-11C123,-11 111,-7 103,1C96,8 93,16 93,27C93,36 96,44 101,49C109,57 121,61 137,61C146,61 154,60 163,58C164,81 164,104 163,127l-74,-5l0,21l72,4C160,166 159,182 157,197l21,0C185,196 186,193 180,189C181,175 181,161 182,148l54,3l0,-21M33,-6C30,13 29,34 29,59C29,113 33,156 41,189l22,-4C68,183 67,181 62,178C55,155 51,115 51,59C51,34 53,13 56,-2M137,43C128,43 121,41 117,37C114,34 112,30 112,27C112,22 113,18 116,15C121,10 128,8 137,8C146,8 153,10 157,15C162,20 164,28 163,38C152,41 143,43 137,43z" horiz-adv-x="256" unicode="は" />
<glyph d="M118,113C114,116 110,118 106,118C102,118 99,117 96,114C65,87 44,68 33,59l-20,20C31,90 55,109 84,136C91,142 97,145 104,145C113,145 121,142 128,136C179,94 217,66 244,53l-23,-23C184,57 149,85 118,113z" horiz-adv-x="256" unicode="へ" />
<glyph d="M116,38C112,34 110,30 110,25C110,20 111,17 114,14C118,10 124,8 133,8C143,8 150,10 155,15C160,20 162,27 161,38C154,41 145,43 135,43C126,43 119,41 116,38M161,102l-72,-3l0,21l71,3C159,136 158,149 157,160l-64,-3l0,21l88,4l21,-19l-24,-2C179,150 180,138 181,124l53,3l0,-21l-52,-3C183,87 184,70 183,52C204,43 223,32 240,21l-12,-19C205,17 189,27 182,30C182,17 179,8 173,2C164,-7 152,-11 136,-11C120,-11 108,-7 101,0C94,7 91,15 91,25C91,34 95,43 102,50C109,57 120,61 135,61C146,61 155,60 162,58C163,73 162,88 161,102M56,-2l-23,-4C30,13 29,36 29,63C29,107 32,150 39,192l22,-5C69,185 69,182 62,179C54,150 50,112 50,65C50,40 52,17 56,-2M199,199C209,191 220,181 232,169l-11,-11C209,170 198,180 188,188M218,216C228,208 239,198 251,186l-11,-11C228,187 217,197 207,205z" horiz-adv-x="256" unicode="ぼ" />
<glyph d="M129,54C156,48 183,39 209,26l-11,-22C173,19 150,30 129,35C129,18 125,5 116,-4C108,-12 95,-16 77,-16C63,-16 52,-12 43,-3C37,3 34,11 34,22C34,31 37,39 44,46C53,55 66,59 84,59C89,59 98,59 109,58l0,31l-76,-2l0,20l76,2l0,35l-94,-3l0,20l94,3l0,39l18,0C134,202 135,199 129,195l0,-29l82,3l0,-20l-82,-3l0,-36l65,2l0,-20l-65,-2M86,41C73,41 63,38 58,33C55,30 53,25 53,20C53,16 55,12 58,9C63,4 70,2 80,2C88,2 95,5 100,10C106,16 109,26 108,39C101,40 93,41 86,41z" horiz-adv-x="228" unicode="ま" />
<glyph d="M207,132C222,117 229,98 229,73C229,50 222,32 209,19C197,7 180,-3 159,-10l-13,19C168,16 184,25 193,34C203,44 208,57 208,74C208,93 203,107 193,117C180,130 164,137 144,138C137,110 126,81 111,52l19,-22l-16,-12l-14,16C95,25 89,18 83,12C74,3 66,-1 57,-1C48,-1 39,3 31,11C22,20 18,32 18,48C18,72 31,97 57,124C52,144 49,163 47,181l19,0C72,180 73,177 68,173C69,158 71,146 74,136C91,147 109,153 127,156C130,166 132,181 135,201l20,-5C162,193 162,191 155,188l-7,-32C173,155 192,147 207,132M63,102C46,82 38,63 38,46C38,37 41,29 46,24C49,21 53,19 57,19C60,19 64,21 69,26C73,30 79,38 86,50C77,64 70,81 63,102M79,116C86,93 92,78 98,69C109,91 118,113 123,136C107,133 92,127 79,116z" horiz-adv-x="251" unicode="め" />
<glyph d="M94,16C101,9 112,5 125,5C142,5 154,8 160,14C166,20 169,30 169,44C169,54 167,66 163,80l21,3C189,64 191,52 191,45C191,24 186,9 176,-1C165,-12 148,-17 124,-17C105,-17 89,-11 78,0C67,11 63,25 64,44l2,30l-51,0l0,19l54,0l4,39l-47,0l0,19l50,0l5,57l22,-3C110,203 111,200 105,197l-8,-46l39,0l0,-19l-42,0l-4,-39l48,0l0,-19l-51,0l-2,-25C84,34 87,23 94,16z" horiz-adv-x="206" unicode="も" />
<glyph d="M196,6C165,23 141,34 122,39C121,22 117,9 110,2C100,-8 86,-13 67,-13C51,-13 39,-9 31,-1C24,6 20,15 20,25C20,35 24,44 33,53C41,61 54,65 73,65C85,65 95,64 102,63C100,99 97,143 94,195l20,0C120,194 121,191 116,187C116,176 117,160 118,138C136,137 161,139 194,144l0,-21C171,120 146,118 120,117C121,97 122,78 122,60C147,54 175,43 206,27M74,47C61,47 51,44 46,39C41,34 39,30 39,25C39,20 41,16 44,13C49,8 57,6 68,6C79,6 86,8 91,13C98,20 101,30 101,44C91,46 82,47 74,47z" horiz-adv-x="221" unicode="よ" />
<glyph d="M66,9l24,0C123,9 144,13 153,22C160,29 164,38 164,47C164,55 161,62 154,69C148,75 138,78 124,78C95,78 68,64 44,35l-20,2l11,107l21,-4C63,137 63,135 56,132l-7,-65C72,87 99,97 129,97C147,97 161,92 172,81C181,72 185,61 185,47C185,32 179,18 168,7C155,-6 129,-13 92,-13l-18,0M130,176l-10,-20C96,166 71,175 45,182l9,18C73,195 98,187 130,176z" horiz-adv-x="206" unicode="ら" />
<glyph d="M134,198l20,0C161,197 162,195 156,190C158,169 159,136 159,92C159,42 135,4 88,-21l-17,17C116,17 138,50 138,93C138,138 137,173 134,198M50,53C45,53 41,55 37,59C32,64 30,84 30,119C30,146 31,170 34,192l22,0C61,190 61,188 56,185C53,169 51,147 51,119C51,90 52,76 55,76C57,76 60,77 63,80C68,84 75,93 86,107l15,-15C90,78 79,67 70,60C64,55 57,53 50,53z" horiz-adv-x="191" unicode="り" />
<glyph d="M168,18C176,26 180,37 180,50C180,65 176,76 167,85C158,94 145,98 126,98C104,98 87,94 75,85C64,77 49,63 31,42l-17,15C62,105 98,145 123,177C101,174 79,172 57,170l-7,23C83,193 112,195 137,198l9,4l11,-11C164,184 163,180 152,178C132,155 112,133 92,111C106,114 118,116 127,116C152,116 171,110 183,98C195,86 201,71 201,52C201,33 196,18 185,7C169,-9 149,-17 124,-17C101,-17 84,-12 73,-1C64,8 60,18 60,30C60,38 63,45 69,51C76,58 83,61 92,61C104,61 114,57 122,49C131,40 138,25 141,5C152,6 161,11 168,18M109,37C104,42 100,44 95,44C90,44 86,43 83,40C80,37 78,33 78,29C78,23 81,17 86,12C93,5 101,2 112,2C115,2 118,2 121,2C119,19 115,31 109,37z" horiz-adv-x="221" unicode="る" />
<glyph d="M156,133C145,133 123,117 90,84l0,-100l-20,0l0,82l-44,-55l-16,16l40,47C57,83 64,93 70,103l0,24l-44,-15l-6,21l50,13l0,59l18,0C94,204 95,201 90,197l0,-45l11,-6C107,143 106,140 99,137l-9,-19l0,-7C121,140 145,155 161,155C181,155 190,142 188,115l-5,-77C182,27 186,22 195,22C204,22 210,24 214,29C220,36 225,45 229,55l17,-14C239,28 233,19 227,13C218,4 208,0 197,0C172,0 161,13 162,38l5,76C168,127 164,133 156,133z" horiz-adv-x="256" unicode="れ" />
<glyph d="M165,27C172,34 176,44 176,55C176,68 173,77 166,84C159,91 146,95 129,95C88,95 56,77 32,42l-17,17C58,102 90,139 109,171C87,168 65,165 43,162l-7,23C60,185 89,187 123,192l7,3l12,-11C148,178 147,174 139,173C121,150 103,127 86,105C105,110 121,113 133,113C154,113 171,107 182,96C192,86 197,72 197,55C197,38 192,24 181,13C165,-3 132,-11 81,-12l-10,21C121,8 152,14 165,27z" horiz-adv-x="216" unicode="ろ" />
<glyph d="M102,120C111,120 118,117 123,112C127,108 129,101 130,90C150,97 173,105 198,113l7,-24C179,85 155,79 132,70l0,-44l-20,0l0,36C92,53 79,45 73,39C66,32 62,24 62,17C62,13 64,9 68,5C73,0 82,-2 95,-2l84,0l0,-19l-85,0C73,-21 58,-17 49,-8C42,-1 39,7 39,17C39,28 43,37 52,46C65,59 85,71 111,82C110,90 109,95 106,98C103,101 98,102 89,102C76,102 55,90 28,66l-17,17C42,102 64,124 75,147C56,146 38,144 19,143l-4,20C39,164 62,165 83,166C86,174 90,187 95,206l19,-5C121,198 121,196 114,193C111,184 108,176 105,167C129,169 152,172 174,175l3,-21C151,152 125,150 99,148C92,135 86,124 79,116C87,119 95,120 102,120z" horiz-adv-x="219" unicode="を" />
<glyph d="M100,80C83,80 69,70 57,50C50,38 42,23 35,4l-23,12C39,59 72,119 110,198l22,-12C137,181 136,179 129,178C115,157 98,129 79,93C90,98 100,100 109,100C117,100 123,98 128,93C133,88 136,79 137,65l6,-38C144,18 150,14 159,14C168,14 175,17 181,23C194,36 204,61 211,98l22,-11C224,49 214,24 202,12C189,-1 174,-8 157,-8C136,-8 124,3 121,25l-7,43C113,76 108,80 100,80z" horiz-adv-x="246" unicode="ん" />
<glyph d="M84,105l20,-2C109,102 109,100 104,97l0,-19C125,94 141,108 150,120l-138,-4l-2,18l151,4l8,3l12,-15C183,122 182,120 177,121C162,103 143,84 120,64l-16,13C105,39 87,7 52,-18l-18,15C67,17 84,43 84,75z" horiz-adv-x="194" unicode="ァ" />
<glyph d="M122,102C123,51 102,12 57,-16l-17,19C79,24 99,54 99,93l0,43l21,0C126,135 127,133 122,129l0,-26C146,121 164,139 177,156l-163,-6l-2,23l182,5l7,2l15,-18C218,159 216,158 211,159C191,133 167,109 139,86z" horiz-adv-x="230" unicode="ア" />
<glyph d="M104,-20l-20,0l0,93C69,62 47,49 18,34l-14,17C67,82 111,115 134,152l17,-13C155,136 154,133 147,132C136,118 121,104 104,89z" horiz-adv-x="167" unicode="ィ" />
<glyph d="M15,73C85,102 138,144 174,197l19,-16C198,177 196,174 186,172C173,155 157,138 137,121l0,-136l-23,0l0,117C91,84 63,68 32,53z" horiz-adv-x="211" unicode="イ" />
<glyph d="M214,141C214,68 179,15 109,-20l-19,19C155,28 187,72 188,131l-139,0l2,-59l-23,0l-3,81l79,0l0,50l20,0C132,202 133,200 127,195l0,-42l75,0z" horiz-adv-x="241" unicode="ウ" />
<glyph d="M102,108l0,-79l73,0l0,-19l-163,0l0,19l70,0l0,79l-56,0l0,19l132,0l0,-19z" horiz-adv-x="190" unicode="ェ" />
<glyph d="M213,42l0,-22l-199,0l0,22l87,0l0,99l-70,0l0,22l162,0l0,-22l-69,0l0,-99z" horiz-adv-x="229" unicode="エ" />
<glyph d="M103,75C85,48 60,24 29,1l-17,15C44,36 72,62 95,95l-77,0l0,19l85,0l0,46l18,0C127,159 128,157 123,153l0,-39l70,0l0,-19l-70,0l0,-96C123,-13 117,-19 106,-19l-25,0l-3,19l14,0C99,0 103,3 103,9z" horiz-adv-x="207" unicode="ォ" />
<glyph d="M6,26C49,53 82,86 106,124l-94,0l0,22l106,0l0,55l21,0C145,200 146,197 141,193l0,-47l84,0l0,-22l-84,0l0,-117C141,-9 133,-17 118,-17l-28,0l-4,22l20,0C114,6 118,11 118,18l0,84C93,65 62,33 26,8z" horiz-adv-x="239" unicode="オ" />
<glyph d="M165,126l-57,-2C104,67 78,23 29,-10l-17,17C58,38 82,77 85,124l-71,-2l-2,20l74,2l0,56l21,0C114,199 115,196 109,192l0,-48l79,3l0,-62C188,52 185,29 179,16C173,3 160,-4 141,-4l-24,0l-3,25C124,20 133,19 140,19C150,19 156,22 159,29C163,40 165,58 165,85z" horiz-adv-x="211" unicode="カ" />
<glyph d="M109,144l79,3l0,-62C188,52 185,29 179,16C173,3 160,-4 141,-4l-24,0l-3,25C124,20 133,19 140,19C150,19 156,22 159,29C163,40 165,58 165,85l0,41l-57,-2C104,67 78,23 29,-10l-17,17C58,38 82,77 85,124l-71,-2l-2,20l74,2l0,56l21,0C114,199 115,196 109,192M158,194l12,12C179,197 190,186 201,173l-12,-12C178,174 167,185 158,194M186,204l12,12C207,207 218,196 229,183l-12,-12C205,185 195,196 186,204z" horiz-adv-x="236" unicode="ガ" />
<glyph d="M233,78l-93,-10l19,-81l-22,-5l-19,83l-102,-12l-3,21l100,11l-10,47l-68,-8l-4,21l66,7l-10,46l21,4C114,203 115,200 111,195l8,-40l73,10l4,-21l-71,-9l10,-47l94,11z" horiz-adv-x="246" unicode="キ" />
<glyph d="M118,155l73,10l4,-21l-71,-9l10,-47l94,11l4,-21l-93,-10l19,-81l-22,-5l-19,83l-102,-12l-3,21l100,11l-10,47l-68,-8l-4,21l66,7l-10,46l21,3C113,202 114,199 110,194M242,183l-13,-11C219,185 209,196 200,205l12,11C222,207 232,196 242,183M197,165C186,180 178,191 171,196l11,11C191,199 201,188 210,175z" horiz-adv-x="247" unicode="ギ" />
<glyph d="M61,-19l-18,19C108,27 148,73 161,138l-80,0C66,113 50,92 33,77l-20,13C48,121 70,158 80,200l23,-8C107,190 106,188 101,186C98,177 95,169 90,160l72,0l9,5l18,-18C194,142 193,139 186,137C173,64 132,12 61,-19z" horiz-adv-x="206" unicode="ク" />
<glyph d="M61,-19l-18,19C108,27 148,73 161,138l-80,0C66,113 50,92 33,77l-20,13C48,121 70,158 80,200l23,-8C107,190 106,188 101,186C98,177 95,169 90,160l72,0l9,5l18,-18C194,142 193,139 186,137C173,64 132,12 61,-19M161,196l13,11C185,197 196,185 206,172l-14,-11C181,176 171,188 161,196M192,205l12,12C214,208 224,197 233,185l-12,-12C210,186 201,197 192,205z" horiz-adv-x="241" unicode="グ" />
<glyph d="M12,82C41,112 60,150 68,196l25,-6C98,189 98,186 91,182C87,167 82,153 76,139l148,0l0,-22l-58,0C160,65 135,20 91,-18l-23,13C114,32 138,72 141,117l-76,0C56,100 45,84 32,71z" horiz-adv-x="238" unicode="ケ" />
<glyph d="M224,139l0,-22l-58,0C160,65 135,20 91,-18l-23,13C114,32 138,72 141,117l-76,0C56,100 45,84 32,71l-20,11C41,112 60,150 68,196l25,-6C98,189 98,186 91,182C87,167 82,153 76,139M179,200C190,189 200,177 211,164l-13,-11C186,167 175,179 166,189M207,211C218,200 229,189 240,176l-15,-11C214,179 204,191 195,200z" horiz-adv-x="246" unicode="ゲ" />
<glyph d="M154,129l-139,0l0,22l162,0l0,-143l-23,0l0,11l-139,0l0,22l139,0z" horiz-adv-x="204" unicode="コ" />
<glyph d="M174,151l0,-143l-23,0l0,11l-139,0l0,22l139,0l0,88l-139,0l0,22M206,169C195,184 184,195 175,204l13,10C199,204 209,192 219,179M178,159C168,172 158,184 148,195l13,10C172,194 182,182 191,169z" horiz-adv-x="228" unicode="ゴ" />
<glyph d="M181,133l59,0l0,-22l-58,0l0,-19C182,42 156,6 103,-15l-16,18C135,19 159,48 159,90l0,21l-66,0l1,-51l-22,0l-1,51l-56,0l0,22l56,0l-1,53l21,0C98,185 98,182 92,176l1,-43l65,0l0,61l22,0C187,193 187,190 181,184z" horiz-adv-x="256" unicode="サ" />
<glyph d="M181,133l59,0l0,-22l-58,0l0,-19C182,42 156,6 103,-15l-16,18C135,19 159,48 159,90l0,21l-66,0l1,-51l-22,0l-1,51l-56,0l0,22l56,0l-1,53l21,0C98,185 98,182 92,176l1,-43l65,0l0,61l22,0C187,193 187,190 181,184M231,166l-13,-11C207,168 197,179 188,187l11,12C210,190 220,179 231,166M250,183l-13,-11C227,185 217,196 207,204l11,12C229,207 240,196 250,183z" horiz-adv-x="256" unicode="ザ" />
<glyph d="M34,16C107,32 161,70 198,129l18,-18C182,56 129,18 58,-5C56,-13 53,-13 48,-6M78,105l-16,-21C42,99 25,109 12,116l15,21C44,128 61,118 78,105M106,164l-14,-21C74,156 57,166 42,175l13,21C73,186 90,175 106,164z" horiz-adv-x="230" unicode="シ" />
<glyph d="M216,111C182,56 129,18 58,-5C56,-13 53,-13 48,-6l-14,22C107,32 161,70 198,129M62,84C42,99 25,109 12,116l15,21C44,128 61,118 78,105M92,143C74,156 57,166 42,175l13,21C73,186 90,175 106,164M175,211C186,202 198,192 209,180l-13,-13C184,180 173,191 162,199M151,194C162,185 174,174 185,162l-13,-12C161,162 149,173 137,183z" horiz-adv-x="230" unicode="ジ" />
<glyph d="M219,15l-20,-17C171,27 144,52 118,72C92,44 62,19 29,-3l-19,17C81,60 126,106 146,152l-109,-7l-3,24l116,5l12,3l16,-16C183,156 181,153 174,152C161,130 148,110 134,91C163,69 191,44 219,15z" horiz-adv-x="231" unicode="ス" />
<glyph d="M135,91C164,69 192,44 220,15l-20,-17C172,27 145,52 119,72C93,44 63,19 30,-3l-19,17C82,60 127,106 147,152l-109,-7l-3,24l116,5l12,3l16,-16C184,156 182,153 175,152C162,130 149,110 135,91M228,171C216,185 205,196 194,205l13,12C219,208 230,197 241,184M200,155C191,165 180,177 165,190l15,12C192,191 204,180 215,168z" horiz-adv-x="247" unicode="ズ" />
<glyph d="M164,51l-19,13C160,82 173,101 186,120l-83,-15l0,-74C103,22 108,17 117,17l92,0l-3,-22l-95,0C90,-5 80,6 80,27l0,74l-60,-12l-8,23l68,12l0,66l21,0C107,189 108,186 103,182l0,-55l90,15l8,5l18,-18C222,126 220,124 215,123C195,94 178,70 164,51z" horiz-adv-x="234" unicode="セ" />
<glyph d="M162,172l25,-4C193,167 193,164 186,159C182,116 170,80 149,51C134,29 105,7 63,-15l-18,18C83,20 112,42 131,68C146,89 157,123 162,172M14,160l22,12C47,158 59,139 72,114l-23,-13C37,127 25,147 14,160z" horiz-adv-x="206" unicode="ソ" />
<glyph d="M88,163l67,0l11,4l13,-13C182,151 180,148 175,146C170,119 162,95 151,73l24,-16l-15,-22l-22,16C119,23 91,0 55,-18l-23,17C72,16 101,38 118,65C101,76 85,85 69,94l12,18C102,103 119,94 132,86C142,107 148,125 150,141l-73,0C64,118 49,98 30,79l-19,13C45,127 67,165 78,204l24,-10C107,191 106,189 98,186C95,178 92,170 88,163z" horiz-adv-x="196" unicode="タ" />
<glyph d="M179,154C182,151 180,148 175,146C170,119 162,95 151,73l24,-16l-15,-22l-22,16C119,23 91,0 55,-18l-23,17C72,16 101,38 118,65C101,76 85,85 69,94l12,18C102,103 119,94 132,86C142,107 148,125 150,141l-73,0C64,118 49,98 30,79l-19,13C45,127 67,165 78,204l24,-10C107,191 106,189 98,186C95,178 92,170 88,163l67,0l11,4M172,200C183,191 195,180 207,167l-13,-10C182,170 170,181 159,190M195,215C206,208 217,197 228,184l-13,-11C203,186 192,197 182,205z" horiz-adv-x="236" unicode="ダ" />
<glyph d="M136,112l82,0l0,-22l-82,0C136,43 115,8 73,-15l-16,16C95,22 114,52 113,90l-100,0l0,22l100,0l0,38C94,148 70,146 40,145l-9,21C96,167 145,173 180,184l11,-21C193,158 190,158 182,161C168,158 153,155 136,153z" horiz-adv-x="233" unicode="チ" />
<glyph d="M136,28C117,9 91,-7 60,-18l-13,19C78,11 102,25 119,42C138,61 148,92 151,137l21,-7C178,128 178,125 172,122C167,79 155,47 136,28M63,131l19,10C92,128 101,113 108,96l-21,-10C79,104 71,119 63,131M11,118l20,10C40,115 49,100 56,82l-20,-11C28,90 20,105 11,118z" horiz-adv-x="188" unicode="ッ" />
<glyph d="M156,39C135,17 106,0 69,-12l-18,21C87,19 115,33 134,51C158,74 173,114 180,173l24,-7C211,164 211,161 204,157C196,103 180,64 156,39M40,94C31,115 22,134 11,152l22,12C43,148 53,129 63,106M102,113C93,134 83,152 73,167l23,11C106,164 116,146 125,125z" horiz-adv-x="221" unicode="ツ" />
<glyph d="M107,100l-100,0l0,22l205,0l0,-22l-82,0l0,-13C130,45 115,10 85,-17l-20,15C93,20 107,50 107,87M43,161l0,22l133,0l0,-22z" horiz-adv-x="227" unicode="テ" />
<glyph d="M115,100l-100,0l0,22l205,0l0,-22l-82,0l0,-13C138,45 123,10 93,-17l-20,15C101,20 115,50 115,87M51,161l0,22l123,0l0,-22M215,167l-14,-10C192,170 182,182 173,193l14,9C196,193 205,182 215,167M239,181l-14,-10C214,186 205,197 197,205l14,10C220,206 229,194 239,181z" horiz-adv-x="246" unicode="デ" />
<glyph d="M154,82l-12,-23C107,77 78,89 55,95l0,-104l-23,0l0,200l20,0C60,190 61,188 55,183l0,-63C88,111 121,98 154,82z" horiz-adv-x="166" unicode="ト" />
<glyph d="M140,59C105,77 76,89 53,95l0,-104l-23,0l0,200l20,0C58,190 59,188 53,183l0,-63C86,111 119,98 152,82M138,147C127,161 115,172 104,181l13,10C128,182 140,171 151,157M162,166C153,177 142,188 129,199l13,10C153,201 164,190 175,176z" horiz-adv-x="181" unicode="ド" />
<glyph d="M134,133l93,0l0,-22l-92,0l0,-18C135,44 114,6 71,-19l-21,16C91,18 112,50 112,93l0,18l-99,0l0,22l98,0l0,60l20,0C138,192 139,190 134,185z" horiz-adv-x="241" unicode="ナ" />
<glyph d="M12,50l207,0l0,-22l-207,0M37,159l147,0l0,-22l-147,0z" horiz-adv-x="233" unicode="ニ" />
<glyph d="M168,160l6,2l11,-15C188,142 186,140 181,140C167,125 149,109 126,91l0,-105l-23,0l0,89C81,60 56,47 29,35l-17,18C67,74 113,102 148,138l-113,-5l-3,22l71,2l0,45l20,0C129,201 130,198 126,194l0,-36M147,79l15,19C186,85 207,71 225,55l-17,-20C185,54 165,69 147,79z" horiz-adv-x="238" unicode="ネ" />
<glyph d="M115,72C93,43 67,19 36,0l-24,19C42,34 67,54 88,79C109,104 126,139 138,184l27,-12C170,169 169,167 162,164C148,125 132,95 115,72z" horiz-adv-x="181" unicode="ノ" />
<glyph d="M151,140l21,16C205,114 229,70 243,23l-27,-9C199,67 178,109 151,140M94,124C82,82 63,44 36,9l-23,15C42,59 62,99 72,144l24,-11C101,130 101,127 94,124z" horiz-adv-x="256" unicode="ハ" />
<glyph d="M172,156C205,114 229,70 243,23l-27,-9C199,67 178,109 151,140M96,133C101,130 101,127 94,124C82,82 63,44 36,9l-23,15C42,59 62,99 72,144M248,180l-13,-12C223,181 212,192 203,200l13,11C225,204 235,193 248,180M224,162l-15,-11C199,164 189,176 178,185l14,11C202,187 213,175 224,162z" horiz-adv-x="256" unicode="バ" />
<glyph d="M192,159C187,164 184,171 184,179C184,187 187,194 192,199C197,204 204,207 212,207C220,207 227,204 232,199C237,194 240,187 240,179C240,171 237,164 232,159C227,154 220,151 212,151C204,151 197,154 192,159M225,166C228,169 230,174 230,179C230,184 228,189 225,192C222,195 217,197 212,197C207,197 202,195 199,192C196,189 194,184 194,179C194,174 196,169 199,166C202,163 207,161 212,161C217,161 222,163 225,166M172,156C205,114 229,70 243,23l-27,-9C199,67 178,109 151,140M96,133C101,130 101,127 94,124C82,82 63,44 36,9l-23,15C42,59 62,99 72,144z" horiz-adv-x="256" unicode="パ" />
<glyph d="M173,124C176,118 173,117 164,121C127,111 87,103 46,98l0,-65C46,24 50,20 59,20l115,0l-2,-22l-117,0C34,-2 23,7 23,24l0,157l20,0C50,180 51,177 46,173l0,-51C91,127 131,136 165,147z" horiz-adv-x="196" unicode="ヒ" />
<glyph d="M173,124C176,118 173,117 164,121C127,111 87,103 46,98l0,-65C46,24 50,20 59,20l115,0l-2,-22l-117,0C34,-2 23,7 23,24l0,157l20,0C50,180 51,177 46,173l0,-51C91,127 131,136 165,147M161,157C150,170 140,182 130,192l14,11C153,194 164,183 175,168M159,205l12,11C181,207 192,195 203,182l-13,-11C178,185 168,196 159,205z" horiz-adv-x="221" unicode="ビ" />
<glyph d="M187,172C190,175 192,180 192,185C192,190 190,195 187,198C184,201 179,203 174,203C169,203 164,201 161,198C158,195 156,190 156,185C156,180 158,175 161,172C164,169 169,167 174,167C179,167 184,169 187,172M154,165C149,170 146,177 146,185C146,193 149,200 154,205C159,210 166,213 174,213C182,213 189,210 194,205C199,200 202,193 202,185C202,177 199,170 194,165C189,160 182,157 174,157C166,157 159,160 154,165M173,124C176,118 173,117 164,121C127,111 87,103 46,98l0,-65C46,24 50,20 59,20l115,0l-2,-22l-117,0C34,-2 23,7 23,24l0,157l20,0C50,180 51,177 46,173l0,-51C91,127 131,136 165,147z" horiz-adv-x="221" unicode="ピ" />
<glyph d="M32,16C115,35 159,80 163,149l-150,0l0,22l152,0l14,3l11,-10C187,75 141,19 50,-6z" horiz-adv-x="206" unicode="フ" />
<glyph d="M13,149l0,22l151,0l15,3l11,-10C187,76 141,19 50,-6l-18,22C115,35 159,79 163,149M170,174C161,183 153,192 144,199l12,12C165,204 174,195 183,185M206,177C195,189 185,199 176,207l12,10C199,209 209,199 218,188z" horiz-adv-x="226" unicode="ブ" />
<glyph d="M205,177C208,180 210,185 210,190C210,195 208,200 205,203C202,206 197,208 192,208C187,208 182,206 179,203C176,200 174,195 174,190C174,185 176,180 179,177C182,174 187,172 192,172C197,172 202,174 205,177M172,170C167,175 164,182 164,190C164,198 167,205 172,210C177,215 184,218 192,218C200,218 207,215 212,210C217,205 220,198 220,190C220,182 217,175 212,170C207,165 200,162 192,162C184,162 177,165 172,170M13,149l0,22l148,0l26,-19C184,71 138,19 50,-6l-18,22C115,35 159,80 163,149z" horiz-adv-x="226" unicode="プ" />
<glyph d="M99,157C104,157 109,155 113,152C144,125 183,91 230,50l-22,-20C173,62 141,92 110,120C104,125 100,128 98,128C95,128 91,125 86,120C67,97 48,76 30,57l-19,22C37,104 62,128 85,151C89,155 94,157 99,157z" horiz-adv-x="242" unicode="ヘ" />
<glyph d="M230,49l-22,-20C173,61 141,91 110,119C104,124 100,127 98,127C95,127 91,124 86,119C67,96 48,75 30,56l-19,22C37,103 62,127 85,150C89,154 94,156 99,156C104,156 109,154 113,151C144,124 183,90 230,49M209,171l-12,-12C184,173 173,184 164,191l12,12C187,194 198,184 209,171M152,181C163,172 174,162 186,149l-12,-12C161,150 149,161 140,168z" horiz-adv-x="242" unicode="ベ" />
<glyph d="M194,157C197,160 199,165 199,170C199,175 197,180 194,183C191,186 186,188 181,188C176,188 171,186 168,183C165,180 163,175 163,170C163,165 165,160 168,157C171,154 176,152 181,152C186,152 191,154 194,157M161,150C156,155 153,162 153,170C153,178 156,185 161,190C166,195 173,198 181,198C189,198 196,195 201,190C206,185 209,178 209,170C209,162 206,155 201,150C196,145 189,142 181,142C173,142 166,145 161,150M230,49l-22,-20C173,61 141,91 110,119C104,124 100,127 98,127C95,127 91,124 86,119C67,96 48,75 30,56l-19,22C37,103 62,127 85,150C89,154 94,156 99,156C104,156 109,154 113,151C144,124 183,90 230,49z" horiz-adv-x="242" unicode="ペ" />
<glyph d="M33,14l-22,12C28,50 42,75 53,102l22,-12C79,87 78,84 71,83C61,61 48,38 33,14M105,201l21,0C133,200 134,197 128,193l0,-48l92,0l0,-22l-92,0l0,-139l-23,0l0,139l-90,0l0,22l90,0M208,17C194,42 177,65 157,86l19,16C200,77 218,53 230,32z" horiz-adv-x="236" unicode="ホ" />
<glyph d="M174,102C198,77 216,53 228,32l-22,-15C192,42 175,65 155,86M126,145l92,0l0,-22l-92,0l0,-139l-23,0l0,139l-90,0l0,22l90,0l0,56l21,0C131,200 132,197 126,193M73,90C77,87 76,84 69,83C59,61 46,38 31,14l-22,12C26,50 40,75 51,102M161,187l12,12C184,190 195,180 206,169l-12,-13C182,169 171,179 161,187M189,203l13,11C213,205 224,195 235,182l-13,-12C210,183 199,194 189,203z" horiz-adv-x="244" unicode="ボ" />
<glyph d="M221,173C224,176 226,181 226,186C226,191 224,196 221,199C218,202 213,204 208,204C203,204 198,202 195,199C192,196 190,191 190,186C190,181 192,176 195,173C198,170 203,168 208,168C213,168 218,170 221,173M188,166C183,171 180,178 180,186C180,194 183,201 188,206C193,211 200,214 208,214C216,214 223,211 228,206C233,201 236,194 236,186C236,178 233,171 228,166C223,161 216,158 208,158C200,158 193,161 188,166M174,102C198,77 216,53 228,32l-22,-15C192,42 175,65 155,86M126,145l92,0l0,-22l-92,0l0,-139l-23,0l0,139l-90,0l0,22l90,0l0,56l21,0C131,200 132,197 126,193M73,90C77,87 76,84 69,83C59,61 46,38 31,14l-22,12C26,50 40,75 51,102z" horiz-adv-x="244" unicode="ポ" />
<glyph d="M168,19l-20,-18C123,31 94,58 61,82l14,18C87,93 100,82 115,69C135,89 155,114 176,143l-157,-7l-4,25l175,4l10,3l15,-16C218,147 217,144 211,145C194,123 169,93 134,54C148,41 159,29 168,19z" horiz-adv-x="231" unicode="マ" />
<glyph d="M138,65C110,77 72,87 25,94l3,24C69,113 108,104 145,90M150,-8C99,11 53,24 13,29l5,26C70,48 116,36 157,19M142,161l-6,-26C103,147 64,155 21,158l3,26C79,178 118,170 142,161z" horiz-adv-x="171" unicode="ミ" />
<glyph d="M13,36l42,1C79,89 97,142 110,196l23,-8C139,184 138,181 131,179C118,132 101,85 80,39l104,5C170,63 159,76 151,85l20,14C194,74 215,45 236,12l-22,-15l-16,26l-168,-13C26,3 23,3 21,10z" horiz-adv-x="250" unicode="ム" />
<glyph d="M12,17C53,39 82,64 100,92C81,103 65,112 51,118l12,22C78,133 94,125 113,114C122,133 130,159 137,192l24,-8C166,183 165,181 160,178C151,145 142,119 133,101C149,90 162,81 172,73l-13,-23C146,61 133,71 121,79C96,46 67,19 33,-2z" horiz-adv-x="184" unicode="メ" />
<glyph d="M205,3l-87,0C101,3 93,12 93,29l0,54l-80,0l0,22l80,0l0,46l-61,0l0,22l159,0l0,-22l-75,0l0,-46l100,0l0,-22l-100,0l0,-46C116,29 120,25 127,25l79,0z" horiz-adv-x="230" unicode="モ" />
<glyph d="M90,108l82,20l5,3l16,-16C196,112 195,110 190,109C178,90 165,71 152,53l-17,11C146,78 156,93 165,108l-69,-17l34,-101l-20,-7l-33,104l-58,-16l-7,20l58,13l-16,48l21,4C81,156 82,154 78,149z" horiz-adv-x="206" unicode="ャ" />
<glyph d="M108,137l96,24l11,5l18,-18C236,144 235,141 229,139C218,118 202,95 183,70l-19,14C178,101 190,119 200,139l-85,-22l42,-124l-24,-7l-41,125l-71,-19l-8,22l72,17l-21,60l24,5C94,196 95,193 91,188z" horiz-adv-x="251" unicode="ヤ" />
<glyph d="M193,8l-180,0l0,19l108,0l2,75l-82,0l0,19l102,0l-2,-94l52,0z" horiz-adv-x="208" unicode="ュ" />
<glyph d="M230,16l-216,0l0,22l129,0l3,94l-98,0l0,22l122,0l-3,-116l63,0z" horiz-adv-x="246" unicode="ユ" />
<glyph d="M12,0l0,19l102,0l0,42l-96,0l0,19l96,0l0,40l-102,0l0,19l122,0l0,-150l-20,0l0,11z" horiz-adv-x="161" unicode="ョ" />
<glyph d="M55,-1C120,16 156,51 164,104l-152,0l0,22l153,0l9,3l18,-11C196,115 195,112 190,109C179,42 140,-1 73,-21M168,161l-138,0l0,22l138,0z" horiz-adv-x="207" unicode="ラ" />
<glyph d="M155,88C155,38 132,2 85,-20l-20,17C109,17 131,48 132,89l0,100l21,0C160,188 160,185 155,181M52,66l-23,0l0,113l22,0C58,178 58,176 52,171z" horiz-adv-x="191" unicode="リ" />
<glyph d="M150,29C179,40 206,63 231,97l14,-19C220,43 188,18 149,3l-8,-4l-16,12l2,5l0,161l21,0C154,176 155,173 150,169M16,2C49,34 66,74 66,121l0,45l21,0C93,165 94,162 89,158l0,-36C89,66 71,22 36,-11z" horiz-adv-x="256" unicode="ル" />
<glyph d="M53,23C114,34 159,65 187,116l17,-17C172,43 119,9 44,-4l-16,12l2,6l0,166l22,0C58,179 58,177 53,173z" horiz-adv-x="218" unicode="レ" />
<glyph d="M188,17l-23,0l0,11l-111,0l0,-16l-23,0l0,156l157,0M54,146l0,-96l111,0l0,96z" horiz-adv-x="221" unicode="ロ" />
<glyph d="M101,-11l-19,20C121,24 148,43 161,66C174,88 180,118 180,155l-127,0l0,-66l-23,0l0,88l176,0C206,123 199,83 184,56C169,29 142,7 101,-11z" horiz-adv-x="241" unicode="ワ" />
<glyph d="M208,116C173,43 113,4 30,0C27,-9 23,-9 20,-2l-8,26C99,26 157,62 187,131M16,157l17,21C47,169 65,155 86,135l-19,-19C49,133 32,146 16,157z" horiz-adv-x="221" unicode="ン" />
<glyph d="M85,114l0,-43l-43,0l0,43z" horiz-adv-x="128" unicode="・" />
<glyph d="M12,82l0,22l223,0l0,-22z" horiz-adv-x="246" unicode="ー" />
<glyph d="M119,184l20,0l0,-83l83,0l0,-19l-83,0l0,-83l-20,0l0,83l-83,0l0,19l83,0z" horiz-adv-x="256" unicode="＋" />
<glyph d="M52,120C52,127 54,133 57,140C60,145 63,150 68,155C81,168 102,175 130,175C156,175 174,170 185,159C194,150 198,141 198,132C198,124 196,117 192,111C187,104 181,99 172,95C159,89 149,84 143,79C140,76 138,73 138,68l0,-8l-22,0l0,15C116,84 119,91 126,95C141,104 152,110 161,114C168,118 172,124 172,131C172,136 170,141 166,145C160,151 148,154 130,154C111,154 97,150 89,142C82,135 78,127 78,120l0,-5l-26,0M113,32l28,0l0,-29l-28,0z" horiz-adv-x="256" unicode="？" />
</font>
</defs>
</svg>
